<?xml version="1.0" encoding="utf-8" standalone="no"?>
<!DOCTYPE svg PUBLIC "-//W3C//DTD SVG 1.1//EN"
  "http://www.w3.org/Graphics/SVG/1.1/DTD/svg11.dtd">
<svg xmlns:xlink="http://www.w3.org/1999/xlink" width="481.129687pt" height="363.122813pt" viewBox="0 0 481.129687 363.122813" xmlns="http://www.w3.org/2000/svg" version="1.1">
 <metadata>
  <rdf:RDF xmlns:dc="http://purl.org/dc/elements/1.1/" xmlns:cc="http://creativecommons.org/ns#" xmlns:rdf="http://www.w3.org/1999/02/22-rdf-syntax-ns#">
   <cc:Work>
    <dc:type rdf:resource="http://purl.org/dc/dcmitype/StillImage"/>
    <dc:date>2025-02-23T10:03:49.064583</dc:date>
    <dc:format>image/svg+xml</dc:format>
    <dc:creator>
     <cc:Agent>
      <dc:title>Matplotlib v3.7.2, https://matplotlib.org/</dc:title>
     </cc:Agent>
    </dc:creator>
   </cc:Work>
  </rdf:RDF>
 </metadata>
 <defs>
  <style type="text/css">*{stroke-linejoin: round; stroke-linecap: butt}</style>
 </defs>
 <g id="figure_1">
  <g id="patch_1">
   <path d="M 0 363.122813 
L 481.129687 363.122813 
L 481.129687 0 
L 0 0 
z
" style="fill: #ffffff"/>
  </g>
  <g id="axes_1">
   <g id="patch_2">
    <path d="M 27.529687 339.84 
L 473.929688 339.84 
L 473.929688 7.2 
L 27.529687 7.2 
z
" style="fill: #ffffff"/>
   </g>
   <g id="PathCollection_1">
    <defs>
     <path id="m0e6eaff013" d="M 0 3 
C 0.795609 3 1.55874 2.683901 2.12132 2.12132 
C 2.683901 1.55874 3 0.795609 3 0 
C 3 -0.795609 2.683901 -1.55874 2.12132 -2.12132 
C 1.55874 -2.683901 0.795609 -3 0 -3 
C -0.795609 -3 -1.55874 -2.683901 -2.12132 -2.12132 
C -2.683901 -1.55874 -3 -0.795609 -3 0 
C -3 0.795609 -2.683901 1.55874 -2.12132 2.12132 
C -1.55874 2.683901 -0.795609 3 0 3 
z
" style="stroke: #1f77b4"/>
    </defs>
    <g clip-path="url(#p69c8c4ff88)">
     <use xlink:href="#m0e6eaff013" x="47.820597" y="195.055947" style="fill: #1f77b4; stroke: #1f77b4"/>
     <use xlink:href="#m0e6eaff013" x="51.91977" y="232.55185" style="fill: #1f77b4; stroke: #1f77b4"/>
     <use xlink:href="#m0e6eaff013" x="56.018944" y="183.065975" style="fill: #1f77b4; stroke: #1f77b4"/>
     <use xlink:href="#m0e6eaff013" x="60.118117" y="128.108218" style="fill: #1f77b4; stroke: #1f77b4"/>
     <use xlink:href="#m0e6eaff013" x="64.217291" y="234.299467" style="fill: #1f77b4; stroke: #1f77b4"/>
     <use xlink:href="#m0e6eaff013" x="68.316464" y="232.924396" style="fill: #1f77b4; stroke: #1f77b4"/>
     <use xlink:href="#m0e6eaff013" x="72.415638" y="120.546802" style="fill: #1f77b4; stroke: #1f77b4"/>
     <use xlink:href="#m0e6eaff013" x="76.514811" y="168.865428" style="fill: #1f77b4; stroke: #1f77b4"/>
     <use xlink:href="#m0e6eaff013" x="80.613985" y="243.208292" style="fill: #1f77b4; stroke: #1f77b4"/>
     <use xlink:href="#m0e6eaff013" x="84.713159" y="179.882917" style="fill: #1f77b4; stroke: #1f77b4"/>
     <use xlink:href="#m0e6eaff013" x="88.812332" y="240.089403" style="fill: #1f77b4; stroke: #1f77b4"/>
     <use xlink:href="#m0e6eaff013" x="92.911506" y="238.856869" style="fill: #1f77b4; stroke: #1f77b4"/>
     <use xlink:href="#m0e6eaff013" x="97.010679" y="194.1617" style="fill: #1f77b4; stroke: #1f77b4"/>
     <use xlink:href="#m0e6eaff013" x="101.109853" y="324.72" style="fill: #1f77b4; stroke: #1f77b4"/>
     <use xlink:href="#m0e6eaff013" x="105.209026" y="311.8154" style="fill: #1f77b4; stroke: #1f77b4"/>
     <use xlink:href="#m0e6eaff013" x="109.3082" y="239.271354" style="fill: #1f77b4; stroke: #1f77b4"/>
     <use xlink:href="#m0e6eaff013" x="113.407373" y="265.477146" style="fill: #1f77b4; stroke: #1f77b4"/>
     <use xlink:href="#m0e6eaff013" x="117.506547" y="182.866469" style="fill: #1f77b4; stroke: #1f77b4"/>
     <use xlink:href="#m0e6eaff013" x="121.605721" y="256.313291" style="fill: #1f77b4; stroke: #1f77b4"/>
     <use xlink:href="#m0e6eaff013" x="125.704894" y="285.808514" style="fill: #1f77b4; stroke: #1f77b4"/>
     <use xlink:href="#m0e6eaff013" x="129.804068" y="108.261663" style="fill: #1f77b4; stroke: #1f77b4"/>
     <use xlink:href="#m0e6eaff013" x="133.903241" y="210.427551" style="fill: #1f77b4; stroke: #1f77b4"/>
     <use xlink:href="#m0e6eaff013" x="138.002415" y="191.098959" style="fill: #1f77b4; stroke: #1f77b4"/>
     <use xlink:href="#m0e6eaff013" x="142.101588" y="281.074036" style="fill: #1f77b4; stroke: #1f77b4"/>
     <use xlink:href="#m0e6eaff013" x="146.200762" y="225.808727" style="fill: #1f77b4; stroke: #1f77b4"/>
     <use xlink:href="#m0e6eaff013" x="150.299935" y="184.320391" style="fill: #1f77b4; stroke: #1f77b4"/>
     <use xlink:href="#m0e6eaff013" x="154.399109" y="260.194052" style="fill: #1f77b4; stroke: #1f77b4"/>
     <use xlink:href="#m0e6eaff013" x="158.498283" y="165.364131" style="fill: #1f77b4; stroke: #1f77b4"/>
     <use xlink:href="#m0e6eaff013" x="162.597456" y="223.756152" style="fill: #1f77b4; stroke: #1f77b4"/>
     <use xlink:href="#m0e6eaff013" x="166.69663" y="203.470137" style="fill: #1f77b4; stroke: #1f77b4"/>
     <use xlink:href="#m0e6eaff013" x="170.795803" y="221.073393" style="fill: #1f77b4; stroke: #1f77b4"/>
     <use xlink:href="#m0e6eaff013" x="174.894977" y="69.479565" style="fill: #1f77b4; stroke: #1f77b4"/>
     <use xlink:href="#m0e6eaff013" x="178.99415" y="182.318244" style="fill: #1f77b4; stroke: #1f77b4"/>
     <use xlink:href="#m0e6eaff013" x="183.093324" y="244.86533" style="fill: #1f77b4; stroke: #1f77b4"/>
     <use xlink:href="#m0e6eaff013" x="187.192497" y="128.392105" style="fill: #1f77b4; stroke: #1f77b4"/>
     <use xlink:href="#m0e6eaff013" x="191.291671" y="252.103307" style="fill: #1f77b4; stroke: #1f77b4"/>
     <use xlink:href="#m0e6eaff013" x="195.390845" y="163.210247" style="fill: #1f77b4; stroke: #1f77b4"/>
     <use xlink:href="#m0e6eaff013" x="199.490018" y="294.582163" style="fill: #1f77b4; stroke: #1f77b4"/>
     <use xlink:href="#m0e6eaff013" x="203.589192" y="254.552035" style="fill: #1f77b4; stroke: #1f77b4"/>
     <use xlink:href="#m0e6eaff013" x="207.688365" y="159.82277" style="fill: #1f77b4; stroke: #1f77b4"/>
     <use xlink:href="#m0e6eaff013" x="211.787539" y="125.294535" style="fill: #1f77b4; stroke: #1f77b4"/>
     <use xlink:href="#m0e6eaff013" x="215.886712" y="158.63518" style="fill: #1f77b4; stroke: #1f77b4"/>
     <use xlink:href="#m0e6eaff013" x="219.985886" y="174.830726" style="fill: #1f77b4; stroke: #1f77b4"/>
     <use xlink:href="#m0e6eaff013" x="224.085059" y="184.809244" style="fill: #1f77b4; stroke: #1f77b4"/>
     <use xlink:href="#m0e6eaff013" x="228.184233" y="255.510399" style="fill: #1f77b4; stroke: #1f77b4"/>
     <use xlink:href="#m0e6eaff013" x="232.283407" y="207.694157" style="fill: #1f77b4; stroke: #1f77b4"/>
     <use xlink:href="#m0e6eaff013" x="236.38258" y="190.452927" style="fill: #1f77b4; stroke: #1f77b4"/>
     <use xlink:href="#m0e6eaff013" x="240.481754" y="96.169689" style="fill: #1f77b4; stroke: #1f77b4"/>
     <use xlink:href="#m0e6eaff013" x="244.580927" y="138.4725" style="fill: #1f77b4; stroke: #1f77b4"/>
     <use xlink:href="#m0e6eaff013" x="248.680101" y="266.056744" style="fill: #1f77b4; stroke: #1f77b4"/>
     <use xlink:href="#m0e6eaff013" x="252.779274" y="136.920155" style="fill: #1f77b4; stroke: #1f77b4"/>
     <use xlink:href="#m0e6eaff013" x="256.878448" y="178.957436" style="fill: #1f77b4; stroke: #1f77b4"/>
     <use xlink:href="#m0e6eaff013" x="260.977621" y="195.44823" style="fill: #1f77b4; stroke: #1f77b4"/>
     <use xlink:href="#m0e6eaff013" x="265.076795" y="115.193101" style="fill: #1f77b4; stroke: #1f77b4"/>
     <use xlink:href="#m0e6eaff013" x="269.175968" y="88.150321" style="fill: #1f77b4; stroke: #1f77b4"/>
     <use xlink:href="#m0e6eaff013" x="273.275142" y="92.880541" style="fill: #1f77b4; stroke: #1f77b4"/>
     <use xlink:href="#m0e6eaff013" x="277.374316" y="199.886827" style="fill: #1f77b4; stroke: #1f77b4"/>
     <use xlink:href="#m0e6eaff013" x="281.473489" y="166.068694" style="fill: #1f77b4; stroke: #1f77b4"/>
     <use xlink:href="#m0e6eaff013" x="285.572663" y="125.488141" style="fill: #1f77b4; stroke: #1f77b4"/>
     <use xlink:href="#m0e6eaff013" x="289.671836" y="84.674612" style="fill: #1f77b4; stroke: #1f77b4"/>
     <use xlink:href="#m0e6eaff013" x="293.77101" y="172.350649" style="fill: #1f77b4; stroke: #1f77b4"/>
     <use xlink:href="#m0e6eaff013" x="297.870183" y="153.009156" style="fill: #1f77b4; stroke: #1f77b4"/>
     <use xlink:href="#m0e6eaff013" x="301.969357" y="207.993928" style="fill: #1f77b4; stroke: #1f77b4"/>
     <use xlink:href="#m0e6eaff013" x="306.06853" y="212.121322" style="fill: #1f77b4; stroke: #1f77b4"/>
     <use xlink:href="#m0e6eaff013" x="310.167704" y="87.78345" style="fill: #1f77b4; stroke: #1f77b4"/>
     <use xlink:href="#m0e6eaff013" x="314.266878" y="53.126122" style="fill: #1f77b4; stroke: #1f77b4"/>
     <use xlink:href="#m0e6eaff013" x="318.366051" y="139.181856" style="fill: #1f77b4; stroke: #1f77b4"/>
     <use xlink:href="#m0e6eaff013" x="322.465225" y="71.968826" style="fill: #1f77b4; stroke: #1f77b4"/>
     <use xlink:href="#m0e6eaff013" x="326.564398" y="109.888237" style="fill: #1f77b4; stroke: #1f77b4"/>
     <use xlink:href="#m0e6eaff013" x="330.663572" y="170.142351" style="fill: #1f77b4; stroke: #1f77b4"/>
     <use xlink:href="#m0e6eaff013" x="334.762745" y="107.154823" style="fill: #1f77b4; stroke: #1f77b4"/>
     <use xlink:href="#m0e6eaff013" x="338.861919" y="33.753121" style="fill: #1f77b4; stroke: #1f77b4"/>
     <use xlink:href="#m0e6eaff013" x="342.961092" y="128.722466" style="fill: #1f77b4; stroke: #1f77b4"/>
     <use xlink:href="#m0e6eaff013" x="347.060266" y="29.376246" style="fill: #1f77b4; stroke: #1f77b4"/>
     <use xlink:href="#m0e6eaff013" x="351.15944" y="284.147975" style="fill: #1f77b4; stroke: #1f77b4"/>
     <use xlink:href="#m0e6eaff013" x="355.258613" y="72.094737" style="fill: #1f77b4; stroke: #1f77b4"/>
     <use xlink:href="#m0e6eaff013" x="359.357787" y="115.704572" style="fill: #1f77b4; stroke: #1f77b4"/>
     <use xlink:href="#m0e6eaff013" x="363.45696" y="137.962684" style="fill: #1f77b4; stroke: #1f77b4"/>
     <use xlink:href="#m0e6eaff013" x="367.556134" y="112.667893" style="fill: #1f77b4; stroke: #1f77b4"/>
     <use xlink:href="#m0e6eaff013" x="371.655307" y="238.579218" style="fill: #1f77b4; stroke: #1f77b4"/>
     <use xlink:href="#m0e6eaff013" x="375.754481" y="128.983996" style="fill: #1f77b4; stroke: #1f77b4"/>
     <use xlink:href="#m0e6eaff013" x="379.853654" y="92.302285" style="fill: #1f77b4; stroke: #1f77b4"/>
     <use xlink:href="#m0e6eaff013" x="383.952828" y="22.32" style="fill: #1f77b4; stroke: #1f77b4"/>
     <use xlink:href="#m0e6eaff013" x="388.052002" y="143.140384" style="fill: #1f77b4; stroke: #1f77b4"/>
     <use xlink:href="#m0e6eaff013" x="392.151175" y="159.532234" style="fill: #1f77b4; stroke: #1f77b4"/>
     <use xlink:href="#m0e6eaff013" x="396.250349" y="139.381405" style="fill: #1f77b4; stroke: #1f77b4"/>
     <use xlink:href="#m0e6eaff013" x="400.349522" y="51.25647" style="fill: #1f77b4; stroke: #1f77b4"/>
     <use xlink:href="#m0e6eaff013" x="404.448696" y="85.794027" style="fill: #1f77b4; stroke: #1f77b4"/>
     <use xlink:href="#m0e6eaff013" x="408.547869" y="136.973411" style="fill: #1f77b4; stroke: #1f77b4"/>
     <use xlink:href="#m0e6eaff013" x="412.647043" y="71.750798" style="fill: #1f77b4; stroke: #1f77b4"/>
     <use xlink:href="#m0e6eaff013" x="416.746216" y="95.85364" style="fill: #1f77b4; stroke: #1f77b4"/>
     <use xlink:href="#m0e6eaff013" x="420.84539" y="41.126899" style="fill: #1f77b4; stroke: #1f77b4"/>
     <use xlink:href="#m0e6eaff013" x="424.944564" y="142.023993" style="fill: #1f77b4; stroke: #1f77b4"/>
     <use xlink:href="#m0e6eaff013" x="429.043737" y="117.731725" style="fill: #1f77b4; stroke: #1f77b4"/>
     <use xlink:href="#m0e6eaff013" x="433.142911" y="120.302698" style="fill: #1f77b4; stroke: #1f77b4"/>
     <use xlink:href="#m0e6eaff013" x="437.242084" y="184.514399" style="fill: #1f77b4; stroke: #1f77b4"/>
     <use xlink:href="#m0e6eaff013" x="441.341258" y="75.42492" style="fill: #1f77b4; stroke: #1f77b4"/>
     <use xlink:href="#m0e6eaff013" x="445.440431" y="76.197346" style="fill: #1f77b4; stroke: #1f77b4"/>
     <use xlink:href="#m0e6eaff013" x="449.539605" y="90.490663" style="fill: #1f77b4; stroke: #1f77b4"/>
     <use xlink:href="#m0e6eaff013" x="453.638778" y="103.789779" style="fill: #1f77b4; stroke: #1f77b4"/>
    </g>
   </g>
   <g id="matplotlib.axis_1">
    <g id="xtick_1">
     <g id="line2d_1">
      <defs>
       <path id="m82afa861db" d="M 0 0 
L 0 3.5 
" style="stroke: #000000; stroke-width: 0.8"/>
      </defs>
      <g>
       <use xlink:href="#m82afa861db" x="47.820597" y="339.84" style="stroke: #000000; stroke-width: 0.8"/>
      </g>
     </g>
     <g id="text_1">
      <!-- 0 -->
      <g transform="translate(45.320597 353.78375) scale(0.1 -0.1)">
       <defs>
        <path id="TimesNewRomanPSMT-30" d="M 231 2094 
Q 231 2819 450 3342 
Q 669 3866 1031 4122 
Q 1313 4325 1613 4325 
Q 2100 4325 2488 3828 
Q 2972 3213 2972 2159 
Q 2972 1422 2759 906 
Q 2547 391 2217 158 
Q 1888 -75 1581 -75 
Q 975 -75 572 641 
Q 231 1244 231 2094 
z
M 844 2016 
Q 844 1141 1059 588 
Q 1238 122 1591 122 
Q 1759 122 1940 273 
Q 2122 425 2216 781 
Q 2359 1319 2359 2297 
Q 2359 3022 2209 3506 
Q 2097 3866 1919 4016 
Q 1791 4119 1609 4119 
Q 1397 4119 1231 3928 
Q 1006 3669 925 3112 
Q 844 2556 844 2016 
z
" transform="scale(0.015625)"/>
       </defs>
       <use xlink:href="#TimesNewRomanPSMT-30"/>
      </g>
     </g>
    </g>
    <g id="xtick_2">
     <g id="line2d_2">
      <g>
       <use xlink:href="#m82afa861db" x="128.984233" y="339.84" style="stroke: #000000; stroke-width: 0.8"/>
      </g>
     </g>
     <g id="text_2">
      <!-- 2 -->
      <g transform="translate(126.484233 353.78375) scale(0.1 -0.1)">
       <defs>
        <path id="TimesNewRomanPSMT-32" d="M 2934 816 
L 2638 0 
L 138 0 
L 138 116 
Q 1241 1122 1691 1759 
Q 2141 2397 2141 2925 
Q 2141 3328 1894 3587 
Q 1647 3847 1303 3847 
Q 991 3847 742 3664 
Q 494 3481 375 3128 
L 259 3128 
Q 338 3706 661 4015 
Q 984 4325 1469 4325 
Q 1984 4325 2329 3994 
Q 2675 3663 2675 3213 
Q 2675 2891 2525 2569 
Q 2294 2063 1775 1497 
Q 997 647 803 472 
L 1909 472 
Q 2247 472 2383 497 
Q 2519 522 2628 598 
Q 2738 675 2819 816 
L 2934 816 
z
" transform="scale(0.015625)"/>
       </defs>
       <use xlink:href="#TimesNewRomanPSMT-32"/>
      </g>
     </g>
    </g>
    <g id="xtick_3">
     <g id="line2d_3">
      <g>
       <use xlink:href="#m82afa861db" x="210.147869" y="339.84" style="stroke: #000000; stroke-width: 0.8"/>
      </g>
     </g>
     <g id="text_3">
      <!-- 4 -->
      <g transform="translate(207.647869 353.78375) scale(0.1 -0.1)">
       <defs>
        <path id="TimesNewRomanPSMT-34" d="M 2978 1563 
L 2978 1119 
L 2409 1119 
L 2409 0 
L 1894 0 
L 1894 1119 
L 100 1119 
L 100 1519 
L 2066 4325 
L 2409 4325 
L 2409 1563 
L 2978 1563 
z
M 1894 1563 
L 1894 3666 
L 406 1563 
L 1894 1563 
z
" transform="scale(0.015625)"/>
       </defs>
       <use xlink:href="#TimesNewRomanPSMT-34"/>
      </g>
     </g>
    </g>
    <g id="xtick_4">
     <g id="line2d_4">
      <g>
       <use xlink:href="#m82afa861db" x="291.311506" y="339.84" style="stroke: #000000; stroke-width: 0.8"/>
      </g>
     </g>
     <g id="text_4">
      <!-- 6 -->
      <g transform="translate(288.811506 353.78375) scale(0.1 -0.1)">
       <defs>
        <path id="TimesNewRomanPSMT-36" d="M 2869 4325 
L 2869 4209 
Q 2456 4169 2195 4045 
Q 1934 3922 1679 3669 
Q 1425 3416 1258 3105 
Q 1091 2794 978 2366 
Q 1428 2675 1881 2675 
Q 2316 2675 2634 2325 
Q 2953 1975 2953 1425 
Q 2953 894 2631 456 
Q 2244 -75 1606 -75 
Q 1172 -75 869 213 
Q 275 772 275 1663 
Q 275 2231 503 2743 
Q 731 3256 1154 3653 
Q 1578 4050 1965 4187 
Q 2353 4325 2688 4325 
L 2869 4325 
z
M 925 2138 
Q 869 1716 869 1456 
Q 869 1156 980 804 
Q 1091 453 1309 247 
Q 1469 100 1697 100 
Q 1969 100 2183 356 
Q 2397 613 2397 1088 
Q 2397 1622 2184 2012 
Q 1972 2403 1581 2403 
Q 1463 2403 1327 2353 
Q 1191 2303 925 2138 
z
" transform="scale(0.015625)"/>
       </defs>
       <use xlink:href="#TimesNewRomanPSMT-36"/>
      </g>
     </g>
    </g>
    <g id="xtick_5">
     <g id="line2d_5">
      <g>
       <use xlink:href="#m82afa861db" x="372.475142" y="339.84" style="stroke: #000000; stroke-width: 0.8"/>
      </g>
     </g>
     <g id="text_5">
      <!-- 8 -->
      <g transform="translate(369.975142 353.78375) scale(0.1 -0.1)">
       <defs>
        <path id="TimesNewRomanPSMT-38" d="M 1228 2134 
Q 725 2547 579 2797 
Q 434 3047 434 3316 
Q 434 3728 753 4026 
Q 1072 4325 1600 4325 
Q 2113 4325 2425 4047 
Q 2738 3769 2738 3413 
Q 2738 3175 2569 2928 
Q 2400 2681 1866 2347 
Q 2416 1922 2594 1678 
Q 2831 1359 2831 1006 
Q 2831 559 2490 242 
Q 2150 -75 1597 -75 
Q 994 -75 656 303 
Q 388 606 388 966 
Q 388 1247 577 1523 
Q 766 1800 1228 2134 
z
M 1719 2469 
Q 2094 2806 2194 3001 
Q 2294 3197 2294 3444 
Q 2294 3772 2109 3958 
Q 1925 4144 1606 4144 
Q 1288 4144 1088 3959 
Q 888 3775 888 3528 
Q 888 3366 970 3203 
Q 1053 3041 1206 2894 
L 1719 2469 
z
M 1375 2016 
Q 1116 1797 991 1539 
Q 866 1281 866 981 
Q 866 578 1086 336 
Q 1306 94 1647 94 
Q 1984 94 2187 284 
Q 2391 475 2391 747 
Q 2391 972 2272 1150 
Q 2050 1481 1375 2016 
z
" transform="scale(0.015625)"/>
       </defs>
       <use xlink:href="#TimesNewRomanPSMT-38"/>
      </g>
     </g>
    </g>
    <g id="xtick_6">
     <g id="line2d_6">
      <g>
       <use xlink:href="#m82afa861db" x="453.638778" y="339.84" style="stroke: #000000; stroke-width: 0.8"/>
      </g>
     </g>
     <g id="text_6">
      <!-- 10 -->
      <g transform="translate(448.638778 353.78375) scale(0.1 -0.1)">
       <defs>
        <path id="TimesNewRomanPSMT-31" d="M 750 3822 
L 1781 4325 
L 1884 4325 
L 1884 747 
Q 1884 391 1914 303 
Q 1944 216 2037 169 
Q 2131 122 2419 116 
L 2419 0 
L 825 0 
L 825 116 
Q 1125 122 1212 167 
Q 1300 213 1334 289 
Q 1369 366 1369 747 
L 1369 3034 
Q 1369 3497 1338 3628 
Q 1316 3728 1258 3775 
Q 1200 3822 1119 3822 
Q 1003 3822 797 3725 
L 750 3822 
z
" transform="scale(0.015625)"/>
       </defs>
       <use xlink:href="#TimesNewRomanPSMT-31"/>
       <use xlink:href="#TimesNewRomanPSMT-30" x="50"/>
      </g>
     </g>
    </g>
   </g>
   <g id="matplotlib.axis_2">
    <g id="ytick_1">
     <g id="line2d_7">
      <defs>
       <path id="m4e7b9bfe2c" d="M 0 0 
L -3.5 0 
" style="stroke: #000000; stroke-width: 0.8"/>
      </defs>
      <g>
       <use xlink:href="#m4e7b9bfe2c" x="27.529687" y="293.47837" style="stroke: #000000; stroke-width: 0.8"/>
      </g>
     </g>
     <g id="text_7">
      <!-- -10 -->
      <g transform="translate(7.2 296.950245) scale(0.1 -0.1)">
       <defs>
        <path id="TimesNewRomanPSMT-2d" d="M 259 1672 
L 1875 1672 
L 1875 1200 
L 259 1200 
L 259 1672 
z
" transform="scale(0.015625)"/>
       </defs>
       <use xlink:href="#TimesNewRomanPSMT-2d"/>
       <use xlink:href="#TimesNewRomanPSMT-31" x="33.300781"/>
       <use xlink:href="#TimesNewRomanPSMT-30" x="83.300781"/>
      </g>
     </g>
    </g>
    <g id="ytick_2">
     <g id="line2d_8">
      <g>
       <use xlink:href="#m4e7b9bfe2c" x="27.529687" y="225.462118" style="stroke: #000000; stroke-width: 0.8"/>
      </g>
     </g>
     <g id="text_8">
      <!-- 0 -->
      <g transform="translate(15.529687 228.933993) scale(0.1 -0.1)">
       <use xlink:href="#TimesNewRomanPSMT-30"/>
      </g>
     </g>
    </g>
    <g id="ytick_3">
     <g id="line2d_9">
      <g>
       <use xlink:href="#m4e7b9bfe2c" x="27.529687" y="157.445867" style="stroke: #000000; stroke-width: 0.8"/>
      </g>
     </g>
     <g id="text_9">
      <!-- 10 -->
      <g transform="translate(10.529687 160.917742) scale(0.1 -0.1)">
       <use xlink:href="#TimesNewRomanPSMT-31"/>
       <use xlink:href="#TimesNewRomanPSMT-30" x="50"/>
      </g>
     </g>
    </g>
    <g id="ytick_4">
     <g id="line2d_10">
      <g>
       <use xlink:href="#m4e7b9bfe2c" x="27.529687" y="89.429615" style="stroke: #000000; stroke-width: 0.8"/>
      </g>
     </g>
     <g id="text_10">
      <!-- 20 -->
      <g transform="translate(10.529687 92.90149) scale(0.1 -0.1)">
       <use xlink:href="#TimesNewRomanPSMT-32"/>
       <use xlink:href="#TimesNewRomanPSMT-30" x="50"/>
      </g>
     </g>
    </g>
    <g id="ytick_5">
     <g id="line2d_11">
      <g>
       <use xlink:href="#m4e7b9bfe2c" x="27.529687" y="21.413364" style="stroke: #000000; stroke-width: 0.8"/>
      </g>
     </g>
     <g id="text_11">
      <!-- 30 -->
      <g transform="translate(10.529687 24.885239) scale(0.1 -0.1)">
       <defs>
        <path id="TimesNewRomanPSMT-33" d="M 325 3431 
Q 506 3859 782 4092 
Q 1059 4325 1472 4325 
Q 1981 4325 2253 3994 
Q 2459 3747 2459 3466 
Q 2459 3003 1878 2509 
Q 2269 2356 2469 2072 
Q 2669 1788 2669 1403 
Q 2669 853 2319 450 
Q 1863 -75 997 -75 
Q 569 -75 414 31 
Q 259 138 259 259 
Q 259 350 332 419 
Q 406 488 509 488 
Q 588 488 669 463 
Q 722 447 909 348 
Q 1097 250 1169 231 
Q 1284 197 1416 197 
Q 1734 197 1970 444 
Q 2206 691 2206 1028 
Q 2206 1275 2097 1509 
Q 2016 1684 1919 1775 
Q 1784 1900 1550 2001 
Q 1316 2103 1072 2103 
L 972 2103 
L 972 2197 
Q 1219 2228 1467 2375 
Q 1716 2522 1828 2728 
Q 1941 2934 1941 3181 
Q 1941 3503 1739 3701 
Q 1538 3900 1238 3900 
Q 753 3900 428 3381 
L 325 3431 
z
" transform="scale(0.015625)"/>
       </defs>
       <use xlink:href="#TimesNewRomanPSMT-33"/>
       <use xlink:href="#TimesNewRomanPSMT-30" x="50"/>
      </g>
     </g>
    </g>
   </g>
   <g id="line2d_12">
    <path d="M 47.820597 225.462118 
L 51.91977 224.088053 
L 56.018944 222.713987 
L 60.118117 221.339921 
L 64.217291 219.965856 
L 68.316464 218.59179 
L 72.415638 217.217724 
L 76.514811 215.843659 
L 80.613985 214.469593 
L 84.713159 213.095527 
L 88.812332 211.721462 
L 92.911506 210.347396 
L 97.010679 208.97333 
L 101.109853 207.599264 
L 105.209026 206.225199 
L 109.3082 204.851133 
L 113.407373 203.477067 
L 117.506547 202.103002 
L 121.605721 200.728936 
L 125.704894 199.35487 
L 129.804068 197.980805 
L 133.903241 196.606739 
L 138.002415 195.232673 
L 142.101588 193.858608 
L 146.200762 192.484542 
L 150.299935 191.110476 
L 154.399109 189.736411 
L 158.498283 188.362345 
L 162.597456 186.988279 
L 166.69663 185.614213 
L 170.795803 184.240148 
L 174.894977 182.866082 
L 178.99415 181.492016 
L 183.093324 180.117951 
L 187.192497 178.743885 
L 191.291671 177.369819 
L 195.390845 175.995754 
L 199.490018 174.621688 
L 203.589192 173.247622 
L 207.688365 171.873557 
L 211.787539 170.499491 
L 215.886712 169.125425 
L 219.985886 167.751359 
L 224.085059 166.377294 
L 228.184233 165.003228 
L 232.283407 163.629162 
L 236.38258 162.255097 
L 240.481754 160.881031 
L 244.580927 159.506965 
L 248.680101 158.1329 
L 252.779274 156.758834 
L 256.878448 155.384768 
L 260.977621 154.010703 
L 265.076795 152.636637 
L 269.175968 151.262571 
L 273.275142 149.888506 
L 277.374316 148.51444 
L 281.473489 147.140374 
L 285.572663 145.766308 
L 289.671836 144.392243 
L 293.77101 143.018177 
L 297.870183 141.644111 
L 301.969357 140.270046 
L 306.06853 138.89598 
L 310.167704 137.521914 
L 314.266878 136.147849 
L 318.366051 134.773783 
L 322.465225 133.399717 
L 326.564398 132.025652 
L 330.663572 130.651586 
L 334.762745 129.27752 
L 338.861919 127.903454 
L 342.961092 126.529389 
L 347.060266 125.155323 
L 351.15944 123.781257 
L 355.258613 122.407192 
L 359.357787 121.033126 
L 363.45696 119.65906 
L 367.556134 118.284995 
L 371.655307 116.910929 
L 375.754481 115.536863 
L 379.853654 114.162798 
L 383.952828 112.788732 
L 388.052002 111.414666 
L 392.151175 110.040601 
L 396.250349 108.666535 
L 400.349522 107.292469 
L 404.448696 105.918403 
L 408.547869 104.544338 
L 412.647043 103.170272 
L 416.746216 101.796206 
L 420.84539 100.422141 
L 424.944564 99.048075 
L 429.043737 97.674009 
L 433.142911 96.299944 
L 437.242084 94.925878 
L 441.341258 93.551812 
L 445.440431 92.177747 
L 449.539605 90.803681 
L 453.638778 89.429615 
" clip-path="url(#p69c8c4ff88)" style="fill: none; stroke: #ff0000; stroke-width: 1.5; stroke-linecap: square"/>
   </g>
   <g id="patch_3">
    <path d="M 27.529687 339.84 
L 27.529687 7.2 
" style="fill: none; stroke: #000000; stroke-width: 0.8; stroke-linejoin: miter; stroke-linecap: square"/>
   </g>
   <g id="patch_4">
    <path d="M 473.929688 339.84 
L 473.929688 7.2 
" style="fill: none; stroke: #000000; stroke-width: 0.8; stroke-linejoin: miter; stroke-linecap: square"/>
   </g>
   <g id="patch_5">
    <path d="M 27.529687 339.84 
L 473.929687 339.84 
" style="fill: none; stroke: #000000; stroke-width: 0.8; stroke-linejoin: miter; stroke-linecap: square"/>
   </g>
   <g id="patch_6">
    <path d="M 27.529687 7.2 
L 473.929687 7.2 
" style="fill: none; stroke: #000000; stroke-width: 0.8; stroke-linejoin: miter; stroke-linecap: square"/>
   </g>
   <g id="legend_1">
    <g id="patch_7">
     <path d="M 34.529687 43.715625 
L 136.529687 43.715625 
Q 138.529687 43.715625 138.529687 41.715625 
L 138.529687 14.2 
Q 138.529687 12.2 136.529687 12.2 
L 34.529687 12.2 
Q 32.529687 12.2 32.529687 14.2 
L 32.529687 41.715625 
Q 32.529687 43.715625 34.529687 43.715625 
z
" style="fill: #ffffff; opacity: 0.8; stroke: #cccccc; stroke-linejoin: miter"/>
    </g>
    <g id="PathCollection_2">
     <g>
      <use xlink:href="#m0e6eaff013" x="46.529687" y="20.69375" style="fill: #1f77b4; stroke: #1f77b4"/>
     </g>
    </g>
    <g id="text_12">
     <!-- 生成的虚拟数据 -->
     <g transform="translate(64.529687 23.31875) scale(0.1 -0.1)">
      <defs>
       <path id="SimSun-751f" d="M 1575 4825 
L 2150 4500 
Q 1900 4375 1550 3575 
L 3025 3575 
Q 3025 4725 3000 5250 
L 3600 5000 
L 3400 4825 
L 3400 3575 
L 4825 3575 
L 5200 3950 
L 5675 3425 
L 3400 3425 
L 3400 1875 
L 4525 1875 
L 4925 2250 
L 5375 1725 
L 3400 1725 
L 3400 -75 
L 5200 -75 
L 5600 325 
L 6100 -225 
L 1125 -225 
Q 800 -225 525 -300 
L 300 -75 
L 3025 -75 
L 3025 1725 
L 2075 1725 
Q 1750 1725 1475 1650 
L 1250 1875 
L 3025 1875 
L 3025 3425 
L 1500 3425 
Q 925 2350 475 1900 
L 400 1950 
Q 825 2600 1125 3375 
Q 1425 4150 1575 4825 
z
" transform="scale(0.015625)"/>
       <path id="SimSun-6210" d="M 4325 5075 
Q 4850 4775 5025 4612 
Q 5200 4450 5162 4287 
Q 5125 4125 5025 4062 
Q 4925 4000 4900 4000 
Q 4800 4000 4750 4200 
Q 4675 4475 4250 5000 
L 4325 5075 
z
M 5625 100 
L 5925 1175 
L 6025 1150 
Q 5925 375 5925 125 
Q 5925 -125 6050 -350 
Q 6100 -450 6000 -450 
Q 5825 -450 5350 -275 
Q 4875 -100 4250 675 
Q 3475 -125 2550 -525 
L 2525 -425 
Q 3525 225 4050 950 
Q 3550 1875 3400 3650 
L 1425 3650 
L 1400 2450 
L 2550 2450 
L 2775 2700 
L 3150 2350 
L 2925 2175 
Q 2850 675 2725 437 
Q 2600 200 2250 50 
Q 2175 400 1575 625 
L 1575 725 
Q 2050 650 2237 625 
Q 2425 600 2475 837 
Q 2525 1075 2575 2300 
L 1400 2300 
Q 1325 225 350 -600 
L 300 -525 
Q 950 400 987 1462 
Q 1025 2525 1025 3075 
Q 1025 3625 1000 4025 
L 1450 3800 
L 3375 3800 
Q 3300 4625 3250 5150 
L 3900 4900 
L 3725 4700 
Q 3725 4300 3775 3800 
L 5150 3800 
L 5500 4150 
L 6000 3650 
L 3775 3650 
Q 3925 2000 4300 1325 
Q 4500 1625 4700 2100 
Q 4900 2575 5100 3175 
L 5625 2775 
L 5400 2650 
Q 4975 1625 4525 975 
Q 5050 350 5625 100 
z
" transform="scale(0.015625)"/>
       <path id="SimSun-7684" d="M 1125 3775 
L 1125 2175 
L 2425 2175 
L 2425 3775 
L 1125 3775 
z
M 1125 2025 
L 1125 275 
L 2425 275 
L 2425 2025 
L 1125 2025 
z
M 2750 3625 
Q 2750 700 2775 -200 
L 2425 -400 
L 2425 125 
L 1125 125 
L 1125 -300 
L 775 -500 
Q 800 675 800 1837 
Q 800 3000 775 4150 
L 1150 3925 
L 1400 3925 
Q 1650 4775 1675 5225 
L 2225 4925 
Q 1975 4800 1550 3925 
L 2375 3925 
L 2625 4175 
L 3000 3800 
L 2750 3625 
z
M 3975 5200 
L 4525 4875 
Q 4325 4750 3900 3850 
L 5250 3850 
L 5525 4125 
L 5900 3750 
L 5675 3575 
Q 5625 650 5537 262 
Q 5450 -125 5287 -275 
Q 5125 -425 4775 -550 
Q 4650 -150 3950 50 
L 3950 175 
Q 4575 50 4850 50 
Q 5125 50 5187 475 
Q 5250 900 5300 3700 
L 3850 3700 
Q 3400 2975 2900 2475 
L 2825 2525 
Q 3350 3325 3600 3950 
Q 3850 4575 3975 5200 
z
M 3525 2750 
Q 4125 2300 4225 2087 
Q 4325 1875 4325 1775 
Q 4325 1600 4225 1475 
Q 4125 1350 4075 1350 
Q 3975 1350 3925 1700 
Q 3825 2200 3475 2675 
L 3525 2750 
z
" transform="scale(0.015625)"/>
       <path id="SimSun-865a" d="M 1625 1675 
Q 2175 1125 2287 912 
Q 2400 700 2400 600 
Q 2400 475 2300 350 
Q 2200 225 2150 225 
Q 2100 225 2075 325 
Q 2025 500 1937 775 
Q 1850 1050 1575 1625 
L 1625 1675 
z
M 1150 -100 
L 2775 -100 
Q 2775 1550 2750 1925 
L 3325 1650 
L 3100 1500 
L 3100 -100 
L 3900 -100 
Q 3900 1500 3875 1875 
L 4450 1575 
L 4225 1450 
L 4225 450 
Q 4500 700 4787 1025 
Q 5075 1350 5275 1725 
L 5700 1325 
L 5475 1275 
Q 4875 725 4225 300 
L 4225 -100 
L 5150 -100 
L 5525 275 
L 6050 -250 
L 1850 -250 
Q 1650 -250 1375 -325 
L 1150 -100 
z
M 5125 3175 
L 5400 3725 
L 1450 3725 
Q 1450 2275 1425 1675 
Q 1400 1075 1150 500 
Q 900 -75 350 -650 
L 275 -575 
Q 650 -100 862 550 
Q 1075 1200 1100 2100 
Q 1125 3000 1075 4100 
L 1475 3875 
L 2900 3875 
Q 2900 4900 2875 5250 
L 3475 4975 
L 3225 4800 
L 3225 4525 
L 4600 4525 
L 4875 4800 
L 5300 4375 
L 3225 4375 
L 3225 3875 
L 5375 3875 
L 5600 4150 
L 6050 3700 
Q 5675 3700 5200 3125 
L 5125 3175 
z
M 3250 2575 
Q 3250 2350 3525 2325 
L 4950 2325 
Q 5075 2350 5137 2450 
Q 5200 2550 5250 2925 
L 5350 2925 
Q 5350 2675 5375 2537 
Q 5400 2400 5600 2325 
Q 5450 2075 5125 2075 
L 3350 2075 
Q 2925 2075 2925 2425 
L 2925 2800 
L 2025 2725 
L 1800 2650 
L 1525 2850 
L 2925 2950 
Q 2925 3450 2900 3700 
L 3450 3475 
L 3250 3300 
L 3250 2975 
L 4275 3075 
L 4525 3350 
L 5000 2975 
L 3250 2825 
L 3250 2575 
z
" transform="scale(0.015625)"/>
       <path id="SimSun-62df" d="M 3150 1050 
L 4250 1900 
L 4325 1825 
Q 4000 1500 3625 1087 
Q 3250 675 3050 300 
L 2675 675 
Q 2800 800 2800 1125 
L 2800 3125 
Q 2800 3850 2775 4650 
L 3375 4350 
L 3150 4175 
L 3150 1050 
z
M 5050 1175 
Q 5725 700 5887 450 
Q 6050 200 6000 -12 
Q 5950 -225 5850 -325 
Q 5750 -425 5625 25 
Q 5475 475 5000 1025 
Q 4375 -225 2625 -675 
L 2600 -575 
Q 3250 -300 3712 37 
Q 4175 375 4500 912 
Q 4825 1450 4850 2400 
Q 4875 3350 4875 3750 
Q 4875 4525 4825 5000 
L 5500 4675 
L 5250 4475 
Q 5250 3650 5237 2775 
Q 5225 1900 5050 1175 
z
M 1375 3850 
Q 1375 4875 1350 5225 
L 1925 4950 
L 1725 4750 
L 1725 3850 
L 2050 3850 
L 2325 4125 
L 2750 3700 
L 1725 3700 
L 1725 2525 
L 2575 2975 
L 2625 2875 
L 1725 2275 
L 1725 100 
Q 1700 -350 1175 -550 
Q 1200 -275 450 0 
L 450 100 
Q 1000 0 1200 12 
Q 1400 25 1375 350 
L 1375 2050 
Q 675 1600 600 1425 
L 250 1875 
Q 550 1950 1375 2375 
L 1375 3700 
L 775 3700 
L 450 3650 
L 250 3850 
L 1375 3850 
z
M 3575 4775 
Q 4050 4375 4200 4150 
Q 4350 3925 4350 3775 
Q 4350 3700 4312 3587 
Q 4275 3475 4200 3412 
Q 4125 3350 4100 3350 
Q 4000 3350 3950 3700 
Q 3850 4125 3500 4725 
L 3575 4775 
z
" transform="scale(0.015625)"/>
       <path id="SimSun-6570" d="M 1875 1525 
Q 1675 1200 1500 900 
Q 1825 825 2275 725 
Q 2500 975 2725 1525 
L 1875 1525 
z
M 850 4900 
Q 1325 4600 1425 4450 
Q 1525 4300 1525 4225 
Q 1525 4100 1437 3975 
Q 1350 3850 1300 3850 
Q 1225 3850 1150 4100 
Q 1050 4450 775 4850 
L 850 4900 
z
M 3000 4975 
L 3450 4675 
Q 3250 4625 3100 4425 
Q 2925 4225 2525 3825 
L 2450 3875 
Q 2925 4625 3000 4975 
z
M 1875 5250 
L 2425 5000 
L 2225 4825 
L 2225 3675 
L 2850 3675 
L 3125 3950 
L 3550 3525 
L 2225 3525 
L 2225 3300 
Q 2800 3175 2937 3062 
Q 3075 2950 3075 2775 
Q 3075 2700 3050 2587 
Q 3025 2475 2975 2475 
Q 2925 2475 2800 2650 
Q 2600 2925 2225 3175 
L 2225 2400 
L 1925 2200 
L 2275 2050 
Q 2150 2000 1950 1675 
L 2725 1675 
L 2900 1900 
L 3275 1575 
L 3050 1450 
Q 2800 875 2600 650 
Q 3000 550 3137 437 
Q 3275 325 3275 150 
Q 3275 -25 3200 -25 
Q 3125 -25 3025 75 
Q 2750 275 2400 425 
Q 1525 -275 325 -500 
L 300 -425 
Q 1450 -50 2100 550 
Q 1600 725 1125 800 
Q 1225 950 1525 1525 
L 1200 1525 
Q 875 1525 600 1450 
L 375 1675 
L 1575 1675 
Q 1675 1925 1775 2275 
L 1900 2225 
L 1900 3250 
Q 1225 2475 350 2050 
L 300 2125 
Q 1225 2775 1700 3525 
L 1250 3525 
Q 925 3525 650 3450 
L 425 3675 
L 1900 3675 
Q 1900 4575 1875 5250 
z
M 3925 3525 
Q 4050 2075 4525 1100 
Q 4925 1950 5025 3525 
L 3925 3525 
z
M 4050 5250 
L 4625 4925 
Q 4425 4850 4325 4625 
Q 4225 4400 3950 3675 
L 5375 3675 
L 5675 3975 
L 6125 3525 
L 5400 3525 
Q 5250 1675 4750 775 
Q 5325 75 6100 -100 
L 6100 -200 
Q 5625 -275 5600 -500 
Q 4950 -50 4525 525 
Q 3700 -275 2550 -650 
L 2500 -575 
Q 3650 -50 4325 800 
Q 3850 1975 3825 3375 
Q 3575 2725 3100 2150 
L 3025 2200 
Q 3625 3200 4050 5250 
z
" transform="scale(0.015625)"/>
       <path id="SimSun-636e" d="M 3125 -650 
Q 3150 -100 3150 512 
Q 3150 1125 3125 1600 
L 3475 1400 
L 4175 1400 
L 4175 2400 
L 3000 2400 
Q 2825 625 1675 -525 
L 1600 -450 
Q 2150 275 2437 1187 
Q 2725 2100 2737 3312 
Q 2750 4525 2725 5050 
L 3100 4825 
L 5150 4825 
L 5350 5025 
L 5700 4700 
L 5500 4575 
Q 5500 3825 5525 3475 
L 5175 3325 
L 5175 3625 
L 3075 3625 
Q 3075 3150 3025 2550 
L 4175 2550 
Q 4175 3025 4150 3475 
L 4700 3225 
L 4500 3075 
L 4500 2550 
L 5325 2550 
L 5600 2825 
L 6025 2400 
L 4500 2400 
L 4500 1400 
L 5150 1400 
L 5350 1625 
L 5700 1300 
L 5500 1150 
Q 5500 150 5525 -400 
L 5175 -600 
L 5175 -75 
L 3475 -75 
L 3475 -500 
L 3125 -650 
z
M 3075 4675 
L 3075 3775 
L 5175 3775 
L 5175 4675 
L 3075 4675 
z
M 3475 1250 
L 3475 75 
L 5175 75 
L 5175 1250 
L 3475 1250 
z
M 1675 2450 
L 2500 2925 
L 2550 2825 
L 1675 2175 
L 1675 150 
Q 1650 -300 1125 -500 
Q 1175 -250 500 25 
L 500 125 
Q 1050 25 1187 37 
Q 1325 50 1325 225 
L 1325 2000 
Q 625 1500 600 1350 
L 225 1800 
Q 375 1825 1325 2300 
L 1325 3575 
L 750 3575 
L 450 3525 
L 250 3725 
L 1325 3725 
Q 1325 4750 1300 5175 
L 1875 4875 
L 1675 4700 
L 1675 3725 
L 1950 3725 
L 2275 4000 
L 2650 3575 
L 1675 3575 
L 1675 2450 
z
" transform="scale(0.015625)"/>
      </defs>
      <use xlink:href="#SimSun-751f"/>
      <use xlink:href="#SimSun-6210" x="100"/>
      <use xlink:href="#SimSun-7684" x="200"/>
      <use xlink:href="#SimSun-865a" x="300"/>
      <use xlink:href="#SimSun-62df" x="400"/>
      <use xlink:href="#SimSun-6570" x="500"/>
      <use xlink:href="#SimSun-636e" x="600"/>
     </g>
    </g>
    <g id="line2d_13">
     <path d="M 36.529687 34.076562 
L 46.529687 34.076562 
L 56.529687 34.076562 
" style="fill: none; stroke: #ff0000; stroke-width: 1.5; stroke-linecap: square"/>
    </g>
    <g id="text_13">
     <!-- 真实模型 -->
     <g transform="translate(64.529687 37.576562) scale(0.1 -0.1)">
      <defs>
       <path id="SimSun-771f" d="M 2050 3450 
L 2050 2900 
L 4300 2900 
L 4300 3450 
L 2050 3450 
z
M 2050 2750 
L 2050 2225 
L 4300 2225 
L 4300 2750 
L 2050 2750 
z
M 2050 2075 
L 2050 1550 
L 4300 1550 
L 4300 2075 
L 2050 2075 
z
M 2050 1400 
L 2050 875 
L 4300 875 
L 4300 1400 
L 2050 1400 
z
M 2875 3600 
L 2925 4325 
L 1525 4325 
Q 1200 4325 925 4250 
L 700 4475 
L 2950 4475 
Q 2975 4825 2975 5275 
L 3550 5025 
L 3375 4925 
L 3300 4475 
L 5000 4475 
L 5325 4825 
L 5775 4325 
L 3275 4325 
L 3200 3600 
L 4275 3600 
L 4450 3875 
L 4850 3575 
L 4650 3375 
L 4650 875 
L 5300 875 
L 5675 1225 
L 6125 725 
L 1150 725 
Q 825 725 550 650 
L 325 875 
L 1700 875 
Q 1700 3200 1675 3775 
L 2050 3600 
L 2875 3600 
z
M 2425 725 
L 2825 350 
L 2575 300 
Q 1500 -425 800 -650 
L 775 -575 
Q 1950 125 2425 725 
z
M 3800 700 
Q 4575 375 4962 200 
Q 5350 25 5400 -112 
Q 5450 -250 5450 -325 
Q 5450 -400 5400 -525 
Q 5350 -650 5325 -650 
Q 5250 -650 5100 -450 
Q 4875 -150 3750 625 
L 3800 700 
z
" transform="scale(0.015625)"/>
       <path id="SimSun-5b9e" d="M 1950 3625 
Q 2575 3400 2700 3250 
Q 2825 3100 2825 2975 
Q 2825 2850 2750 2700 
Q 2675 2550 2625 2550 
Q 2550 2550 2450 2800 
Q 2275 3175 1900 3550 
L 1950 3625 
z
M 3575 1325 
Q 3500 1100 3425 925 
Q 4650 550 5087 325 
Q 5525 100 5512 -225 
Q 5500 -550 5400 -550 
Q 5300 -550 5075 -300 
Q 4625 175 3375 800 
Q 3025 175 2300 -150 
Q 1575 -475 425 -625 
L 425 -525 
Q 1475 -325 2200 100 
Q 2925 525 3200 1325 
L 1225 1325 
Q 900 1325 625 1250 
L 400 1475 
L 3225 1475 
Q 3325 1950 3375 2575 
Q 3425 3200 3425 3700 
L 4050 3400 
L 3850 3225 
Q 3750 2300 3625 1475 
L 5175 1475 
L 5550 1850 
L 6075 1325 
L 3575 1325 
z
M 1275 2700 
Q 1975 2425 2100 2262 
Q 2225 2100 2225 1975 
Q 2225 1850 2150 1700 
Q 2075 1550 2025 1550 
Q 1950 1550 1850 1800 
Q 1675 2175 1225 2625 
L 1275 2700 
z
M 2750 5225 
L 2825 5275 
Q 3225 5100 3425 4925 
Q 3625 4750 3625 4600 
Q 3625 4450 3512 4300 
Q 3400 4150 3325 4150 
Q 3250 4150 3200 4400 
Q 3100 4775 2750 5225 
z
M 4975 3225 
L 5350 3925 
L 1175 3925 
Q 1225 3525 1125 3300 
Q 1025 3075 787 3100 
Q 550 3125 550 3200 
Q 550 3300 700 3475 
Q 975 3825 1050 4375 
L 1150 4375 
L 1175 4075 
L 5300 4075 
L 5575 4350 
L 6050 3800 
Q 5625 3825 5050 3175 
L 4975 3225 
z
" transform="scale(0.015625)"/>
       <path id="SimSun-6a21" d="M 1275 -625 
Q 1300 225 1300 2575 
Q 950 1675 275 925 
L 225 975 
Q 1000 2200 1250 3625 
L 675 3625 
L 450 3575 
L 250 3775 
L 1300 3775 
Q 1300 4900 1275 5250 
L 1875 5000 
L 1625 4825 
L 1625 3775 
L 1900 3775 
L 2200 4075 
L 2650 3625 
L 1625 3625 
L 1625 3000 
Q 2200 2725 2337 2562 
Q 2475 2400 2475 2250 
Q 2475 2150 2412 2012 
Q 2350 1875 2300 1875 
Q 2225 1875 2125 2150 
Q 1950 2550 1625 2850 
Q 1625 250 1650 -475 
L 1275 -625 
z
M 4475 4400 
Q 4475 4825 4450 5275 
L 5025 5000 
L 4800 4825 
L 4800 4400 
L 5300 4400 
L 5600 4700 
L 6050 4250 
L 4800 4250 
Q 4800 3975 4825 3775 
L 4475 3650 
L 4475 4250 
L 3625 4250 
L 3625 3775 
L 3275 3600 
Q 3300 3900 3300 4250 
L 2675 4250 
L 2450 4200 
L 2250 4400 
L 3300 4400 
Q 3300 4750 3275 5250 
L 3825 5000 
L 3625 4850 
L 3625 4400 
L 4475 4400 
z
M 2825 1500 
Q 2850 2175 2850 2625 
Q 2850 3075 2825 3675 
L 3175 3475 
L 5000 3475 
L 5200 3700 
L 5550 3400 
L 5350 3250 
Q 5350 1975 5375 1700 
L 5025 1550 
L 5025 1850 
L 4150 1850 
Q 4125 1525 4075 1125 
L 5325 1125 
L 5650 1450 
L 6125 975 
L 4275 975 
Q 4550 550 4987 237 
Q 5425 -75 6100 -125 
L 6100 -225 
Q 5775 -275 5625 -550 
Q 4650 -175 4150 975 
L 4050 975 
Q 3650 -425 1875 -650 
L 1850 -575 
Q 2675 -375 3100 37 
Q 3525 450 3700 975 
L 2850 975 
Q 2525 975 2250 900 
L 2025 1125 
L 3725 1125 
Q 3775 1375 3800 1850 
L 3175 1850 
L 3175 1650 
L 2825 1500 
z
M 3175 3325 
L 3175 2750 
L 5025 2750 
L 5025 3325 
L 3175 3325 
z
M 3175 2600 
L 3175 2000 
L 5025 2000 
L 5025 2600 
L 3175 2600 
z
" transform="scale(0.015625)"/>
       <path id="SimSun-578b" d="M 2575 1675 
Q 2600 2250 2600 2600 
L 2600 3400 
L 1875 3400 
Q 1825 2075 500 1350 
L 450 1425 
Q 1475 2200 1550 3400 
L 1300 3400 
Q 975 3400 700 3325 
L 475 3550 
L 1550 3550 
L 1550 4600 
L 1225 4600 
L 925 4550 
L 725 4750 
L 3000 4750 
L 3300 5050 
L 3750 4600 
L 2925 4600 
L 2925 3550 
L 3200 3550 
L 3525 3875 
L 4000 3400 
L 2925 3400 
L 2925 2600 
Q 2925 2100 2950 1875 
L 2575 1675 
z
M 1875 4600 
L 1875 3550 
L 2600 3550 
L 2600 4600 
L 1875 4600 
z
M 4175 2525 
Q 4200 3100 4200 3650 
Q 4200 4200 4175 4600 
L 4700 4400 
L 4525 4225 
L 4525 2650 
L 4175 2525 
z
M 5200 5225 
L 5725 4975 
L 5550 4800 
L 5550 2225 
Q 5600 1750 5025 1525 
Q 5000 1825 4250 2000 
L 4250 2125 
Q 4900 2050 5062 2062 
Q 5225 2075 5225 2375 
L 5225 4450 
Q 5225 4775 5200 5225 
z
M 3025 1025 
Q 3025 1400 3000 1850 
L 3600 1600 
L 3375 1425 
L 3375 1025 
L 4550 1025 
L 4900 1375 
L 5400 875 
L 3375 875 
L 3375 -150 
L 5025 -150 
L 5425 250 
L 5975 -300 
L 1275 -300 
Q 950 -300 675 -375 
L 450 -150 
L 3025 -150 
L 3025 875 
L 2000 875 
Q 1675 875 1400 800 
L 1175 1025 
L 3025 1025 
z
" transform="scale(0.015625)"/>
      </defs>
      <use xlink:href="#SimSun-771f"/>
      <use xlink:href="#SimSun-5b9e" x="100"/>
      <use xlink:href="#SimSun-6a21" x="200"/>
      <use xlink:href="#SimSun-578b" x="300"/>
     </g>
    </g>
   </g>
  </g>
 </g>
 <defs>
  <clipPath id="p69c8c4ff88">
   <rect x="27.529687" y="7.2" width="446.4" height="332.64"/>
  </clipPath>
 </defs>
</svg>
