<?xml version="1.0" encoding="utf-8" standalone="no"?>
<!DOCTYPE svg PUBLIC "-//W3C//DTD SVG 1.1//EN"
  "http://www.w3.org/Graphics/SVG/1.1/DTD/svg11.dtd">
<svg xmlns:xlink="http://www.w3.org/1999/xlink" width="493.51875pt" height="392.09625pt" viewBox="0 0 493.51875 392.09625" xmlns="http://www.w3.org/2000/svg" version="1.1">
 <metadata>
  <rdf:RDF xmlns:dc="http://purl.org/dc/elements/1.1/" xmlns:cc="http://creativecommons.org/ns#" xmlns:rdf="http://www.w3.org/1999/02/22-rdf-syntax-ns#">
   <cc:Work>
    <dc:type rdf:resource="http://purl.org/dc/dcmitype/StillImage"/>
    <dc:date>2025-02-23T10:03:50.779932</dc:date>
    <dc:format>image/svg+xml</dc:format>
    <dc:creator>
     <cc:Agent>
      <dc:title>Matplotlib v3.7.2, https://matplotlib.org/</dc:title>
     </cc:Agent>
    </dc:creator>
   </cc:Work>
  </rdf:RDF>
 </metadata>
 <defs>
  <style type="text/css">*{stroke-linejoin: round; stroke-linecap: butt}</style>
 </defs>
 <g id="figure_1">
  <g id="patch_1">
   <path d="M 0 392.09625 
L 493.51875 392.09625 
L 493.51875 0 
L 0 0 
z
" style="fill: #ffffff"/>
  </g>
  <g id="axes_1">
   <g id="patch_2">
    <path d="M 39.91875 355.730625 
L 486.31875 355.730625 
L 486.31875 23.090625 
L 39.91875 23.090625 
z
" style="fill: #ffffff"/>
   </g>
   <g id="matplotlib.axis_1">
    <g id="xtick_1">
     <g id="line2d_1">
      <defs>
       <path id="m212d7965b4" d="M 0 0 
L 0 3.5 
" style="stroke: #000000; stroke-width: 0.8"/>
      </defs>
      <g>
       <use xlink:href="#m212d7965b4" x="60.209659" y="355.730625" style="stroke: #000000; stroke-width: 0.8"/>
      </g>
     </g>
     <g id="text_1">
      <!-- -10.0 -->
      <g transform="translate(49.794815 369.674375) scale(0.1 -0.1)">
       <defs>
        <path id="TimesNewRomanPSMT-2d" d="M 259 1672 
L 1875 1672 
L 1875 1200 
L 259 1200 
L 259 1672 
z
" transform="scale(0.015625)"/>
        <path id="TimesNewRomanPSMT-31" d="M 750 3822 
L 1781 4325 
L 1884 4325 
L 1884 747 
Q 1884 391 1914 303 
Q 1944 216 2037 169 
Q 2131 122 2419 116 
L 2419 0 
L 825 0 
L 825 116 
Q 1125 122 1212 167 
Q 1300 213 1334 289 
Q 1369 366 1369 747 
L 1369 3034 
Q 1369 3497 1338 3628 
Q 1316 3728 1258 3775 
Q 1200 3822 1119 3822 
Q 1003 3822 797 3725 
L 750 3822 
z
" transform="scale(0.015625)"/>
        <path id="TimesNewRomanPSMT-30" d="M 231 2094 
Q 231 2819 450 3342 
Q 669 3866 1031 4122 
Q 1313 4325 1613 4325 
Q 2100 4325 2488 3828 
Q 2972 3213 2972 2159 
Q 2972 1422 2759 906 
Q 2547 391 2217 158 
Q 1888 -75 1581 -75 
Q 975 -75 572 641 
Q 231 1244 231 2094 
z
M 844 2016 
Q 844 1141 1059 588 
Q 1238 122 1591 122 
Q 1759 122 1940 273 
Q 2122 425 2216 781 
Q 2359 1319 2359 2297 
Q 2359 3022 2209 3506 
Q 2097 3866 1919 4016 
Q 1791 4119 1609 4119 
Q 1397 4119 1231 3928 
Q 1006 3669 925 3112 
Q 844 2556 844 2016 
z
" transform="scale(0.015625)"/>
        <path id="TimesNewRomanPSMT-2e" d="M 800 606 
Q 947 606 1047 504 
Q 1147 403 1147 259 
Q 1147 116 1045 14 
Q 944 -88 800 -88 
Q 656 -88 554 14 
Q 453 116 453 259 
Q 453 406 554 506 
Q 656 606 800 606 
z
" transform="scale(0.015625)"/>
       </defs>
       <use xlink:href="#TimesNewRomanPSMT-2d"/>
       <use xlink:href="#TimesNewRomanPSMT-31" x="33.300781"/>
       <use xlink:href="#TimesNewRomanPSMT-30" x="83.300781"/>
       <use xlink:href="#TimesNewRomanPSMT-2e" x="133.300781"/>
       <use xlink:href="#TimesNewRomanPSMT-30" x="158.300781"/>
      </g>
     </g>
    </g>
    <g id="xtick_2">
     <g id="line2d_2">
      <g>
       <use xlink:href="#m212d7965b4" x="110.936932" y="355.730625" style="stroke: #000000; stroke-width: 0.8"/>
      </g>
     </g>
     <g id="text_2">
      <!-- -7.5 -->
      <g transform="translate(103.022088 369.674375) scale(0.1 -0.1)">
       <defs>
        <path id="TimesNewRomanPSMT-37" d="M 644 4238 
L 2916 4238 
L 2916 4119 
L 1503 -88 
L 1153 -88 
L 2419 3728 
L 1253 3728 
Q 900 3728 750 3644 
Q 488 3500 328 3200 
L 238 3234 
L 644 4238 
z
" transform="scale(0.015625)"/>
        <path id="TimesNewRomanPSMT-35" d="M 2778 4238 
L 2534 3706 
L 1259 3706 
L 981 3138 
Q 1809 3016 2294 2522 
Q 2709 2097 2709 1522 
Q 2709 1188 2573 903 
Q 2438 619 2231 419 
Q 2025 219 1772 97 
Q 1413 -75 1034 -75 
Q 653 -75 479 54 
Q 306 184 306 341 
Q 306 428 378 495 
Q 450 563 559 563 
Q 641 563 702 538 
Q 763 513 909 409 
Q 1144 247 1384 247 
Q 1750 247 2026 523 
Q 2303 800 2303 1197 
Q 2303 1581 2056 1914 
Q 1809 2247 1375 2428 
Q 1034 2569 447 2591 
L 1259 4238 
L 2778 4238 
z
" transform="scale(0.015625)"/>
       </defs>
       <use xlink:href="#TimesNewRomanPSMT-2d"/>
       <use xlink:href="#TimesNewRomanPSMT-37" x="33.300781"/>
       <use xlink:href="#TimesNewRomanPSMT-2e" x="83.300781"/>
       <use xlink:href="#TimesNewRomanPSMT-35" x="108.300781"/>
      </g>
     </g>
    </g>
    <g id="xtick_3">
     <g id="line2d_3">
      <g>
       <use xlink:href="#m212d7965b4" x="161.664205" y="355.730625" style="stroke: #000000; stroke-width: 0.8"/>
      </g>
     </g>
     <g id="text_3">
      <!-- -5.0 -->
      <g transform="translate(153.749361 369.674375) scale(0.1 -0.1)">
       <use xlink:href="#TimesNewRomanPSMT-2d"/>
       <use xlink:href="#TimesNewRomanPSMT-35" x="33.300781"/>
       <use xlink:href="#TimesNewRomanPSMT-2e" x="83.300781"/>
       <use xlink:href="#TimesNewRomanPSMT-30" x="108.300781"/>
      </g>
     </g>
    </g>
    <g id="xtick_4">
     <g id="line2d_4">
      <g>
       <use xlink:href="#m212d7965b4" x="212.391477" y="355.730625" style="stroke: #000000; stroke-width: 0.8"/>
      </g>
     </g>
     <g id="text_4">
      <!-- -2.5 -->
      <g transform="translate(204.476634 369.674375) scale(0.1 -0.1)">
       <defs>
        <path id="TimesNewRomanPSMT-32" d="M 2934 816 
L 2638 0 
L 138 0 
L 138 116 
Q 1241 1122 1691 1759 
Q 2141 2397 2141 2925 
Q 2141 3328 1894 3587 
Q 1647 3847 1303 3847 
Q 991 3847 742 3664 
Q 494 3481 375 3128 
L 259 3128 
Q 338 3706 661 4015 
Q 984 4325 1469 4325 
Q 1984 4325 2329 3994 
Q 2675 3663 2675 3213 
Q 2675 2891 2525 2569 
Q 2294 2063 1775 1497 
Q 997 647 803 472 
L 1909 472 
Q 2247 472 2383 497 
Q 2519 522 2628 598 
Q 2738 675 2819 816 
L 2934 816 
z
" transform="scale(0.015625)"/>
       </defs>
       <use xlink:href="#TimesNewRomanPSMT-2d"/>
       <use xlink:href="#TimesNewRomanPSMT-32" x="33.300781"/>
       <use xlink:href="#TimesNewRomanPSMT-2e" x="83.300781"/>
       <use xlink:href="#TimesNewRomanPSMT-35" x="108.300781"/>
      </g>
     </g>
    </g>
    <g id="xtick_5">
     <g id="line2d_5">
      <g>
       <use xlink:href="#m212d7965b4" x="263.11875" y="355.730625" style="stroke: #000000; stroke-width: 0.8"/>
      </g>
     </g>
     <g id="text_5">
      <!-- 0.0 -->
      <g transform="translate(256.86875 369.674375) scale(0.1 -0.1)">
       <use xlink:href="#TimesNewRomanPSMT-30"/>
       <use xlink:href="#TimesNewRomanPSMT-2e" x="50"/>
       <use xlink:href="#TimesNewRomanPSMT-30" x="75"/>
      </g>
     </g>
    </g>
    <g id="xtick_6">
     <g id="line2d_6">
      <g>
       <use xlink:href="#m212d7965b4" x="313.846023" y="355.730625" style="stroke: #000000; stroke-width: 0.8"/>
      </g>
     </g>
     <g id="text_6">
      <!-- 2.5 -->
      <g transform="translate(307.596023 369.674375) scale(0.1 -0.1)">
       <use xlink:href="#TimesNewRomanPSMT-32"/>
       <use xlink:href="#TimesNewRomanPSMT-2e" x="50"/>
       <use xlink:href="#TimesNewRomanPSMT-35" x="75"/>
      </g>
     </g>
    </g>
    <g id="xtick_7">
     <g id="line2d_7">
      <g>
       <use xlink:href="#m212d7965b4" x="364.573295" y="355.730625" style="stroke: #000000; stroke-width: 0.8"/>
      </g>
     </g>
     <g id="text_7">
      <!-- 5.0 -->
      <g transform="translate(358.323295 369.674375) scale(0.1 -0.1)">
       <use xlink:href="#TimesNewRomanPSMT-35"/>
       <use xlink:href="#TimesNewRomanPSMT-2e" x="50"/>
       <use xlink:href="#TimesNewRomanPSMT-30" x="75"/>
      </g>
     </g>
    </g>
    <g id="xtick_8">
     <g id="line2d_8">
      <g>
       <use xlink:href="#m212d7965b4" x="415.300568" y="355.730625" style="stroke: #000000; stroke-width: 0.8"/>
      </g>
     </g>
     <g id="text_8">
      <!-- 7.5 -->
      <g transform="translate(409.050568 369.674375) scale(0.1 -0.1)">
       <use xlink:href="#TimesNewRomanPSMT-37"/>
       <use xlink:href="#TimesNewRomanPSMT-2e" x="50"/>
       <use xlink:href="#TimesNewRomanPSMT-35" x="75"/>
      </g>
     </g>
    </g>
    <g id="xtick_9">
     <g id="line2d_9">
      <g>
       <use xlink:href="#m212d7965b4" x="466.027841" y="355.730625" style="stroke: #000000; stroke-width: 0.8"/>
      </g>
     </g>
     <g id="text_9">
      <!-- 10.0 -->
      <g transform="translate(457.277841 369.674375) scale(0.1 -0.1)">
       <use xlink:href="#TimesNewRomanPSMT-31"/>
       <use xlink:href="#TimesNewRomanPSMT-30" x="50"/>
       <use xlink:href="#TimesNewRomanPSMT-2e" x="100"/>
       <use xlink:href="#TimesNewRomanPSMT-30" x="125"/>
      </g>
     </g>
    </g>
    <g id="text_10">
     <!-- x -->
     <g transform="translate(260.61875 382.757188) scale(0.1 -0.1)">
      <defs>
       <path id="TimesNewRomanPSMT-78" d="M 84 2863 
L 1431 2863 
L 1431 2747 
Q 1303 2747 1251 2703 
Q 1200 2659 1200 2588 
Q 1200 2513 1309 2356 
Q 1344 2306 1413 2200 
L 1616 1875 
L 1850 2200 
Q 2075 2509 2075 2591 
Q 2075 2656 2022 2701 
Q 1969 2747 1850 2747 
L 1850 2863 
L 2819 2863 
L 2819 2747 
Q 2666 2738 2553 2663 
Q 2400 2556 2134 2200 
L 1744 1678 
L 2456 653 
Q 2719 275 2831 198 
Q 2944 122 3122 113 
L 3122 0 
L 1772 0 
L 1772 113 
Q 1913 113 1991 175 
Q 2050 219 2050 291 
Q 2050 363 1850 653 
L 1431 1266 
L 972 653 
Q 759 369 759 316 
Q 759 241 829 180 
Q 900 119 1041 113 
L 1041 0 
L 106 0 
L 106 113 
Q 219 128 303 191 
Q 422 281 703 653 
L 1303 1450 
L 759 2238 
Q 528 2575 401 2661 
Q 275 2747 84 2747 
L 84 2863 
z
" transform="scale(0.015625)"/>
      </defs>
      <use xlink:href="#TimesNewRomanPSMT-78"/>
     </g>
    </g>
   </g>
   <g id="matplotlib.axis_2">
    <g id="ytick_1">
     <g id="line2d_10">
      <defs>
       <path id="m022cbf562b" d="M 0 0 
L -3.5 0 
" style="stroke: #000000; stroke-width: 0.8"/>
      </defs>
      <g>
       <use xlink:href="#m022cbf562b" x="39.91875" y="340.610625" style="stroke: #000000; stroke-width: 0.8"/>
      </g>
     </g>
     <g id="text_11">
      <!-- 0.0 -->
      <g transform="translate(20.41875 344.0825) scale(0.1 -0.1)">
       <use xlink:href="#TimesNewRomanPSMT-30"/>
       <use xlink:href="#TimesNewRomanPSMT-2e" x="50"/>
       <use xlink:href="#TimesNewRomanPSMT-30" x="75"/>
      </g>
     </g>
    </g>
    <g id="ytick_2">
     <g id="line2d_11">
      <g>
       <use xlink:href="#m022cbf562b" x="39.91875" y="279.522179" style="stroke: #000000; stroke-width: 0.8"/>
      </g>
     </g>
     <g id="text_12">
      <!-- 0.1 -->
      <g transform="translate(20.41875 282.994054) scale(0.1 -0.1)">
       <use xlink:href="#TimesNewRomanPSMT-30"/>
       <use xlink:href="#TimesNewRomanPSMT-2e" x="50"/>
       <use xlink:href="#TimesNewRomanPSMT-31" x="75"/>
      </g>
     </g>
    </g>
    <g id="ytick_3">
     <g id="line2d_12">
      <g>
       <use xlink:href="#m022cbf562b" x="39.91875" y="218.433734" style="stroke: #000000; stroke-width: 0.8"/>
      </g>
     </g>
     <g id="text_13">
      <!-- 0.2 -->
      <g transform="translate(20.41875 221.905609) scale(0.1 -0.1)">
       <use xlink:href="#TimesNewRomanPSMT-30"/>
       <use xlink:href="#TimesNewRomanPSMT-2e" x="50"/>
       <use xlink:href="#TimesNewRomanPSMT-32" x="75"/>
      </g>
     </g>
    </g>
    <g id="ytick_4">
     <g id="line2d_13">
      <g>
       <use xlink:href="#m022cbf562b" x="39.91875" y="157.345288" style="stroke: #000000; stroke-width: 0.8"/>
      </g>
     </g>
     <g id="text_14">
      <!-- 0.3 -->
      <g transform="translate(20.41875 160.817163) scale(0.1 -0.1)">
       <defs>
        <path id="TimesNewRomanPSMT-33" d="M 325 3431 
Q 506 3859 782 4092 
Q 1059 4325 1472 4325 
Q 1981 4325 2253 3994 
Q 2459 3747 2459 3466 
Q 2459 3003 1878 2509 
Q 2269 2356 2469 2072 
Q 2669 1788 2669 1403 
Q 2669 853 2319 450 
Q 1863 -75 997 -75 
Q 569 -75 414 31 
Q 259 138 259 259 
Q 259 350 332 419 
Q 406 488 509 488 
Q 588 488 669 463 
Q 722 447 909 348 
Q 1097 250 1169 231 
Q 1284 197 1416 197 
Q 1734 197 1970 444 
Q 2206 691 2206 1028 
Q 2206 1275 2097 1509 
Q 2016 1684 1919 1775 
Q 1784 1900 1550 2001 
Q 1316 2103 1072 2103 
L 972 2103 
L 972 2197 
Q 1219 2228 1467 2375 
Q 1716 2522 1828 2728 
Q 1941 2934 1941 3181 
Q 1941 3503 1739 3701 
Q 1538 3900 1238 3900 
Q 753 3900 428 3381 
L 325 3431 
z
" transform="scale(0.015625)"/>
       </defs>
       <use xlink:href="#TimesNewRomanPSMT-30"/>
       <use xlink:href="#TimesNewRomanPSMT-2e" x="50"/>
       <use xlink:href="#TimesNewRomanPSMT-33" x="75"/>
      </g>
     </g>
    </g>
    <g id="ytick_5">
     <g id="line2d_14">
      <g>
       <use xlink:href="#m022cbf562b" x="39.91875" y="96.256843" style="stroke: #000000; stroke-width: 0.8"/>
      </g>
     </g>
     <g id="text_15">
      <!-- 0.4 -->
      <g transform="translate(20.41875 99.728718) scale(0.1 -0.1)">
       <defs>
        <path id="TimesNewRomanPSMT-34" d="M 2978 1563 
L 2978 1119 
L 2409 1119 
L 2409 0 
L 1894 0 
L 1894 1119 
L 100 1119 
L 100 1519 
L 2066 4325 
L 2409 4325 
L 2409 1563 
L 2978 1563 
z
M 1894 1563 
L 1894 3666 
L 406 1563 
L 1894 1563 
z
" transform="scale(0.015625)"/>
       </defs>
       <use xlink:href="#TimesNewRomanPSMT-30"/>
       <use xlink:href="#TimesNewRomanPSMT-2e" x="50"/>
       <use xlink:href="#TimesNewRomanPSMT-34" x="75"/>
      </g>
     </g>
    </g>
    <g id="ytick_6">
     <g id="line2d_15">
      <g>
       <use xlink:href="#m022cbf562b" x="39.91875" y="35.168397" style="stroke: #000000; stroke-width: 0.8"/>
      </g>
     </g>
     <g id="text_16">
      <!-- 0.5 -->
      <g transform="translate(20.41875 38.640272) scale(0.1 -0.1)">
       <use xlink:href="#TimesNewRomanPSMT-30"/>
       <use xlink:href="#TimesNewRomanPSMT-2e" x="50"/>
       <use xlink:href="#TimesNewRomanPSMT-35" x="75"/>
      </g>
     </g>
    </g>
    <g id="text_17">
     <!-- 密度 -->
     <g transform="translate(14.279688 199.410625) rotate(-90) scale(0.1 -0.1)">
      <defs>
       <path id="SimSun-5bc6" d="M 1050 4650 
L 1075 4375 
L 3075 4375 
Q 3050 4775 2775 5175 
L 2825 5225 
Q 3325 4975 3375 4862 
Q 3425 4750 3425 4675 
Q 3425 4525 3275 4375 
L 5325 4375 
L 5575 4625 
L 6000 4150 
Q 5650 4200 5100 3575 
L 5025 3625 
L 5350 4225 
L 1075 4225 
Q 1075 3850 1025 3725 
Q 975 3600 850 3562 
Q 725 3525 650 3525 
Q 575 3525 525 3550 
Q 475 3575 475 3600 
Q 475 3675 625 3850 
Q 850 4100 950 4650 
L 1050 4650 
z
M 1500 3275 
Q 1475 2600 1387 2462 
Q 1300 2325 1162 2275 
Q 1025 2225 887 2275 
Q 750 2325 750 2375 
Q 750 2425 925 2575 
Q 1175 2775 1400 3300 
L 1500 3275 
z
M 2050 2700 
Q 2050 3225 2025 3625 
L 2625 3375 
L 2375 3200 
L 2375 2350 
Q 2800 2575 3350 3012 
Q 3900 3450 4325 4000 
L 4700 3550 
L 4450 3500 
Q 3900 3025 3462 2712 
Q 3025 2400 2425 2100 
Q 2400 2050 2800 2050 
L 4025 2050 
Q 4175 2075 4225 2237 
Q 4275 2400 4300 2825 
L 4400 2825 
Q 4400 2500 4437 2325 
Q 4475 2150 4700 2050 
Q 4550 1750 3950 1775 
L 2575 1775 
Q 2400 1775 2262 1775 
Q 2125 1775 2075 1950 
Q 1350 1700 300 1550 
L 275 1625 
Q 1175 1825 2050 2200 
L 2050 2700 
z
M 2600 4050 
L 2650 4100 
Q 3200 3775 3237 3662 
Q 3275 3550 3275 3500 
Q 3275 3350 3175 3237 
Q 3075 3125 3025 3125 
Q 2950 3125 2900 3375 
Q 2825 3725 2600 4050 
z
M 4725 3200 
L 4775 3275 
Q 5350 3000 5525 2837 
Q 5700 2675 5712 2525 
Q 5725 2375 5625 2250 
Q 5525 2125 5475 2125 
Q 5400 2125 5325 2350 
Q 5200 2700 4725 3200 
z
M 2975 -50 
Q 2975 1200 2950 1625 
L 3550 1350 
L 3300 1175 
L 3300 -50 
L 4750 -50 
Q 4750 950 4725 1300 
L 5275 1025 
L 5075 850 
Q 5075 75 5100 -400 
L 4750 -500 
L 4750 -200 
L 1575 -200 
L 1400 -375 
L 1075 -75 
L 1250 50 
Q 1250 850 1225 1275 
L 1800 1025 
L 1575 875 
L 1575 -50 
L 2975 -50 
z
" transform="scale(0.015625)"/>
       <path id="SimSun-5ea6" d="M 2550 2025 
Q 2575 2525 2575 3175 
L 1925 3175 
L 1625 3125 
L 1425 3325 
L 2575 3325 
Q 2575 3700 2550 4150 
L 3100 3875 
L 2900 3750 
L 2900 3325 
L 4300 3325 
Q 4300 3750 4275 4125 
L 4850 3875 
L 4625 3725 
L 4625 3325 
L 5100 3325 
L 5425 3650 
L 5900 3175 
L 4625 3175 
Q 4625 2450 4650 2225 
L 4300 2075 
L 4300 2300 
L 2900 2300 
L 2900 2175 
L 2550 2025 
z
M 4875 1500 
Q 4300 775 3900 425 
Q 4700 -75 6025 -125 
L 6025 -225 
Q 5625 -300 5550 -550 
Q 4375 -325 3675 225 
Q 2475 -450 1075 -625 
L 1050 -525 
Q 2375 -275 3450 450 
Q 2975 925 2575 1625 
L 2325 1625 
L 2100 1575 
L 1900 1775 
L 4525 1775 
L 4750 2000 
L 5125 1625 
L 4875 1500 
z
M 2700 1625 
Q 3175 975 3650 625 
Q 4150 1100 4500 1625 
L 2700 1625 
z
M 2900 3175 
L 2900 2450 
L 4300 2450 
L 4300 3175 
L 2900 3175 
z
M 975 4650 
L 1400 4400 
L 3375 4400 
Q 3350 4550 3262 4725 
Q 3175 4900 2900 5225 
L 2975 5275 
Q 3550 5025 3637 4887 
Q 3725 4750 3725 4725 
Q 3725 4575 3525 4400 
L 5150 4400 
L 5500 4750 
L 6000 4250 
L 1375 4250 
Q 1400 2750 1287 1912 
Q 1175 1075 925 475 
Q 675 -125 300 -625 
L 225 -575 
Q 725 300 862 1250 
Q 1000 2200 1012 3187 
Q 1025 4175 975 4650 
z
" transform="scale(0.015625)"/>
      </defs>
      <use xlink:href="#SimSun-5bc6"/>
      <use xlink:href="#SimSun-5ea6" x="100"/>
     </g>
    </g>
   </g>
   <g id="line2d_16">
    <path d="M 60.209659 340.596758 
L 109.362812 340.4543 
L 129.674033 340.185264 
L 142.673214 339.803418 
L 152.422599 339.305492 
L 160.140863 338.701423 
L 166.640454 337.980567 
L 172.327595 337.129741 
L 177.202288 336.184491 
L 181.670757 335.094108 
L 185.733001 333.871387 
L 189.38902 332.540839 
L 192.638816 331.139126 
L 195.888611 329.493938 
L 198.732182 327.821599 
L 201.575752 325.897681 
L 204.419323 323.68434 
L 206.85667 321.523999 
L 209.294016 319.087929 
L 211.731363 316.340938 
L 214.168709 313.243342 
L 216.606055 309.750393 
L 219.043402 305.811631 
L 221.480748 301.370155 
L 223.51187 297.238858 
L 225.542992 292.672611 
L 227.574114 287.625622 
L 229.605236 282.047279 
L 231.636359 275.881639 
L 233.667481 269.066871 
L 235.698603 261.534634 
L 237.729725 253.209391 
L 239.760847 244.007653 
L 241.791969 233.837143 
L 243.823091 222.595865 
L 245.854213 210.171088 
L 247.885335 196.438211 
L 249.916457 181.259515 
L 251.947579 164.482783 
L 253.978701 145.939771 
L 256.009823 125.444522 
L 258.040945 102.7915 
L 260.072067 77.753534 
L 262.103189 50.079532 
L 262.915638 38.210625 
L 263.321862 38.210625 
L 265.352984 67.015178 
L 267.384106 93.076007 
L 269.415228 116.654459 
L 271.44635 137.98699 
L 273.477472 157.28753 
L 275.508594 174.749632 
L 277.539716 190.548415 
L 279.570838 204.842313 
L 281.60196 217.774673 
L 283.633083 229.475184 
L 285.664205 240.061185 
L 287.695327 249.638836 
L 289.726449 258.304186 
L 291.757571 266.144134 
L 293.788693 273.237302 
L 295.819815 279.654823 
L 297.850937 285.461055 
L 300.288283 291.70322 
L 302.72563 297.238858 
L 305.162976 302.147939 
L 307.600322 306.50138 
L 310.037669 310.362072 
L 312.475015 313.785788 
L 314.912362 316.821986 
L 317.349708 319.514529 
L 319.787055 321.902314 
L 322.630626 324.34868 
L 325.474196 326.47515 
L 328.317767 328.323556 
L 331.161338 329.930257 
L 334.411133 331.510873 
L 337.660929 332.85757 
L 341.316948 334.135896 
L 345.379192 335.310626 
L 349.847661 336.358213 
L 354.722354 337.266363 
L 360.409495 338.083794 
L 366.909086 338.776357 
L 374.62735 339.356717 
L 383.970511 339.819418 
L 395.751019 340.167886 
L 411.999995 340.411849 
L 437.998357 340.555429 
L 466.027841 340.596758 
L 466.027841 340.596758 
" clip-path="url(#p7e077dfeb2)" style="fill: none; stroke: #0000ff; stroke-width: 1.5; stroke-linecap: square"/>
   </g>
   <g id="line2d_17">
    <path d="M 60.209659 340.610625 
L 183.295654 340.504374 
L 189.795245 340.254735 
L 193.857489 339.891504 
L 197.107284 339.384154 
L 199.54463 338.810767 
L 201.981977 338.007154 
L 204.013099 337.10826 
L 206.044221 335.945982 
L 207.669119 334.78623 
L 209.294016 333.384621 
L 210.918914 331.703028 
L 212.543811 329.700297 
L 214.168709 327.332705 
L 215.793607 324.554631 
L 217.418504 321.319422 
L 219.043402 317.580496 
L 220.6683 313.292657 
L 222.293197 308.41363 
L 223.918095 302.905772 
L 225.542992 296.737951 
L 227.574114 288.066557 
L 229.605236 278.308676 
L 231.636359 267.475176 
L 234.073705 253.125277 
L 236.511051 237.458935 
L 239.760847 214.973874 
L 249.510232 145.986579 
L 251.541354 133.512252 
L 253.572476 122.435499 
L 255.197374 114.784132 
L 256.822272 108.358609 
L 258.040945 104.415868 
L 259.259618 101.271101 
L 260.072067 99.634764 
L 260.884516 98.375903 
L 261.696965 97.500533 
L 262.509413 97.01285 
L 263.321862 96.915197 
L 264.134311 97.208041 
L 264.94676 97.889976 
L 265.759209 98.95773 
L 266.571657 100.406194 
L 267.384106 102.228457 
L 268.602779 105.64334 
L 269.821453 109.843234 
L 271.040126 114.784132 
L 272.665024 122.435499 
L 274.289921 131.175014 
L 276.321043 143.395297 
L 278.75839 159.533054 
L 282.414409 185.550112 
L 288.507775 229.207603 
L 291.351346 248.038849 
L 293.788693 262.849955 
L 296.226039 276.227059 
L 298.257161 286.202043 
L 300.288283 295.090007 
L 302.319405 302.905772 
L 304.350527 309.690965 
L 305.975425 314.418455 
L 307.600322 318.56496 
L 309.22522 322.173641 
L 310.850118 325.290175 
L 312.475015 327.961279 
L 314.099913 330.233439 
L 315.724811 332.151877 
L 317.349708 333.759727 
L 318.974606 335.097424 
L 321.005728 336.446173 
L 323.03685 337.496327 
L 325.067972 338.304882 
L 327.505318 339.024244 
L 330.348889 339.603654 
L 333.598684 340.025857 
L 337.660929 340.324684 
L 343.754295 340.519931 
L 354.722354 340.601479 
L 416.062239 340.610625 
L 466.027841 340.610625 
L 466.027841 340.610625 
" clip-path="url(#p7e077dfeb2)" style="fill: none; stroke: #ff0000; stroke-width: 1.5; stroke-linecap: square"/>
   </g>
   <g id="patch_3">
    <path d="M 39.91875 355.730625 
L 39.91875 23.090625 
" style="fill: none; stroke: #000000; stroke-width: 0.8; stroke-linejoin: miter; stroke-linecap: square"/>
   </g>
   <g id="patch_4">
    <path d="M 486.31875 355.730625 
L 486.31875 23.090625 
" style="fill: none; stroke: #000000; stroke-width: 0.8; stroke-linejoin: miter; stroke-linecap: square"/>
   </g>
   <g id="patch_5">
    <path d="M 39.91875 355.730625 
L 486.31875 355.730625 
" style="fill: none; stroke: #000000; stroke-width: 0.8; stroke-linejoin: miter; stroke-linecap: square"/>
   </g>
   <g id="patch_6">
    <path d="M 39.91875 23.090625 
L 486.31875 23.090625 
" style="fill: none; stroke: #000000; stroke-width: 0.8; stroke-linejoin: miter; stroke-linecap: square"/>
   </g>
   <g id="text_18">
    <!-- 拉普拉斯分布和正态分布对比(位置参数：0，尺度参数：1) -->
    <g transform="translate(109.123125 17.090625) scale(0.12 -0.12)">
     <defs>
      <path id="SimSun-62c9" d="M 2750 3500 
L 5125 3500 
L 5425 3800 
L 5875 3350 
L 3500 3350 
Q 3225 3350 2975 3275 
L 2750 3500 
z
M 3100 2725 
L 3175 2775 
Q 3575 2125 3737 1750 
Q 3900 1375 3900 1125 
Q 3900 1050 3862 887 
Q 3825 725 3725 650 
L 3600 575 
Q 3500 575 3475 825 
Q 3450 1150 3375 1612 
Q 3300 2075 3100 2725 
z
M 5250 2575 
Q 4800 1075 4375 -75 
L 5300 -75 
L 5650 275 
L 6150 -225 
L 3050 -225 
Q 2725 -225 2450 -300 
L 2225 -75 
L 4200 -75 
Q 4650 1700 4725 2137 
Q 4800 2575 4850 3025 
L 5500 2675 
L 5250 2575 
z
M 2725 2700 
L 1850 2150 
L 1850 100 
Q 1850 -400 1325 -600 
Q 1350 -300 600 -50 
L 600 75 
Q 1125 0 1325 12 
Q 1525 25 1500 325 
L 1500 1950 
Q 700 1475 625 1300 
L 300 1750 
Q 750 1875 1500 2250 
L 1500 3575 
L 800 3575 
L 525 3525 
L 325 3725 
L 1500 3725 
Q 1500 4700 1475 5200 
L 2075 4875 
L 1850 4700 
L 1850 3725 
L 2125 3725 
L 2400 4000 
L 2825 3575 
L 1850 3575 
L 1850 2400 
L 2675 2800 
L 2725 2700 
z
M 3700 5000 
Q 4350 4525 4425 4387 
Q 4500 4250 4500 4150 
Q 4500 4075 4425 3950 
Q 4350 3825 4225 3787 
Q 4100 3750 4025 4100 
Q 3950 4450 3625 4925 
L 3700 5000 
z
" transform="scale(0.015625)"/>
      <path id="SimSun-666e" d="M 2000 1625 
L 2000 850 
L 4425 850 
L 4425 1625 
L 2000 1625 
z
M 2000 700 
L 2000 -100 
L 4425 -100 
L 4425 700 
L 2000 700 
z
M 4775 1525 
Q 4775 -50 4800 -425 
L 4425 -600 
L 4425 -250 
L 2000 -250 
L 2000 -450 
L 1625 -650 
Q 1650 -175 1650 625 
Q 1650 1425 1625 2000 
L 2000 1775 
L 4375 1775 
L 4625 2025 
L 5000 1675 
L 4775 1525 
z
M 2750 4050 
L 2750 2450 
L 3600 2450 
L 3600 4050 
L 2750 4050 
z
M 1225 3750 
L 1300 3800 
Q 1700 3525 1875 3325 
Q 2050 3125 2050 3000 
Q 2050 2900 1925 2762 
Q 1800 2625 1775 2625 
Q 1675 2625 1650 2875 
Q 1575 3225 1225 3750 
z
M 1925 5175 
L 1975 5250 
Q 2550 4950 2712 4800 
Q 2875 4650 2875 4525 
Q 2875 4375 2725 4200 
L 3575 4200 
Q 4050 4925 4125 5250 
L 4625 4925 
Q 4425 4875 4237 4700 
Q 4050 4525 3725 4200 
L 5000 4200 
L 5350 4550 
L 5850 4050 
L 3950 4050 
L 3950 2450 
L 5225 2450 
L 5600 2825 
L 6125 2300 
L 1050 2300 
Q 725 2300 450 2225 
L 225 2450 
L 2400 2450 
L 2400 4050 
L 1300 4050 
L 925 4000 
L 725 4200 
L 2500 4200 
Q 2450 4600 1925 5175 
z
M 4850 3900 
L 5375 3575 
Q 5150 3525 4950 3250 
Q 4750 2975 4325 2550 
L 4225 2575 
Q 4650 3200 4850 3900 
z
" transform="scale(0.015625)"/>
      <path id="SimSun-65af" d="M 1575 3975 
L 1575 3300 
L 2525 3300 
L 2525 3975 
L 1575 3975 
z
M 1575 3150 
L 1575 2400 
L 2525 2400 
L 2525 3150 
L 1575 3150 
z
M 1575 2250 
L 1575 1525 
L 2525 1525 
L 2525 2250 
L 1575 2250 
z
M 1225 5175 
L 1775 4925 
L 1575 4750 
L 1575 4125 
L 2525 4125 
Q 2525 4625 2500 5225 
L 3050 4975 
L 2850 4825 
L 2850 4125 
L 3025 4125 
L 3275 4375 
L 3675 3975 
L 2850 3975 
L 2850 1525 
L 2975 1525 
L 3250 1800 
L 3675 1375 
L 700 1375 
L 475 1325 
L 275 1525 
L 1250 1525 
L 1250 3975 
L 825 3975 
L 625 3925 
L 425 4125 
L 1250 4125 
Q 1250 4625 1225 5175 
z
M 1525 1125 
L 1950 750 
Q 1775 700 1375 275 
Q 975 -175 425 -525 
L 375 -450 
Q 1175 275 1525 1125 
z
M 2325 1150 
Q 2925 825 3025 687 
Q 3125 550 3125 425 
Q 3125 300 3062 175 
Q 3000 50 2950 50 
Q 2875 50 2800 300 
Q 2650 675 2275 1075 
L 2325 1150 
z
M 5025 -625 
Q 5050 800 5050 2725 
L 4175 2725 
Q 4225 1150 3812 487 
Q 3400 -175 2725 -625 
L 2675 -550 
Q 3150 -125 3425 362 
Q 3700 850 3775 1400 
Q 3850 1950 3850 2887 
Q 3850 3825 3825 4650 
L 4175 4425 
Q 5225 4625 5625 4975 
L 6000 4525 
Q 5500 4525 4175 4300 
L 4175 2875 
L 5425 2875 
L 5700 3150 
L 6125 2725 
L 5375 2725 
L 5375 575 
Q 5375 300 5400 -450 
L 5025 -625 
z
" transform="scale(0.015625)"/>
      <path id="SimSun-5206" d="M 2350 5050 
L 2850 4675 
L 2625 4550 
Q 2200 3750 1687 3125 
Q 1175 2500 375 2025 
L 325 2100 
Q 975 2625 1475 3337 
Q 1975 4050 2350 5050 
z
M 4100 4975 
L 3900 4850 
Q 4175 3850 4800 3300 
Q 5425 2750 6125 2625 
L 6125 2550 
Q 5750 2500 5600 2225 
Q 4775 2675 4287 3425 
Q 3800 4175 3625 5175 
L 4100 4975 
z
M 1375 2625 
L 4225 2625 
L 4475 2875 
L 4825 2525 
L 4625 2375 
Q 4575 400 4375 -12 
Q 4175 -425 3675 -600 
Q 3600 -200 2975 -25 
L 2975 75 
Q 3600 -25 3787 -12 
Q 3975 0 4075 275 
Q 4175 550 4275 2475 
L 2975 2475 
Q 2825 1400 2375 662 
Q 1925 -75 650 -625 
L 600 -525 
Q 1725 50 2112 837 
Q 2500 1625 2575 2475 
L 1800 2475 
L 1575 2425 
L 1375 2625 
z
" transform="scale(0.015625)"/>
      <path id="SimSun-5e03" d="M 3425 2725 
Q 3425 3225 3400 3625 
L 3975 3375 
L 3775 3200 
L 3775 2725 
L 4950 2725 
L 5150 2975 
L 5575 2650 
L 5350 2500 
L 5350 500 
Q 5300 100 4800 -50 
Q 4800 225 4175 475 
L 4175 575 
Q 4625 500 4812 500 
Q 5000 500 5000 700 
L 5000 2575 
L 3775 2575 
L 3775 550 
Q 3775 -25 3800 -500 
L 3400 -675 
Q 3425 250 3425 1025 
L 3425 2575 
L 2275 2575 
L 2275 125 
L 1900 -25 
Q 1925 775 1925 2525 
Q 1225 1650 300 1025 
L 250 1100 
Q 1300 2050 1762 2800 
Q 2225 3550 2375 3875 
L 825 3875 
L 600 3825 
L 400 4025 
L 2425 4025 
Q 2750 4725 2850 5225 
L 3450 4850 
L 3200 4725 
L 2825 4025 
L 5175 4025 
L 5550 4400 
L 6075 3875 
L 2775 3875 
Q 2500 3350 2175 2850 
L 2250 2725 
L 3425 2725 
z
" transform="scale(0.015625)"/>
      <path id="SimSun-548c" d="M 2250 2475 
Q 2250 175 2275 -350 
L 1875 -550 
Q 1900 200 1900 2475 
Q 1600 1900 1200 1412 
Q 800 925 325 550 
L 275 625 
Q 850 1250 1225 1912 
Q 1600 2575 1775 3150 
L 925 3150 
L 700 3100 
L 500 3300 
L 1900 3300 
L 1900 4425 
Q 1550 4375 625 4300 
L 625 4400 
Q 1475 4525 2025 4687 
Q 2575 4850 2975 5100 
L 3325 4650 
Q 2650 4575 2250 4475 
L 2250 3300 
L 2850 3300 
L 3125 3575 
L 3525 3150 
L 2250 3150 
L 2250 2600 
Q 3200 2300 3275 2112 
Q 3350 1925 3350 1825 
Q 3350 1700 3300 1612 
Q 3250 1525 3225 1525 
Q 3150 1525 3050 1700 
Q 2900 1950 2250 2475 
z
M 5675 4025 
Q 5675 1200 5700 475 
L 5325 325 
L 5325 850 
L 4050 850 
L 4050 275 
L 3675 100 
Q 3700 1200 3700 2437 
Q 3700 3675 3675 4525 
L 4050 4275 
L 5275 4275 
L 5525 4525 
L 5875 4175 
L 5675 4025 
z
M 4050 4125 
L 4050 1000 
L 5325 1000 
L 5325 4125 
L 4050 4125 
z
" transform="scale(0.015625)"/>
      <path id="SimSun-6b63" d="M 1600 2725 
Q 1600 2900 1575 3325 
L 2200 3025 
L 1950 2850 
L 1950 25 
L 3200 25 
L 3200 4500 
L 1675 4500 
Q 1350 4500 1075 4425 
L 850 4650 
L 5075 4650 
L 5450 5025 
L 5975 4500 
L 3550 4500 
L 3550 2525 
L 4775 2525 
L 5125 2875 
L 5625 2375 
L 3550 2375 
L 3550 25 
L 5075 25 
L 5475 425 
L 6025 -125 
L 1200 -125 
Q 875 -125 600 -200 
L 375 25 
L 1600 25 
L 1600 2725 
z
" transform="scale(0.015625)"/>
      <path id="SimSun-6001" d="M 2850 5225 
L 3500 4925 
L 3250 4800 
Q 3200 4475 3125 4025 
L 5050 4025 
L 5425 4400 
L 5950 3875 
L 3350 3875 
Q 3875 2950 4650 2550 
Q 5425 2150 6075 2100 
L 6075 2000 
Q 5600 1925 5550 1675 
Q 4525 2050 3987 2662 
Q 3450 3275 3225 3875 
L 3100 3875 
Q 2850 3125 2500 2675 
Q 2950 2500 3237 2325 
Q 3525 2150 3525 1962 
Q 3525 1775 3462 1700 
Q 3400 1625 3375 1625 
Q 3275 1625 3125 1875 
Q 2900 2225 2425 2575 
Q 1650 1875 300 1550 
L 250 1650 
Q 1225 1925 1850 2462 
Q 2475 3000 2725 3875 
L 1225 3875 
Q 900 3875 625 3800 
L 400 4025 
L 2750 4025 
Q 2850 4750 2850 5225 
z
M 1325 1250 
Q 1325 800 1237 462 
Q 1150 125 1012 62 
Q 875 0 775 0 
Q 650 0 562 37 
Q 475 75 475 125 
Q 475 200 675 375 
Q 975 600 1225 1275 
L 1325 1250 
z
M 2600 1600 
L 2650 1675 
Q 3125 1475 3362 1312 
Q 3600 1150 3587 975 
Q 3575 800 3487 700 
Q 3400 600 3375 600 
Q 3275 600 3200 825 
Q 3075 1125 2600 1600 
z
M 4625 1300 
L 4700 1350 
Q 5300 1025 5525 812 
Q 5750 600 5712 400 
Q 5675 200 5587 125 
Q 5500 50 5475 50 
Q 5375 50 5275 350 
Q 5125 750 4625 1300 
z
M 1900 50 
Q 1900 1075 1875 1625 
L 2450 1325 
L 2250 1150 
L 2250 175 
Q 2200 -150 2550 -125 
L 3875 -125 
Q 4175 -125 4225 125 
Q 4275 375 4275 900 
L 4400 900 
Q 4425 450 4475 200 
Q 4525 -50 4775 -100 
Q 4575 -450 4075 -425 
L 2575 -425 
Q 1875 -475 1900 50 
z
" transform="scale(0.015625)"/>
      <path id="SimSun-5bf9" d="M 400 4250 
L 2375 4250 
L 2575 4500 
L 3000 4150 
L 2750 3950 
Q 2400 2850 2075 2100 
Q 2575 1375 2675 1062 
Q 2775 750 2762 537 
Q 2750 325 2662 237 
Q 2575 150 2550 150 
Q 2450 150 2375 575 
Q 2250 1075 1925 1800 
Q 1675 1350 1275 875 
Q 875 400 250 -100 
L 225 25 
Q 675 450 1087 1037 
Q 1500 1625 1725 2100 
Q 1000 3125 675 3550 
L 750 3625 
Q 1300 3025 1850 2400 
Q 2100 3050 2375 4100 
L 1225 4100 
Q 900 4100 625 4025 
L 400 4250 
z
M 3600 125 
Q 4375 0 4537 25 
Q 4700 50 4700 225 
L 4700 3350 
L 3525 3350 
Q 3200 3350 2925 3275 
L 2700 3500 
L 4700 3500 
L 4700 4350 
Q 4700 4800 4675 5125 
L 5275 4825 
L 5050 4625 
L 5050 3500 
L 5325 3500 
L 5650 3825 
L 6125 3350 
L 5050 3350 
L 5050 50 
Q 5050 -375 4500 -600 
Q 4500 -300 3600 0 
L 3600 125 
z
M 3100 2775 
L 3175 2825 
Q 3700 2400 3812 2175 
Q 3925 1950 3925 1800 
Q 3925 1625 3800 1462 
Q 3675 1300 3650 1300 
Q 3550 1300 3525 1650 
Q 3450 2125 3100 2775 
z
" transform="scale(0.015625)"/>
      <path id="SimSun-6bd4" d="M 1050 3400 
Q 1050 4525 1025 5075 
L 1625 4800 
L 1400 4600 
L 1400 2925 
L 2400 2925 
L 2700 3225 
L 3150 2775 
L 1400 2775 
L 1400 350 
L 3050 925 
L 3100 825 
Q 1625 150 1250 -250 
L 950 175 
Q 1050 275 1050 525 
L 1050 3400 
z
M 3425 3825 
Q 3425 4575 3400 5125 
L 4025 4825 
L 3775 4625 
L 3775 2525 
Q 4300 2925 4712 3400 
Q 5125 3875 5275 4175 
L 5775 3700 
Q 5475 3650 5025 3250 
Q 4550 2850 3775 2375 
L 3775 425 
Q 3775 125 4100 125 
L 5125 125 
Q 5325 125 5400 350 
Q 5475 575 5500 1425 
L 5625 1425 
Q 5625 825 5712 550 
Q 5800 275 6000 175 
Q 5875 -25 5712 -112 
Q 5550 -200 5275 -200 
L 3975 -200 
Q 3425 -200 3425 275 
L 3425 3825 
z
" transform="scale(0.015625)"/>
      <path id="TimesNewRomanPSMT-28" d="M 1988 -1253 
L 1988 -1369 
Q 1516 -1131 1200 -813 
Q 750 -359 506 256 
Q 263 872 263 1534 
Q 263 2503 741 3301 
Q 1219 4100 1988 4444 
L 1988 4313 
Q 1603 4100 1356 3731 
Q 1109 3363 987 2797 
Q 866 2231 866 1616 
Q 866 947 969 400 
Q 1050 -31 1165 -292 
Q 1281 -553 1476 -793 
Q 1672 -1034 1988 -1253 
z
" transform="scale(0.015625)"/>
      <path id="SimSun-4f4d" d="M 1250 -600 
Q 1275 150 1275 3100 
Q 750 2225 325 1775 
L 250 1825 
Q 725 2575 1112 3450 
Q 1500 4325 1700 5225 
L 2275 4925 
L 2050 4800 
Q 1650 3900 1475 3500 
L 1800 3275 
L 1600 3125 
Q 1600 125 1625 -400 
L 1250 -600 
z
M 3300 5125 
L 3375 5175 
Q 4100 4625 4112 4375 
Q 4125 4125 4000 4025 
Q 3875 3925 3850 3925 
Q 3725 3925 3700 4200 
Q 3625 4575 3300 5125 
z
M 2025 3725 
L 5050 3725 
L 5400 4075 
L 5900 3575 
L 2825 3575 
Q 2525 3575 2250 3500 
L 2025 3725 
z
M 2600 3000 
L 2675 3050 
Q 3300 2050 3400 1712 
Q 3500 1375 3500 1200 
Q 3500 950 3362 800 
Q 3225 650 3175 650 
Q 3100 650 3100 825 
Q 3075 1125 2975 1675 
Q 2875 2225 2600 3000 
z
M 4725 3325 
L 5325 3000 
Q 5100 2875 4875 2125 
Q 4650 1375 4175 -25 
L 5300 -25 
L 5650 325 
L 6150 -175 
L 2700 -175 
Q 2375 -175 2100 -250 
L 1875 -25 
L 4000 -25 
Q 4300 1000 4500 1962 
Q 4700 2925 4725 3325 
z
" transform="scale(0.015625)"/>
      <path id="SimSun-7f6e" d="M 1400 4750 
L 1400 3925 
L 2375 3925 
L 2375 4750 
L 1400 4750 
z
M 2725 4750 
L 2725 3925 
L 3700 3925 
L 3700 4750 
L 2725 4750 
z
M 4025 4750 
L 4025 3925 
L 5025 3925 
L 5025 4750 
L 4025 4750 
z
M 1025 5100 
L 1400 4925 
L 5000 4925 
L 5175 5150 
L 5550 4875 
L 5400 4725 
Q 5400 4400 5400 4162 
Q 5400 3925 5425 3675 
L 5025 3550 
L 5025 3750 
L 1400 3750 
L 1400 3625 
L 1025 3500 
Q 1050 4000 1050 4425 
Q 1050 4850 1025 5100 
z
M 1900 350 
L 1900 -200 
L 4450 -200 
L 4450 350 
L 1900 350 
z
M 675 3225 
L 2900 3225 
Q 2925 3500 2925 3750 
L 3500 3550 
L 3325 3450 
L 3250 3225 
L 4850 3225 
L 5200 3500 
L 5650 3050 
L 3225 3050 
Q 3150 2800 3075 2575 
L 4400 2575 
L 4575 2850 
L 5000 2550 
L 4800 2325 
L 4800 -200 
L 5300 -200 
L 5675 125 
L 6175 -375 
L 1125 -375 
Q 750 -375 450 -450 
L 200 -200 
L 1525 -200 
L 1525 2100 
Q 1525 2375 1500 2750 
L 1900 2575 
L 2800 2575 
L 2875 3050 
L 1575 3050 
Q 1225 3050 925 2975 
L 675 3225 
z
M 1900 2400 
L 1900 1900 
L 4450 1900 
L 4450 2400 
L 1900 2400 
z
M 1900 1725 
L 1900 1225 
L 4450 1225 
L 4450 1725 
L 1900 1725 
z
M 1900 1050 
L 1900 525 
L 4450 525 
L 4450 1050 
L 1900 1050 
z
" transform="scale(0.015625)"/>
      <path id="SimSun-53c2" d="M 4700 3900 
Q 3500 3825 3125 3800 
Q 2925 3475 2725 3150 
L 5300 3150 
L 5625 3475 
L 6075 3000 
L 3750 3000 
Q 4325 2400 4950 2150 
Q 5575 1900 6100 1825 
L 6100 1750 
Q 5750 1675 5600 1450 
Q 5025 1675 4487 2062 
Q 3950 2450 3625 3000 
L 2675 3000 
Q 2250 2450 1750 2050 
Q 1250 1650 325 1225 
L 300 1325 
Q 1200 1850 1625 2262 
Q 2050 2675 2275 3000 
L 800 3000 
L 575 2950 
L 375 3150 
L 2350 3150 
Q 2450 3300 2675 3775 
Q 1650 3725 1325 3575 
L 1150 4025 
Q 1550 4050 2125 4487 
Q 2700 4925 2925 5225 
L 3300 4825 
L 3000 4750 
Q 1925 4125 1575 3975 
L 4625 4000 
Q 4300 4300 3850 4550 
L 3900 4650 
Q 4700 4375 5000 4175 
Q 5300 3975 5300 3775 
Q 5300 3725 5250 3587 
Q 5200 3450 5125 3450 
Q 5075 3450 5025 3525 
Q 4900 3700 4700 3900 
z
M 3250 2700 
L 3650 2300 
L 3450 2250 
Q 2125 1300 1075 1025 
L 1050 1125 
Q 1850 1450 2412 1875 
Q 2975 2300 3250 2700 
z
M 3950 1950 
L 4350 1550 
L 4075 1500 
Q 2425 425 1100 225 
L 1075 325 
Q 2250 675 2875 1075 
Q 3500 1475 3950 1950 
z
M 4800 1250 
L 5175 825 
L 4925 775 
Q 3475 -75 2587 -287 
Q 1700 -500 650 -550 
L 650 -450 
Q 2050 -300 3137 187 
Q 4225 675 4800 1250 
z
" transform="scale(0.015625)"/>
      <path id="SimSun-6570" d="M 1875 1525 
Q 1675 1200 1500 900 
Q 1825 825 2275 725 
Q 2500 975 2725 1525 
L 1875 1525 
z
M 850 4900 
Q 1325 4600 1425 4450 
Q 1525 4300 1525 4225 
Q 1525 4100 1437 3975 
Q 1350 3850 1300 3850 
Q 1225 3850 1150 4100 
Q 1050 4450 775 4850 
L 850 4900 
z
M 3000 4975 
L 3450 4675 
Q 3250 4625 3100 4425 
Q 2925 4225 2525 3825 
L 2450 3875 
Q 2925 4625 3000 4975 
z
M 1875 5250 
L 2425 5000 
L 2225 4825 
L 2225 3675 
L 2850 3675 
L 3125 3950 
L 3550 3525 
L 2225 3525 
L 2225 3300 
Q 2800 3175 2937 3062 
Q 3075 2950 3075 2775 
Q 3075 2700 3050 2587 
Q 3025 2475 2975 2475 
Q 2925 2475 2800 2650 
Q 2600 2925 2225 3175 
L 2225 2400 
L 1925 2200 
L 2275 2050 
Q 2150 2000 1950 1675 
L 2725 1675 
L 2900 1900 
L 3275 1575 
L 3050 1450 
Q 2800 875 2600 650 
Q 3000 550 3137 437 
Q 3275 325 3275 150 
Q 3275 -25 3200 -25 
Q 3125 -25 3025 75 
Q 2750 275 2400 425 
Q 1525 -275 325 -500 
L 300 -425 
Q 1450 -50 2100 550 
Q 1600 725 1125 800 
Q 1225 950 1525 1525 
L 1200 1525 
Q 875 1525 600 1450 
L 375 1675 
L 1575 1675 
Q 1675 1925 1775 2275 
L 1900 2225 
L 1900 3250 
Q 1225 2475 350 2050 
L 300 2125 
Q 1225 2775 1700 3525 
L 1250 3525 
Q 925 3525 650 3450 
L 425 3675 
L 1900 3675 
Q 1900 4575 1875 5250 
z
M 3925 3525 
Q 4050 2075 4525 1100 
Q 4925 1950 5025 3525 
L 3925 3525 
z
M 4050 5250 
L 4625 4925 
Q 4425 4850 4325 4625 
Q 4225 4400 3950 3675 
L 5375 3675 
L 5675 3975 
L 6125 3525 
L 5400 3525 
Q 5250 1675 4750 775 
Q 5325 75 6100 -100 
L 6100 -200 
Q 5625 -275 5600 -500 
Q 4950 -50 4525 525 
Q 3700 -275 2550 -650 
L 2500 -575 
Q 3650 -50 4325 800 
Q 3850 1975 3825 3375 
Q 3575 2725 3100 2150 
L 3025 2200 
Q 3625 3200 4050 5250 
z
" transform="scale(0.015625)"/>
      <path id="SimSun-ff1a" d="M 1550 675 
Q 1700 575 1687 337 
Q 1675 100 1500 0 
Q 1325 -100 1250 -100 
Q 1175 -100 1000 0 
Q 825 100 812 350 
Q 800 600 962 687 
Q 1125 775 1250 775 
Q 1400 775 1550 675 
z
M 1550 2187 
Q 1725 2100 1725 1837 
Q 1725 1575 1525 1487 
Q 1325 1400 1250 1400 
Q 1125 1400 962 1512 
Q 800 1625 812 1862 
Q 825 2100 1000 2187 
Q 1175 2275 1275 2275 
Q 1375 2275 1550 2187 
z
" transform="scale(0.015625)"/>
      <path id="SimSun-ff0c" d="M 1137 150 
Q 1275 325 1375 650 
Q 1150 650 1050 725 
Q 950 800 912 925 
Q 875 1050 900 1162 
Q 925 1275 1075 1387 
Q 1225 1500 1450 1450 
Q 1675 1400 1725 1262 
Q 1775 1125 1775 1000 
Q 1775 850 1700 612 
Q 1625 375 1362 87 
Q 1100 -200 937 -225 
Q 775 -250 775 -225 
Q 775 -200 850 -150 
Q 1000 -25 1137 150 
z
" transform="scale(0.015625)"/>
      <path id="SimSun-5c3a" d="M 5250 4375 
Q 5250 3975 5250 3600 
Q 5250 3225 5275 2650 
L 4900 2500 
L 4900 2900 
L 3325 2900 
Q 3675 1550 4387 850 
Q 5100 150 6100 -125 
L 6100 -225 
Q 5650 -275 5500 -550 
Q 4350 125 3825 1037 
Q 3300 1950 3175 2900 
L 1825 2900 
Q 1800 1500 1487 762 
Q 1175 25 275 -675 
L 225 -575 
Q 775 -25 1050 525 
Q 1325 1075 1400 1862 
Q 1475 2650 1425 4850 
L 1825 4625 
L 4850 4625 
L 5050 4875 
L 5450 4550 
L 5250 4375 
z
M 1825 4475 
L 1825 3050 
L 4900 3050 
L 4900 4475 
L 1825 4475 
z
" transform="scale(0.015625)"/>
      <path id="TimesNewRomanPSMT-29" d="M 144 4313 
L 144 4444 
Q 619 4209 934 3891 
Q 1381 3434 1625 2820 
Q 1869 2206 1869 1541 
Q 1869 572 1392 -226 
Q 916 -1025 144 -1369 
L 144 -1253 
Q 528 -1038 776 -670 
Q 1025 -303 1145 264 
Q 1266 831 1266 1447 
Q 1266 2113 1163 2663 
Q 1084 3094 967 3353 
Q 850 3613 656 3853 
Q 463 4094 144 4313 
z
" transform="scale(0.015625)"/>
     </defs>
     <use xlink:href="#SimSun-62c9"/>
     <use xlink:href="#SimSun-666e" x="100"/>
     <use xlink:href="#SimSun-62c9" x="200"/>
     <use xlink:href="#SimSun-65af" x="300"/>
     <use xlink:href="#SimSun-5206" x="400"/>
     <use xlink:href="#SimSun-5e03" x="500"/>
     <use xlink:href="#SimSun-548c" x="600"/>
     <use xlink:href="#SimSun-6b63" x="700"/>
     <use xlink:href="#SimSun-6001" x="800"/>
     <use xlink:href="#SimSun-5206" x="900"/>
     <use xlink:href="#SimSun-5e03" x="1000"/>
     <use xlink:href="#SimSun-5bf9" x="1100"/>
     <use xlink:href="#SimSun-6bd4" x="1200"/>
     <use xlink:href="#TimesNewRomanPSMT-28" x="1300"/>
     <use xlink:href="#SimSun-4f4d" x="1333.300781"/>
     <use xlink:href="#SimSun-7f6e" x="1433.300781"/>
     <use xlink:href="#SimSun-53c2" x="1533.300781"/>
     <use xlink:href="#SimSun-6570" x="1633.300781"/>
     <use xlink:href="#SimSun-ff1a" x="1733.300781"/>
     <use xlink:href="#TimesNewRomanPSMT-30" x="1833.300781"/>
     <use xlink:href="#SimSun-ff0c" x="1883.300781"/>
     <use xlink:href="#SimSun-5c3a" x="1983.300781"/>
     <use xlink:href="#SimSun-5ea6" x="2083.300781"/>
     <use xlink:href="#SimSun-53c2" x="2183.300781"/>
     <use xlink:href="#SimSun-6570" x="2283.300781"/>
     <use xlink:href="#SimSun-ff1a" x="2383.300781"/>
     <use xlink:href="#TimesNewRomanPSMT-31" x="2483.300781"/>
     <use xlink:href="#TimesNewRomanPSMT-29" x="2533.300781"/>
    </g>
   </g>
   <g id="legend_1">
    <g id="patch_7">
     <path d="M 387.31875 59.567188 
L 479.31875 59.567188 
Q 481.31875 59.567188 481.31875 57.567188 
L 481.31875 30.090625 
Q 481.31875 28.090625 479.31875 28.090625 
L 387.31875 28.090625 
Q 385.31875 28.090625 385.31875 30.090625 
L 385.31875 57.567188 
Q 385.31875 59.567188 387.31875 59.567188 
z
" style="fill: #ffffff; opacity: 0.8; stroke: #cccccc; stroke-linejoin: miter"/>
    </g>
    <g id="line2d_18">
     <path d="M 389.31875 35.709375 
L 399.31875 35.709375 
L 409.31875 35.709375 
" style="fill: none; stroke: #0000ff; stroke-width: 1.5; stroke-linecap: square"/>
    </g>
    <g id="text_19">
     <!-- 拉普拉斯分布 -->
     <g transform="translate(417.31875 39.209375) scale(0.1 -0.1)">
      <use xlink:href="#SimSun-62c9"/>
      <use xlink:href="#SimSun-666e" x="100"/>
      <use xlink:href="#SimSun-62c9" x="200"/>
      <use xlink:href="#SimSun-65af" x="300"/>
      <use xlink:href="#SimSun-5206" x="400"/>
      <use xlink:href="#SimSun-5e03" x="500"/>
     </g>
    </g>
    <g id="line2d_19">
     <path d="M 389.31875 49.928125 
L 399.31875 49.928125 
L 409.31875 49.928125 
" style="fill: none; stroke: #ff0000; stroke-width: 1.5; stroke-linecap: square"/>
    </g>
    <g id="text_20">
     <!-- 正态分布 -->
     <g transform="translate(417.31875 53.428125) scale(0.1 -0.1)">
      <use xlink:href="#SimSun-6b63"/>
      <use xlink:href="#SimSun-6001" x="100"/>
      <use xlink:href="#SimSun-5206" x="200"/>
      <use xlink:href="#SimSun-5e03" x="300"/>
     </g>
    </g>
   </g>
  </g>
 </g>
 <defs>
  <clipPath id="p7e077dfeb2">
   <rect x="39.91875" y="23.090625" width="446.4" height="332.64"/>
  </clipPath>
 </defs>
</svg>
