<?xml version="1.0" encoding="utf-8" standalone="no"?>
<!DOCTYPE svg PUBLIC "-//W3C//DTD SVG 1.1//EN"
  "http://www.w3.org/Graphics/SVG/1.1/DTD/svg11.dtd">
<svg xmlns:xlink="http://www.w3.org/1999/xlink" width="530.4pt" height="409.962812pt" viewBox="0 0 530.4 409.962812" xmlns="http://www.w3.org/2000/svg" version="1.1">
 <metadata>
  <rdf:RDF xmlns:dc="http://purl.org/dc/elements/1.1/" xmlns:cc="http://creativecommons.org/ns#" xmlns:rdf="http://www.w3.org/1999/02/22-rdf-syntax-ns#">
   <cc:Work>
    <dc:type rdf:resource="http://purl.org/dc/dcmitype/StillImage"/>
    <dc:date>2025-02-17T19:53:22.594994</dc:date>
    <dc:format>image/svg+xml</dc:format>
    <dc:creator>
     <cc:Agent>
      <dc:title>Matplotlib v3.7.2, https://matplotlib.org/</dc:title>
     </cc:Agent>
    </dc:creator>
   </cc:Work>
  </rdf:RDF>
 </metadata>
 <defs>
  <style type="text/css">*{stroke-linejoin: round; stroke-linecap: butt}</style>
 </defs>
 <g id="figure_1">
  <g id="patch_1">
   <path d="M 0 409.962812 
L 530.4 409.962812 
L 530.4 0 
L 0 0 
z
" style="fill: #ffffff"/>
  </g>
  <g id="axes_1">
   <g id="patch_2">
    <path d="M 24.2 386.68 
L 470.6 386.68 
L 470.6 54.04 
L 24.2 54.04 
z
" style="fill: #ffffff"/>
   </g>
   <g id="PathCollection_1">
    <defs>
     <path id="m68e9810e95" d="M 0 3 
C 0.795609 3 1.55874 2.683901 2.12132 2.12132 
C 2.683901 1.55874 3 0.795609 3 0 
C 3 -0.795609 2.683901 -1.55874 2.12132 -2.12132 
C 1.55874 -2.683901 0.795609 -3 0 -3 
C -0.795609 -3 -1.55874 -2.683901 -2.12132 -2.12132 
C -2.683901 -1.55874 -3 -0.795609 -3 0 
C -3 0.795609 -2.683901 1.55874 -2.12132 2.12132 
C -1.55874 2.683901 -0.795609 3 0 3 
z
" style="stroke: #000000"/>
    </defs>
    <g clip-path="url(#p3d85dd2026)">
     <use xlink:href="#m68e9810e95" x="85.072727" y="307.094893" style="stroke: #000000"/>
     <use xlink:href="#m68e9810e95" x="88.761983" y="329.921243" style="stroke: #000000"/>
     <use xlink:href="#m68e9810e95" x="92.45124" y="296.277827" style="stroke: #000000"/>
     <use xlink:href="#m68e9810e95" x="96.140496" y="259.08199" style="stroke: #000000"/>
     <use xlink:href="#m68e9810e95" x="99.829752" y="326.506301" style="stroke: #000000"/>
     <use xlink:href="#m68e9810e95" x="103.519008" y="324.097081" style="stroke: #000000"/>
     <use xlink:href="#m68e9810e95" x="107.208264" y="249.623497" style="stroke: #000000"/>
     <use xlink:href="#m68e9810e95" x="110.897521" y="279.476107" style="stroke: #000000"/>
     <use xlink:href="#m68e9810e95" x="114.586777" y="326.224009" style="stroke: #000000"/>
     <use xlink:href="#m68e9810e95" x="118.276033" y="283.5958" style="stroke: #000000"/>
     <use xlink:href="#m68e9810e95" x="121.965289" y="321.166171" style="stroke: #000000"/>
     <use xlink:href="#m68e9810e95" x="125.654545" y="318.849488" style="stroke: #000000"/>
     <use xlink:href="#m68e9810e95" x="129.343802" y="288.316264" style="stroke: #000000"/>
     <use xlink:href="#m68e9810e95" x="133.033058" y="371.56" style="stroke: #000000"/>
     <use xlink:href="#m68e9810e95" x="136.722314" y="361.66565" style="stroke: #000000"/>
     <use xlink:href="#m68e9810e95" x="140.41157" y="313.052554" style="stroke: #000000"/>
     <use xlink:href="#m68e9810e95" x="144.100826" y="328.549208" style="stroke: #000000"/>
     <use xlink:href="#m68e9810e95" x="147.790083" y="273.400715" style="stroke: #000000"/>
     <use xlink:href="#m68e9810e95" x="151.479339" y="319.566895" style="stroke: #000000"/>
     <use xlink:href="#m68e9810e95" x="155.168595" y="337.199093" style="stroke: #000000"/>
     <use xlink:href="#m68e9810e95" x="158.857851" y="220.416733" style="stroke: #000000"/>
     <use xlink:href="#m68e9810e95" x="162.547107" y="285.227725" style="stroke: #000000"/>
     <use xlink:href="#m68e9810e95" x="166.236364" y="271.162832" style="stroke: #000000"/>
     <use xlink:href="#m68e9810e95" x="169.92562" y="328.059381" style="stroke: #000000"/>
     <use xlink:href="#m68e9810e95" x="173.614876" y="290.663878" style="stroke: #000000"/>
     <use xlink:href="#m68e9810e95" x="177.304132" y="262.212574" style="stroke: #000000"/>
     <use xlink:href="#m68e9810e95" x="180.993388" y="309.954291" style="stroke: #000000"/>
     <use xlink:href="#m68e9810e95" x="184.682645" y="246.872898" style="stroke: #000000"/>
     <use xlink:href="#m68e9810e95" x="188.371901" y="283.265294" style="stroke: #000000"/>
     <use xlink:href="#m68e9810e95" x="192.061157" y="268.578829" style="stroke: #000000"/>
     <use xlink:href="#m68e9810e95" x="195.750413" y="278.490598" style="stroke: #000000"/>
     <use xlink:href="#m68e9810e95" x="199.439669" y="178.557297" style="stroke: #000000"/>
     <use xlink:href="#m68e9810e95" x="203.128926" y="250.297211" style="stroke: #000000"/>
     <use xlink:href="#m68e9810e95" x="206.818182" y="289.387133" style="stroke: #000000"/>
     <use xlink:href="#m68e9810e95" x="210.507438" y="212.254609" style="stroke: #000000"/>
     <use xlink:href="#m68e9810e95" x="214.196694" y="291.053115" style="stroke: #000000"/>
     <use xlink:href="#m68e9810e95" x="217.88595" y="231.826013" style="stroke: #000000"/>
     <use xlink:href="#m68e9810e95" x="221.575207" y="315.597959" style="stroke: #000000"/>
     <use xlink:href="#m68e9810e95" x="225.264463" y="288.093345" style="stroke: #000000"/>
     <use xlink:href="#m68e9810e95" x="228.953719" y="225.077298" style="stroke: #000000"/>
     <use xlink:href="#m68e9810e95" x="232.642975" y="201.144588" style="stroke: #000000"/>
     <use xlink:href="#m68e9810e95" x="236.332231" y="221.273287" style="stroke: #000000"/>
     <use xlink:href="#m68e9810e95" x="240.021488" y="230.271152" style="stroke: #000000"/>
     <use xlink:href="#m68e9810e95" x="243.710744" y="235.232837" style="stroke: #000000"/>
     <use xlink:href="#m68e9810e95" x="247.4" y="279.616492" style="stroke: #000000"/>
     <use xlink:href="#m68e9810e95" x="251.089256" y="247.057025" style="stroke: #000000"/>
     <use xlink:href="#m68e9810e95" x="254.778512" y="234.347276" style="stroke: #000000"/>
     <use xlink:href="#m68e9810e95" x="258.467769" y="171.620796" style="stroke: #000000"/>
     <use xlink:href="#m68e9810e95" x="262.157025" y="197.567857" style="stroke: #000000"/>
     <use xlink:href="#m68e9810e95" x="265.846281" y="278.880795" style="stroke: #000000"/>
     <use xlink:href="#m68e9810e95" x="269.535537" y="193.527041" style="stroke: #000000"/>
     <use xlink:href="#m68e9810e95" x="273.224793" y="219.301716" style="stroke: #000000"/>
     <use xlink:href="#m68e9810e95" x="276.91405" y="228.491259" style="stroke: #000000"/>
     <use xlink:href="#m68e9810e95" x="280.603306" y="174.872022" style="stroke: #000000"/>
     <use xlink:href="#m68e9810e95" x="284.292562" y="155.798971" style="stroke: #000000"/>
     <use xlink:href="#m68e9810e95" x="287.981818" y="157.353389" style="stroke: #000000"/>
     <use xlink:href="#m68e9810e95" x="291.671074" y="225.306834" style="stroke: #000000"/>
     <use xlink:href="#m68e9810e95" x="295.360331" y="201.835132" style="stroke: #000000"/>
     <use xlink:href="#m68e9810e95" x="299.049587" y="173.973173" style="stroke: #000000"/>
     <use xlink:href="#m68e9810e95" x="302.738843" y="145.959964" style="stroke: #000000"/>
     <use xlink:href="#m68e9810e95" x="306.428099" y="201.363945" style="stroke: #000000"/>
     <use xlink:href="#m68e9810e95" x="310.117355" y="187.290676" style="stroke: #000000"/>
     <use xlink:href="#m68e9810e95" x="313.806612" y="221.471039" style="stroke: #000000"/>
     <use xlink:href="#m68e9810e95" x="317.495868" y="222.634094" style="stroke: #000000"/>
     <use xlink:href="#m68e9810e95" x="321.185124" y="140.395734" style="stroke: #000000"/>
     <use xlink:href="#m68e9810e95" x="324.87438" y="116.379215" style="stroke: #000000"/>
     <use xlink:href="#m68e9810e95" x="328.563636" y="170.731273" style="stroke: #000000"/>
     <use xlink:href="#m68e9810e95" x="332.252893" y="125.579145" style="stroke: #000000"/>
     <use xlink:href="#m68e9810e95" x="335.942149" y="148.680442" style="stroke: #000000"/>
     <use xlink:href="#m68e9810e95" x="339.631405" y="186.281734" style="stroke: #000000"/>
     <use xlink:href="#m68e9810e95" x="343.320661" y="143.87286" style="stroke: #000000"/>
     <use xlink:href="#m68e9810e95" x="347.009917" y="94.70296" style="stroke: #000000"/>
     <use xlink:href="#m68e9810e95" x="350.699174" y="154.841858" style="stroke: #000000"/>
     <use xlink:href="#m68e9810e95" x="354.38843" y="88.828421" style="stroke: #000000"/>
     <use xlink:href="#m68e9810e95" x="358.077686" y="252.713222" style="stroke: #000000"/>
     <use xlink:href="#m68e9810e95" x="361.766942" y="113.528841" style="stroke: #000000"/>
     <use xlink:href="#m68e9810e95" x="365.456198" y="140.324439" style="stroke: #000000"/>
     <use xlink:href="#m68e9810e95" x="369.145455" y="153.258204" style="stroke: #000000"/>
     <use xlink:href="#m68e9810e95" x="372.834711" y="135.319973" style="stroke: #000000"/>
     <use xlink:href="#m68e9810e95" x="376.523967" y="215.546829" style="stroke: #000000"/>
     <use xlink:href="#m68e9810e95" x="380.213223" y="142.879599" style="stroke: #000000"/>
     <use xlink:href="#m68e9810e95" x="383.902479" y="117.548823" style="stroke: #000000"/>
     <use xlink:href="#m68e9810e95" x="387.591736" y="70.598856" style="stroke: #000000"/>
     <use xlink:href="#m68e9810e95" x="391.280992" y="147.520603" style="stroke: #000000"/>
     <use xlink:href="#m68e9810e95" x="394.970248" y="156.645912" style="stroke: #000000"/>
     <use xlink:href="#m68e9810e95" x="398.659504" y="142.04721" style="stroke: #000000"/>
     <use xlink:href="#m68e9810e95" x="402.34876" y="83.318786" style="stroke: #000000"/>
     <use xlink:href="#m68e9810e95" x="406.038017" y="104.224537" style="stroke: #000000"/>
     <use xlink:href="#m68e9810e95" x="409.727273" y="135.93439" style="stroke: #000000"/>
     <use xlink:href="#m68e9810e95" x="413.416529" y="92.074467" style="stroke: #000000"/>
     <use xlink:href="#m68e9810e95" x="417.105785" y="106.205858" style="stroke: #000000"/>
     <use xlink:href="#m68e9810e95" x="420.795041" y="69.16" style="stroke: #000000"/>
     <use xlink:href="#m68e9810e95" x="424.484298" y="133.147273" style="stroke: #000000"/>
     <use xlink:href="#m68e9810e95" x="428.173554" y="115.859893" style="stroke: #000000"/>
     <use xlink:href="#m68e9810e95" x="431.86281" y="116.012498" style="stroke: #000000"/>
     <use xlink:href="#m68e9810e95" x="435.552066" y="156.18311" style="stroke: #000000"/>
     <use xlink:href="#m68e9810e95" x="439.241322" y="83.844216" style="stroke: #000000"/>
     <use xlink:href="#m68e9810e95" x="442.930579" y="82.82918" style="stroke: #000000"/>
     <use xlink:href="#m68e9810e95" x="446.619835" y="90.592091" style="stroke: #000000"/>
     <use xlink:href="#m68e9810e95" x="450.309091" y="97.709555" style="stroke: #000000"/>
    </g>
   </g>
   <g id="matplotlib.axis_1">
    <g id="xtick_1">
     <g id="line2d_1">
      <defs>
       <path id="m19f5961a91" d="M 0 0 
L 0 3.5 
" style="stroke: #000000; stroke-width: 0.8"/>
      </defs>
      <g>
       <use xlink:href="#m19f5961a91" x="44.490909" y="386.68" style="stroke: #000000; stroke-width: 0.8"/>
      </g>
     </g>
     <g id="text_1">
      <!-- 0 -->
      <g transform="translate(41.990909 400.62375) scale(0.1 -0.1)">
       <defs>
        <path id="TimesNewRomanPSMT-30" d="M 231 2094 
Q 231 2819 450 3342 
Q 669 3866 1031 4122 
Q 1313 4325 1613 4325 
Q 2100 4325 2488 3828 
Q 2972 3213 2972 2159 
Q 2972 1422 2759 906 
Q 2547 391 2217 158 
Q 1888 -75 1581 -75 
Q 975 -75 572 641 
Q 231 1244 231 2094 
z
M 844 2016 
Q 844 1141 1059 588 
Q 1238 122 1591 122 
Q 1759 122 1940 273 
Q 2122 425 2216 781 
Q 2359 1319 2359 2297 
Q 2359 3022 2209 3506 
Q 2097 3866 1919 4016 
Q 1791 4119 1609 4119 
Q 1397 4119 1231 3928 
Q 1006 3669 925 3112 
Q 844 2556 844 2016 
z
" transform="scale(0.015625)"/>
       </defs>
       <use xlink:href="#TimesNewRomanPSMT-30"/>
      </g>
     </g>
    </g>
    <g id="xtick_2">
     <g id="line2d_2">
      <g>
       <use xlink:href="#m19f5961a91" x="125.654545" y="386.68" style="stroke: #000000; stroke-width: 0.8"/>
      </g>
     </g>
     <g id="text_2">
      <!-- 2 -->
      <g transform="translate(123.154545 400.62375) scale(0.1 -0.1)">
       <defs>
        <path id="TimesNewRomanPSMT-32" d="M 2934 816 
L 2638 0 
L 138 0 
L 138 116 
Q 1241 1122 1691 1759 
Q 2141 2397 2141 2925 
Q 2141 3328 1894 3587 
Q 1647 3847 1303 3847 
Q 991 3847 742 3664 
Q 494 3481 375 3128 
L 259 3128 
Q 338 3706 661 4015 
Q 984 4325 1469 4325 
Q 1984 4325 2329 3994 
Q 2675 3663 2675 3213 
Q 2675 2891 2525 2569 
Q 2294 2063 1775 1497 
Q 997 647 803 472 
L 1909 472 
Q 2247 472 2383 497 
Q 2519 522 2628 598 
Q 2738 675 2819 816 
L 2934 816 
z
" transform="scale(0.015625)"/>
       </defs>
       <use xlink:href="#TimesNewRomanPSMT-32"/>
      </g>
     </g>
    </g>
    <g id="xtick_3">
     <g id="line2d_3">
      <g>
       <use xlink:href="#m19f5961a91" x="206.818182" y="386.68" style="stroke: #000000; stroke-width: 0.8"/>
      </g>
     </g>
     <g id="text_3">
      <!-- 4 -->
      <g transform="translate(204.318182 400.62375) scale(0.1 -0.1)">
       <defs>
        <path id="TimesNewRomanPSMT-34" d="M 2978 1563 
L 2978 1119 
L 2409 1119 
L 2409 0 
L 1894 0 
L 1894 1119 
L 100 1119 
L 100 1519 
L 2066 4325 
L 2409 4325 
L 2409 1563 
L 2978 1563 
z
M 1894 1563 
L 1894 3666 
L 406 1563 
L 1894 1563 
z
" transform="scale(0.015625)"/>
       </defs>
       <use xlink:href="#TimesNewRomanPSMT-34"/>
      </g>
     </g>
    </g>
    <g id="xtick_4">
     <g id="line2d_4">
      <g>
       <use xlink:href="#m19f5961a91" x="287.981818" y="386.68" style="stroke: #000000; stroke-width: 0.8"/>
      </g>
     </g>
     <g id="text_4">
      <!-- 6 -->
      <g transform="translate(285.481818 400.62375) scale(0.1 -0.1)">
       <defs>
        <path id="TimesNewRomanPSMT-36" d="M 2869 4325 
L 2869 4209 
Q 2456 4169 2195 4045 
Q 1934 3922 1679 3669 
Q 1425 3416 1258 3105 
Q 1091 2794 978 2366 
Q 1428 2675 1881 2675 
Q 2316 2675 2634 2325 
Q 2953 1975 2953 1425 
Q 2953 894 2631 456 
Q 2244 -75 1606 -75 
Q 1172 -75 869 213 
Q 275 772 275 1663 
Q 275 2231 503 2743 
Q 731 3256 1154 3653 
Q 1578 4050 1965 4187 
Q 2353 4325 2688 4325 
L 2869 4325 
z
M 925 2138 
Q 869 1716 869 1456 
Q 869 1156 980 804 
Q 1091 453 1309 247 
Q 1469 100 1697 100 
Q 1969 100 2183 356 
Q 2397 613 2397 1088 
Q 2397 1622 2184 2012 
Q 1972 2403 1581 2403 
Q 1463 2403 1327 2353 
Q 1191 2303 925 2138 
z
" transform="scale(0.015625)"/>
       </defs>
       <use xlink:href="#TimesNewRomanPSMT-36"/>
      </g>
     </g>
    </g>
    <g id="xtick_5">
     <g id="line2d_5">
      <g>
       <use xlink:href="#m19f5961a91" x="369.145455" y="386.68" style="stroke: #000000; stroke-width: 0.8"/>
      </g>
     </g>
     <g id="text_5">
      <!-- 8 -->
      <g transform="translate(366.645455 400.62375) scale(0.1 -0.1)">
       <defs>
        <path id="TimesNewRomanPSMT-38" d="M 1228 2134 
Q 725 2547 579 2797 
Q 434 3047 434 3316 
Q 434 3728 753 4026 
Q 1072 4325 1600 4325 
Q 2113 4325 2425 4047 
Q 2738 3769 2738 3413 
Q 2738 3175 2569 2928 
Q 2400 2681 1866 2347 
Q 2416 1922 2594 1678 
Q 2831 1359 2831 1006 
Q 2831 559 2490 242 
Q 2150 -75 1597 -75 
Q 994 -75 656 303 
Q 388 606 388 966 
Q 388 1247 577 1523 
Q 766 1800 1228 2134 
z
M 1719 2469 
Q 2094 2806 2194 3001 
Q 2294 3197 2294 3444 
Q 2294 3772 2109 3958 
Q 1925 4144 1606 4144 
Q 1288 4144 1088 3959 
Q 888 3775 888 3528 
Q 888 3366 970 3203 
Q 1053 3041 1206 2894 
L 1719 2469 
z
M 1375 2016 
Q 1116 1797 991 1539 
Q 866 1281 866 981 
Q 866 578 1086 336 
Q 1306 94 1647 94 
Q 1984 94 2187 284 
Q 2391 475 2391 747 
Q 2391 972 2272 1150 
Q 2050 1481 1375 2016 
z
" transform="scale(0.015625)"/>
       </defs>
       <use xlink:href="#TimesNewRomanPSMT-38"/>
      </g>
     </g>
    </g>
    <g id="xtick_6">
     <g id="line2d_6">
      <g>
       <use xlink:href="#m19f5961a91" x="450.309091" y="386.68" style="stroke: #000000; stroke-width: 0.8"/>
      </g>
     </g>
     <g id="text_6">
      <!-- 10 -->
      <g transform="translate(445.309091 400.62375) scale(0.1 -0.1)">
       <defs>
        <path id="TimesNewRomanPSMT-31" d="M 750 3822 
L 1781 4325 
L 1884 4325 
L 1884 747 
Q 1884 391 1914 303 
Q 1944 216 2037 169 
Q 2131 122 2419 116 
L 2419 0 
L 825 0 
L 825 116 
Q 1125 122 1212 167 
Q 1300 213 1334 289 
Q 1369 366 1369 747 
L 1369 3034 
Q 1369 3497 1338 3628 
Q 1316 3728 1258 3775 
Q 1200 3822 1119 3822 
Q 1003 3822 797 3725 
L 750 3822 
z
" transform="scale(0.015625)"/>
       </defs>
       <use xlink:href="#TimesNewRomanPSMT-31"/>
       <use xlink:href="#TimesNewRomanPSMT-30" x="50"/>
      </g>
     </g>
    </g>
   </g>
   <g id="matplotlib.axis_2">
    <g id="ytick_1">
     <g id="line2d_7">
      <defs>
       <path id="m47a5be358f" d="M 0 0 
L -3.5 0 
" style="stroke: #000000; stroke-width: 0.8"/>
      </defs>
      <g>
       <use xlink:href="#m47a5be358f" x="24.2" y="353.329248" style="stroke: #000000; stroke-width: 0.8"/>
      </g>
     </g>
     <g id="text_7">
      <!-- 5 -->
      <g transform="translate(12.2 356.801123) scale(0.1 -0.1)">
       <defs>
        <path id="TimesNewRomanPSMT-35" d="M 2778 4238 
L 2534 3706 
L 1259 3706 
L 981 3138 
Q 1809 3016 2294 2522 
Q 2709 2097 2709 1522 
Q 2709 1188 2573 903 
Q 2438 619 2231 419 
Q 2025 219 1772 97 
Q 1413 -75 1034 -75 
Q 653 -75 479 54 
Q 306 184 306 341 
Q 306 428 378 495 
Q 450 563 559 563 
Q 641 563 702 538 
Q 763 513 909 409 
Q 1144 247 1384 247 
Q 1750 247 2026 523 
Q 2303 800 2303 1197 
Q 2303 1581 2056 1914 
Q 1809 2247 1375 2428 
Q 1034 2569 447 2591 
L 1259 4238 
L 2778 4238 
z
" transform="scale(0.015625)"/>
       </defs>
       <use xlink:href="#TimesNewRomanPSMT-35"/>
      </g>
     </g>
    </g>
    <g id="ytick_2">
     <g id="line2d_8">
      <g>
       <use xlink:href="#m47a5be358f" x="24.2" y="287.093621" style="stroke: #000000; stroke-width: 0.8"/>
      </g>
     </g>
     <g id="text_8">
      <!-- 10 -->
      <g transform="translate(7.2 290.565496) scale(0.1 -0.1)">
       <use xlink:href="#TimesNewRomanPSMT-31"/>
       <use xlink:href="#TimesNewRomanPSMT-30" x="50"/>
      </g>
     </g>
    </g>
    <g id="ytick_3">
     <g id="line2d_9">
      <g>
       <use xlink:href="#m47a5be358f" x="24.2" y="220.857994" style="stroke: #000000; stroke-width: 0.8"/>
      </g>
     </g>
     <g id="text_9">
      <!-- 15 -->
      <g transform="translate(7.2 224.329869) scale(0.1 -0.1)">
       <use xlink:href="#TimesNewRomanPSMT-31"/>
       <use xlink:href="#TimesNewRomanPSMT-35" x="50"/>
      </g>
     </g>
    </g>
    <g id="ytick_4">
     <g id="line2d_10">
      <g>
       <use xlink:href="#m47a5be358f" x="24.2" y="154.622366" style="stroke: #000000; stroke-width: 0.8"/>
      </g>
     </g>
     <g id="text_10">
      <!-- 20 -->
      <g transform="translate(7.2 158.094241) scale(0.1 -0.1)">
       <use xlink:href="#TimesNewRomanPSMT-32"/>
       <use xlink:href="#TimesNewRomanPSMT-30" x="50"/>
      </g>
     </g>
    </g>
    <g id="ytick_5">
     <g id="line2d_11">
      <g>
       <use xlink:href="#m47a5be358f" x="24.2" y="88.386739" style="stroke: #000000; stroke-width: 0.8"/>
      </g>
     </g>
     <g id="text_11">
      <!-- 25 -->
      <g transform="translate(7.2 91.858614) scale(0.1 -0.1)">
       <use xlink:href="#TimesNewRomanPSMT-32"/>
       <use xlink:href="#TimesNewRomanPSMT-35" x="50"/>
      </g>
     </g>
    </g>
   </g>
   <g id="line2d_12">
    <path d="M 44.490909 360.806139 
L 450.309091 89.772925 
L 450.309091 89.772925 
" clip-path="url(#p3d85dd2026)" style="fill: none; stroke: #1f77b4; stroke-width: 1.5; stroke-linecap: square"/>
   </g>
   <g id="line2d_13">
    <path d="M 44.490909 360.69699 
L 450.309091 86.385204 
L 450.309091 86.385204 
" clip-path="url(#p3d85dd2026)" style="fill: none; stroke: #ff7f0e; stroke-width: 1.5; stroke-linecap: square"/>
   </g>
   <g id="line2d_14">
    <path d="M 44.490909 353.329248 
L 450.309091 88.386739 
L 450.309091 88.386739 
" clip-path="url(#p3d85dd2026)" style="fill: none; stroke: #2ca02c; stroke-width: 1.5; stroke-linecap: square"/>
   </g>
   <g id="patch_3">
    <path d="M 24.2 386.68 
L 24.2 54.04 
" style="fill: none; stroke: #000000; stroke-width: 0.8; stroke-linejoin: miter; stroke-linecap: square"/>
   </g>
   <g id="patch_4">
    <path d="M 470.6 386.68 
L 470.6 54.04 
" style="fill: none; stroke: #000000; stroke-width: 0.8; stroke-linejoin: miter; stroke-linecap: square"/>
   </g>
   <g id="patch_5">
    <path d="M 24.2 386.68 
L 470.6 386.68 
" style="fill: none; stroke: #000000; stroke-width: 0.8; stroke-linejoin: miter; stroke-linecap: square"/>
   </g>
   <g id="patch_6">
    <path d="M 24.2 54.04 
L 470.6 54.04 
" style="fill: none; stroke: #000000; stroke-width: 0.8; stroke-linejoin: miter; stroke-linecap: square"/>
   </g>
  </g>
  <g id="legend_1">
   <g id="patch_7">
    <path d="M 381.4 65.109375 
L 523.4 65.109375 
Q 525.4 65.109375 525.4 63.109375 
L 525.4 7 
Q 525.4 5 523.4 5 
L 381.4 5 
Q 379.4 5 379.4 7 
L 379.4 63.109375 
Q 379.4 65.109375 381.4 65.109375 
z
" style="fill: #ffffff; opacity: 0.8; stroke: #cccccc; stroke-linejoin: miter"/>
   </g>
   <g id="line2d_15">
    <path d="M 383.4 12.657812 
L 393.4 12.657812 
L 403.4 12.657812 
" style="fill: none; stroke: #1f77b4; stroke-width: 1.5; stroke-linecap: square"/>
   </g>
   <g id="text_12">
    <!-- 最小二乘估计 -->
    <g transform="translate(411.4 16.157812) scale(0.1 -0.1)">
     <defs>
      <path id="SimSun-6700" d="M 1550 2725 
L 1550 2200 
L 2725 2200 
L 2725 2725 
L 1550 2725 
z
M 1550 2050 
L 1550 1475 
L 2725 1475 
L 2725 2050 
L 1550 2050 
z
M 1550 1325 
L 1550 525 
L 2725 725 
L 2725 1325 
L 1550 1325 
z
M 3800 2125 
Q 3900 1775 4075 1425 
Q 4250 1075 4450 850 
Q 4650 1150 4812 1475 
Q 4975 1800 5100 2125 
L 3800 2125 
z
M 325 2875 
L 5100 2875 
L 5500 3275 
L 6050 2725 
L 3050 2725 
L 3050 800 
L 3775 950 
L 3800 850 
L 3050 625 
L 3050 -450 
L 2725 -650 
L 2725 525 
Q 1325 175 1025 62 
Q 725 -50 675 -150 
L 375 325 
Q 725 375 1200 450 
L 1200 2725 
L 850 2725 
L 525 2675 
L 325 2875 
z
M 3150 2275 
L 5075 2275 
L 5275 2525 
L 5675 2175 
L 5450 2050 
Q 5075 1200 4650 625 
Q 5050 250 5350 100 
Q 5650 -50 6075 -75 
L 6075 -175 
Q 5675 -225 5575 -475 
Q 5300 -350 5025 -137 
Q 4750 75 4450 400 
Q 3950 -100 3125 -575 
L 3050 -500 
Q 3775 0 4275 600 
Q 4050 950 3912 1312 
Q 3775 1675 3675 2125 
L 3350 2075 
L 3150 2275 
z
M 1900 4800 
L 1900 4250 
L 4600 4250 
L 4600 4800 
L 1900 4800 
z
M 1900 4100 
L 1900 3550 
L 4600 3550 
L 4600 4100 
L 1900 4100 
z
M 1525 5150 
L 1900 4950 
L 4550 4950 
L 4725 5225 
L 5150 4925 
L 4950 4750 
Q 4950 3525 4975 3275 
L 4600 3100 
L 4600 3400 
L 1900 3400 
L 1900 3200 
L 1525 3075 
Q 1550 3550 1550 4112 
Q 1550 4675 1525 5150 
z
" transform="scale(0.015625)"/>
      <path id="SimSun-5c0f" d="M 3075 3950 
Q 3075 4725 3050 5175 
L 3725 4875 
L 3450 4650 
L 3450 250 
Q 3450 -325 2825 -575 
Q 2850 -275 2025 50 
L 2025 175 
Q 2575 75 2825 75 
Q 3075 75 3075 425 
L 3075 3950 
z
M 1900 3600 
L 2450 3200 
Q 2250 3100 2100 2825 
Q 1925 2550 1537 2012 
Q 1150 1475 500 900 
L 425 975 
Q 750 1325 1075 1825 
Q 1400 2325 1612 2812 
Q 1825 3300 1900 3600 
z
M 4150 3475 
Q 5100 2700 5450 2325 
Q 5800 1950 5837 1775 
Q 5875 1600 5875 1525 
Q 5875 1300 5775 1162 
Q 5675 1025 5625 1025 
Q 5525 1025 5450 1300 
Q 5300 1700 4962 2237 
Q 4625 2775 4075 3400 
L 4150 3475 
z
" transform="scale(0.015625)"/>
      <path id="SimSun-4e8c" d="M 975 3900 
L 4650 3900 
L 5000 4250 
L 5500 3750 
L 1775 3750 
Q 1475 3750 1200 3675 
L 975 3900 
z
M 350 425 
L 5000 425 
L 5450 875 
L 6050 275 
L 1200 275 
Q 850 275 575 200 
L 350 425 
z
" transform="scale(0.015625)"/>
      <path id="SimSun-4e58" d="M 4075 3050 
Q 4075 3300 4050 3625 
L 3300 3625 
L 3300 2300 
Q 4300 575 6000 275 
L 6000 175 
Q 5575 125 5400 -125 
Q 4000 625 3300 2050 
L 3300 375 
Q 3300 -150 3325 -425 
L 2925 -625 
Q 2950 325 2950 1700 
Q 1975 375 275 -350 
L 250 -250 
Q 2000 725 2950 2325 
L 2950 3625 
L 1825 3625 
L 2300 3400 
L 2125 3225 
Q 2125 2000 2150 1650 
L 1775 1450 
Q 1800 1725 1800 1950 
Q 850 1575 650 1400 
L 400 1800 
Q 975 1875 1800 2075 
L 1800 2725 
L 1375 2725 
Q 1050 2725 775 2650 
L 550 2875 
L 1800 2875 
Q 1800 3300 1775 3625 
L 1150 3625 
Q 825 3625 550 3550 
L 325 3775 
L 2950 3775 
L 2950 4575 
Q 2000 4500 1050 4475 
L 1050 4575 
Q 2300 4675 3350 4862 
Q 4400 5050 4750 5250 
L 5150 4775 
Q 4650 4750 3300 4600 
L 3300 3775 
L 5100 3775 
L 5475 4150 
L 6000 3625 
L 4100 3625 
L 4600 3400 
L 4400 3225 
L 4400 2625 
Q 4975 2875 5425 3350 
L 5825 2950 
Q 5525 2900 4400 2500 
L 4400 2075 
Q 4400 1800 4700 1800 
L 5450 1800 
Q 5650 1800 5675 2625 
L 5775 2625 
Q 5800 2250 5850 2075 
Q 5900 1900 6075 1825 
Q 5950 1600 5787 1550 
Q 5625 1500 5475 1500 
L 4600 1500 
Q 4075 1475 4075 1875 
L 4075 3050 
z
" transform="scale(0.015625)"/>
      <path id="SimSun-4f30" d="M 2900 1950 
L 2900 175 
L 5100 175 
L 5100 1950 
L 2900 1950 
z
M 2525 -575 
Q 2550 -125 2550 900 
Q 2550 1925 2525 2325 
L 2925 2100 
L 3800 2100 
L 3800 3500 
L 2850 3500 
Q 2525 3500 2250 3425 
L 2025 3650 
L 3800 3650 
Q 3800 4800 3775 5200 
L 4350 4950 
L 4150 4725 
L 4150 3650 
L 5300 3650 
L 5625 3975 
L 6100 3500 
L 4150 3500 
L 4150 2100 
L 5050 2100 
L 5300 2350 
L 5675 2025 
L 5450 1875 
L 5450 425 
Q 5450 50 5475 -350 
L 5100 -525 
L 5100 25 
L 2900 25 
L 2900 -425 
L 2525 -575 
z
M 1500 3375 
L 1825 3225 
L 1675 3050 
L 1675 525 
Q 1675 75 1700 -500 
L 1300 -700 
Q 1325 0 1325 400 
L 1325 3050 
Q 850 2375 325 1875 
L 250 1950 
Q 825 2625 1200 3412 
Q 1575 4200 1875 5100 
L 2400 4750 
L 2150 4600 
Q 1800 3925 1500 3375 
z
" transform="scale(0.015625)"/>
      <path id="SimSun-8ba1" d="M 975 4975 
L 1000 5050 
Q 1550 4800 1762 4625 
Q 1975 4450 1975 4275 
Q 1975 4100 1887 4025 
Q 1800 3950 1775 3950 
Q 1650 3950 1550 4250 
Q 1375 4625 975 4975 
z
M 1650 375 
L 2625 1225 
L 2675 1150 
Q 1800 25 1600 -350 
L 1225 75 
Q 1325 225 1325 550 
L 1325 2800 
L 675 2800 
L 900 2800 
Q 750 2800 475 2725 
L 250 2950 
L 1275 2950 
L 1550 3225 
L 1900 2875 
L 1650 2700 
L 1650 375 
z
M 3850 2925 
Q 3850 4600 3825 5100 
L 4425 4825 
L 4225 4625 
L 4225 2925 
L 5350 2925 
L 5675 3250 
L 6125 2775 
L 4225 2775 
L 4225 500 
Q 4225 0 4250 -425 
L 3825 -600 
Q 3850 175 3850 575 
L 3850 2775 
L 2575 2775 
L 2950 2775 
Q 2650 2775 2375 2700 
L 2150 2925 
L 3850 2925 
z
" transform="scale(0.015625)"/>
     </defs>
     <use xlink:href="#SimSun-6700"/>
     <use xlink:href="#SimSun-5c0f" x="100"/>
     <use xlink:href="#SimSun-4e8c" x="200"/>
     <use xlink:href="#SimSun-4e58" x="300"/>
     <use xlink:href="#SimSun-4f30" x="400"/>
     <use xlink:href="#SimSun-8ba1" x="500"/>
    </g>
   </g>
   <g id="line2d_16">
    <path d="M 383.4 26.954687 
L 393.4 26.954687 
L 403.4 26.954687 
" style="fill: none; stroke: #ff7f0e; stroke-width: 1.5; stroke-linecap: square"/>
   </g>
   <g id="text_13">
    <!-- 小批量随机梯度下降算法 -->
    <g transform="translate(411.4 30.454687) scale(0.1 -0.1)">
     <defs>
      <path id="SimSun-6279" d="M 2625 75 
Q 2775 200 2750 600 
L 2750 4000 
Q 2750 4550 2725 5025 
L 3325 4750 
L 3100 4550 
L 3100 3125 
L 3450 3125 
L 3725 3400 
L 4150 2975 
L 3100 2975 
L 3100 325 
L 4125 1000 
L 4175 900 
Q 3250 150 2950 -350 
L 2625 75 
z
M 4275 275 
L 4275 4100 
Q 4275 4550 4250 5000 
L 4875 4725 
L 4625 4525 
L 4625 2575 
Q 5300 3150 5650 3775 
L 6075 3350 
Q 5825 3300 5550 3050 
Q 5250 2800 4625 2425 
L 4625 325 
Q 4625 50 4875 25 
L 5425 25 
Q 5625 0 5675 387 
Q 5725 775 5725 1200 
L 5850 1200 
Q 5850 825 5887 487 
Q 5925 150 6150 100 
Q 5975 -275 5600 -250 
L 4825 -250 
Q 4250 -300 4275 275 
z
M 225 2000 
Q 600 2100 1325 2400 
L 1325 3650 
L 775 3650 
L 475 3600 
L 275 3800 
L 1325 3800 
Q 1325 4625 1300 5250 
L 1900 4925 
L 1675 4775 
L 1675 3800 
L 1925 3800 
L 2200 4075 
L 2625 3650 
L 1675 3650 
L 1675 2525 
L 2500 2875 
L 2550 2775 
L 1675 2275 
L 1675 150 
Q 1650 -350 1100 -575 
Q 1125 -275 425 25 
L 425 125 
Q 950 50 1137 50 
Q 1325 50 1325 325 
L 1325 2100 
Q 625 1725 575 1550 
L 225 2000 
z
" transform="scale(0.015625)"/>
      <path id="SimSun-91cf" d="M 1700 2400 
L 1700 1875 
L 3025 1875 
L 3025 2400 
L 1700 2400 
z
M 3350 2400 
L 3350 1875 
L 4625 1875 
L 4625 2400 
L 3350 2400 
z
M 1700 1725 
L 1700 1225 
L 3025 1225 
L 3025 1725 
L 1700 1725 
z
M 3350 1725 
L 3350 1225 
L 4625 1225 
L 4625 1725 
L 3350 1725 
z
M 4950 2325 
Q 4950 1350 4975 1025 
L 4625 875 
L 4625 1075 
L 3350 1075 
L 3350 525 
L 4700 525 
L 5050 825 
L 5450 375 
L 3350 375 
L 3350 -225 
L 5275 -225 
L 5650 125 
L 6075 -375 
L 1175 -375 
Q 850 -375 575 -450 
L 350 -225 
L 3025 -225 
L 3025 375 
L 1725 375 
Q 1400 375 1125 300 
L 900 525 
L 3025 525 
L 3025 1075 
L 1700 1075 
L 1700 925 
L 1350 800 
Q 1375 1300 1375 1787 
Q 1375 2275 1350 2750 
L 1700 2550 
L 4600 2550 
L 4750 2750 
L 5125 2475 
L 4950 2325 
z
M 1775 4800 
L 1775 4375 
L 4550 4375 
L 4550 4800 
L 1775 4800 
z
M 1775 4225 
L 1775 3775 
L 4550 3775 
L 4550 4225 
L 1775 4225 
z
M 4875 4750 
Q 4875 3825 4900 3525 
L 4550 3375 
L 4550 3625 
L 1775 3625 
L 1775 3400 
L 1425 3250 
Q 1450 3650 1450 4262 
Q 1450 4875 1425 5125 
L 1800 4950 
L 4500 4950 
L 4650 5175 
L 5050 4900 
L 4875 4750 
z
M 250 3125 
L 5375 3125 
L 5725 3450 
L 6150 2975 
L 950 2975 
Q 750 2975 475 2900 
L 250 3125 
z
" transform="scale(0.015625)"/>
      <path id="SimSun-968f" d="M 2175 4225 
L 2250 4275 
Q 2800 3825 2850 3625 
Q 2900 3425 2775 3300 
Q 2650 3175 2600 3175 
Q 2500 3175 2475 3425 
Q 2425 3800 2175 4225 
z
M 6050 0 
L 6050 -100 
Q 5650 -175 5625 -475 
Q 4975 -450 4487 -425 
Q 4000 -400 3650 -262 
Q 3300 -125 3050 150 
Q 2875 300 2750 300 
Q 2650 300 2487 162 
Q 2325 25 2125 -375 
L 1750 -100 
Q 2100 175 2575 450 
L 2575 2300 
Q 2525 2300 2250 2225 
L 2025 2450 
L 2550 2450 
L 2700 2650 
L 3075 2375 
L 2875 2225 
L 2875 475 
Q 3325 75 3762 0 
Q 4200 -75 4725 -62 
Q 5250 -50 6050 0 
z
M 600 4900 
L 950 4675 
L 1700 4675 
L 1900 4900 
L 2300 4625 
L 2075 4450 
L 1475 3000 
Q 1650 2775 1900 2475 
Q 2125 2175 2162 1975 
Q 2200 1775 2200 1650 
Q 2200 1400 2075 1150 
Q 1950 900 1400 800 
Q 1400 1075 950 1250 
L 950 -475 
L 600 -650 
Q 625 0 625 2175 
Q 625 4350 600 4900 
z
M 1300 3000 
L 1725 4525 
L 950 4525 
L 950 1350 
Q 1275 1275 1425 1275 
Q 1600 1275 1725 1350 
Q 1850 1425 1850 1675 
Q 1850 1825 1812 2100 
Q 1775 2375 1300 3000 
z
M 3900 3250 
L 3900 2600 
L 5150 2600 
L 5150 3250 
L 3900 3250 
z
M 3575 250 
Q 3600 725 3600 3200 
Q 3350 2875 3000 2625 
L 2950 2675 
Q 3525 3325 3850 4175 
L 3600 4175 
Q 3275 4175 3000 4100 
L 2775 4325 
L 3900 4325 
Q 4100 4925 4100 5150 
L 4600 4900 
Q 4425 4800 4225 4325 
L 5325 4325 
L 5625 4625 
L 6025 4175 
L 4175 4175 
Q 4025 3825 3825 3475 
L 3925 3400 
L 5100 3400 
L 5250 3625 
L 5650 3350 
L 5475 3200 
L 5475 875 
Q 5525 425 5025 275 
Q 5025 550 4525 650 
L 4525 750 
Q 4950 725 5050 725 
Q 5150 725 5150 900 
L 5150 1650 
L 3900 1650 
L 3900 400 
L 3575 250 
z
M 3900 2450 
L 3900 1800 
L 5150 1800 
L 5150 2450 
L 3900 2450 
z
" transform="scale(0.015625)"/>
      <path id="SimSun-673a" d="M 3400 4425 
L 3400 2250 
Q 3400 400 2000 -575 
L 1925 -500 
Q 3050 525 3050 2250 
L 3050 3450 
Q 3050 4125 3025 4825 
L 3400 4575 
L 4550 4575 
L 4775 4825 
L 5175 4475 
L 4925 4325 
L 4925 250 
Q 4925 0 5175 0 
L 5475 0 
Q 5600 0 5650 200 
Q 5700 400 5725 1100 
L 5850 1100 
Q 5850 550 5900 362 
Q 5950 175 6150 75 
Q 6000 -225 5837 -262 
Q 5675 -300 5525 -300 
L 5000 -300 
Q 4575 -300 4575 100 
L 4575 4425 
L 3400 4425 
z
M 1725 2700 
Q 1725 50 1750 -500 
L 1350 -675 
Q 1375 425 1375 2375 
Q 1000 1325 275 525 
L 225 600 
Q 975 1775 1350 3500 
L 750 3500 
L 525 3450 
L 325 3650 
L 1375 3650 
Q 1375 4525 1350 5275 
L 1900 5050 
L 1725 4875 
L 1725 3650 
L 2075 3650 
L 2350 3925 
L 2775 3500 
L 1725 3500 
L 1725 2825 
Q 2325 2600 2512 2475 
Q 2700 2350 2700 2150 
Q 2700 2025 2662 1900 
Q 2625 1775 2600 1775 
Q 2525 1775 2375 2025 
Q 2150 2375 1725 2700 
z
" transform="scale(0.015625)"/>
      <path id="SimSun-68af" d="M 4225 3900 
L 4225 3025 
L 5200 3025 
L 5200 3900 
L 4225 3900 
z
M 2950 2900 
L 2900 2000 
L 3900 2000 
L 3900 2900 
L 2950 2900 
z
M 2925 5125 
Q 3275 4950 3475 4800 
Q 3675 4650 3675 4500 
Q 3675 4400 3587 4250 
Q 3500 4100 3450 4100 
Q 3400 4100 3325 4325 
Q 3225 4650 2875 5050 
L 2925 5125 
z
M 5525 3825 
Q 5525 2975 5550 2825 
L 5200 2650 
L 5200 2875 
L 4225 2875 
L 4225 2000 
L 5500 2000 
L 5675 2225 
L 6050 1925 
L 5850 1775 
Q 5800 900 5750 687 
Q 5700 475 5600 350 
Q 5500 225 5200 125 
Q 5200 425 4625 575 
L 4625 675 
Q 5000 625 5187 612 
Q 5375 600 5425 775 
Q 5475 950 5525 1850 
L 4225 1850 
L 4225 850 
Q 4225 250 4250 -450 
L 3875 -625 
Q 3900 775 3900 1700 
Q 3175 375 1950 -400 
L 1900 -325 
Q 2950 500 3550 1850 
L 2900 1850 
L 2700 1675 
L 2400 1975 
L 2575 2100 
Q 2625 2650 2625 3250 
L 2975 3050 
L 3900 3050 
L 3900 3900 
L 2950 3900 
L 2725 3850 
L 2525 4050 
L 4200 4050 
Q 4550 4700 4700 5250 
L 5200 4900 
L 4975 4825 
Q 4675 4425 4350 4050 
L 5150 4050 
L 5350 4275 
L 5725 3975 
L 5525 3825 
z
M 1625 775 
Q 1625 425 1650 -450 
L 1250 -625 
Q 1275 850 1275 2400 
Q 925 1500 300 825 
L 225 875 
Q 975 2100 1250 3575 
L 675 3575 
L 450 3525 
L 250 3725 
L 1275 3725 
Q 1275 4375 1250 5250 
L 1875 4925 
L 1625 4775 
L 1625 3725 
L 1875 3725 
L 2150 4000 
L 2575 3575 
L 1625 3575 
L 1625 3100 
Q 2100 2875 2212 2737 
Q 2325 2600 2325 2500 
Q 2325 2375 2262 2250 
Q 2200 2125 2150 2125 
Q 2075 2125 2000 2350 
Q 1875 2675 1625 2975 
L 1625 775 
z
" transform="scale(0.015625)"/>
      <path id="SimSun-5ea6" d="M 2550 2025 
Q 2575 2525 2575 3175 
L 1925 3175 
L 1625 3125 
L 1425 3325 
L 2575 3325 
Q 2575 3700 2550 4150 
L 3100 3875 
L 2900 3750 
L 2900 3325 
L 4300 3325 
Q 4300 3750 4275 4125 
L 4850 3875 
L 4625 3725 
L 4625 3325 
L 5100 3325 
L 5425 3650 
L 5900 3175 
L 4625 3175 
Q 4625 2450 4650 2225 
L 4300 2075 
L 4300 2300 
L 2900 2300 
L 2900 2175 
L 2550 2025 
z
M 4875 1500 
Q 4300 775 3900 425 
Q 4700 -75 6025 -125 
L 6025 -225 
Q 5625 -300 5550 -550 
Q 4375 -325 3675 225 
Q 2475 -450 1075 -625 
L 1050 -525 
Q 2375 -275 3450 450 
Q 2975 925 2575 1625 
L 2325 1625 
L 2100 1575 
L 1900 1775 
L 4525 1775 
L 4750 2000 
L 5125 1625 
L 4875 1500 
z
M 2700 1625 
Q 3175 975 3650 625 
Q 4150 1100 4500 1625 
L 2700 1625 
z
M 2900 3175 
L 2900 2450 
L 4300 2450 
L 4300 3175 
L 2900 3175 
z
M 975 4650 
L 1400 4400 
L 3375 4400 
Q 3350 4550 3262 4725 
Q 3175 4900 2900 5225 
L 2975 5275 
Q 3550 5025 3637 4887 
Q 3725 4750 3725 4725 
Q 3725 4575 3525 4400 
L 5150 4400 
L 5500 4750 
L 6000 4250 
L 1375 4250 
Q 1400 2750 1287 1912 
Q 1175 1075 925 475 
Q 675 -125 300 -625 
L 225 -575 
Q 725 300 862 1250 
Q 1000 2200 1012 3187 
Q 1025 4175 975 4650 
z
" transform="scale(0.015625)"/>
      <path id="SimSun-4e0b" d="M 450 4575 
L 5075 4575 
L 5450 4950 
L 5975 4425 
L 3250 4425 
L 3250 3125 
Q 4750 2675 4987 2412 
Q 5225 2150 5225 1950 
Q 5225 1875 5162 1737 
Q 5100 1600 5050 1600 
Q 4950 1600 4700 1925 
Q 4350 2400 3250 3000 
L 3250 450 
Q 3250 -75 3275 -425 
L 2850 -600 
Q 2875 325 2875 675 
L 2875 4425 
L 1275 4425 
Q 950 4425 675 4350 
L 450 4575 
z
" transform="scale(0.015625)"/>
      <path id="SimSun-964d" d="M 3650 4500 
Q 3600 4425 3550 4325 
Q 3850 3825 4200 3500 
Q 4600 3925 5000 4500 
L 3650 4500 
z
M 4000 5000 
L 3800 4875 
L 3700 4650 
L 5000 4650 
L 5225 4875 
L 5575 4525 
L 5350 4400 
Q 4825 3725 4400 3325 
Q 5000 2825 6075 2750 
L 6075 2675 
Q 5775 2650 5650 2375 
Q 4800 2650 4225 3125 
Q 3475 2525 2550 2225 
L 2500 2325 
Q 3300 2675 4025 3325 
Q 3700 3700 3475 4225 
Q 3100 3625 2550 3200 
L 2500 3275 
Q 2950 3775 3200 4337 
Q 3450 4900 3500 5250 
L 4000 5000 
z
M 4450 700 
Q 4450 -275 4475 -500 
L 4100 -625 
Q 4125 -200 4125 700 
L 2925 700 
L 2775 525 
L 2450 825 
L 2650 950 
Q 2925 1525 2950 1725 
L 3375 1425 
L 3200 1325 
Q 3125 1200 2950 850 
L 4125 850 
L 4125 1875 
L 3575 1875 
Q 3250 1875 2975 1800 
L 2750 2025 
L 4125 2025 
Q 4125 2500 4100 2750 
L 4650 2500 
L 4450 2325 
L 4450 2025 
L 5075 2025 
L 5350 2300 
L 5750 1875 
L 4450 1875 
L 4450 850 
L 5400 850 
L 5675 1125 
L 6075 700 
L 4450 700 
z
M 1100 1325 
Q 1100 125 1125 -475 
L 750 -650 
Q 775 525 775 2325 
Q 775 4125 750 5025 
L 1100 4800 
L 2000 4800 
L 2225 5025 
L 2575 4675 
L 2375 4550 
L 1675 3175 
Q 2050 2825 2275 2512 
Q 2500 2200 2512 1875 
Q 2525 1550 2387 1287 
Q 2250 1025 1750 800 
Q 1625 1100 1100 1325 
z
M 2000 4650 
L 1100 4650 
L 1100 1450 
Q 1475 1325 1750 1325 
Q 1950 1325 2050 1450 
Q 2150 1575 2150 1800 
Q 2150 1975 2112 2250 
Q 2075 2525 1550 3175 
L 2000 4650 
z
" transform="scale(0.015625)"/>
      <path id="SimSun-7b97" d="M 2675 1525 
Q 2650 1125 2600 750 
L 3825 750 
L 3825 1525 
L 2675 1525 
z
M 4900 2075 
Q 4900 1875 4925 1425 
L 4550 1275 
L 4550 1525 
L 4175 1525 
L 4175 775 
L 5300 775 
L 5650 1100 
L 6100 625 
L 4175 625 
Q 4175 -225 4200 -475 
L 3800 -650 
Q 3825 100 3825 600 
L 2575 600 
Q 2400 50 1837 -250 
Q 1275 -550 625 -650 
L 600 -575 
Q 1325 -325 1687 -62 
Q 2050 200 2200 600 
L 1125 600 
Q 800 600 525 525 
L 300 750 
L 2225 750 
Q 2275 1100 2300 1525 
L 1850 1525 
L 1850 1325 
L 1500 1200 
Q 1525 1975 1512 2787 
Q 1500 3600 1475 3775 
L 1850 3575 
L 4525 3575 
L 4675 3800 
L 5075 3525 
L 4900 3375 
L 4900 2075 
z
M 1850 3425 
L 1850 2975 
L 4550 2975 
L 4550 3425 
L 1850 3425 
z
M 1850 2825 
L 1850 2350 
L 4550 2350 
L 4550 2825 
L 1850 2825 
z
M 1850 2200 
L 1850 1675 
L 4550 1675 
L 4550 2200 
L 1850 2200 
z
M 1575 5275 
L 2075 5000 
Q 1925 4925 1837 4825 
Q 1750 4725 1600 4500 
L 2700 4500 
L 3000 4800 
L 3400 4350 
L 2125 4350 
Q 2650 4075 2587 3887 
Q 2525 3700 2462 3662 
Q 2400 3625 2350 3625 
Q 2275 3625 2250 3712 
Q 2225 3800 2200 3975 
Q 2150 4125 1950 4350 
L 1525 4350 
Q 1275 3975 1050 3725 
Q 825 3475 475 3225 
L 425 3300 
Q 650 3525 950 3950 
Q 1250 4375 1575 5275 
z
M 4000 5250 
L 4450 4950 
Q 4325 4925 4200 4775 
Q 4075 4625 3975 4475 
L 5325 4475 
L 5625 4750 
L 6000 4325 
L 4675 4325 
Q 5300 4125 5300 3937 
Q 5300 3750 5212 3675 
Q 5125 3600 5100 3600 
Q 5050 3600 4987 3712 
Q 4925 3825 4850 3962 
Q 4775 4100 4500 4325 
L 3900 4325 
Q 3725 4150 3575 3975 
Q 3400 3775 3225 3625 
L 3150 3675 
Q 3450 4050 3712 4562 
Q 3975 5075 4000 5250 
z
" transform="scale(0.015625)"/>
      <path id="SimSun-6cd5" d="M 3800 3850 
Q 3800 4925 3775 5275 
L 4375 4975 
L 4125 4725 
L 4125 3850 
L 5100 3850 
L 5375 4125 
L 5775 3700 
L 4125 3700 
L 4125 2350 
L 5450 2350 
L 5750 2650 
L 6175 2200 
L 3825 2200 
L 4225 1925 
Q 4000 1825 3750 1450 
Q 3500 1075 2600 125 
L 5225 300 
Q 4900 750 4525 1175 
L 4575 1250 
Q 5025 925 5287 725 
Q 5550 525 5712 337 
Q 5875 150 5875 0 
Q 5875 -150 5775 -300 
Q 5675 -450 5650 -450 
Q 5575 -450 5525 -300 
Q 5425 -50 5300 175 
Q 3900 25 3175 -150 
Q 2450 -325 2350 -450 
L 2100 125 
Q 2425 125 2962 875 
Q 3500 1625 3700 2200 
L 2775 2200 
Q 2450 2200 2175 2125 
L 1950 2350 
L 3800 2350 
L 3800 3700 
L 3250 3700 
Q 2925 3700 2650 3625 
L 2425 3850 
L 3800 3850 
z
M 2375 4150 
Q 1400 1500 1312 1187 
Q 1225 875 1237 425 
Q 1250 -25 1275 -200 
Q 1275 -300 1150 -300 
Q 1050 -300 900 -250 
Q 750 -200 750 -25 
Q 750 100 825 350 
Q 900 600 900 750 
Q 900 925 787 1025 
Q 675 1125 300 1225 
L 300 1325 
Q 750 1275 862 1287 
Q 975 1300 1112 1512 
Q 1250 1725 2275 4175 
L 2375 4150 
z
M 325 3600 
Q 1200 3150 1200 2862 
Q 1200 2575 1062 2475 
Q 925 2375 825 2725 
Q 700 3050 275 3525 
L 325 3600 
z
M 900 5050 
Q 1600 4700 1662 4525 
Q 1725 4350 1725 4275 
Q 1725 4150 1637 4050 
Q 1550 3950 1500 3950 
Q 1425 3950 1350 4200 
Q 1225 4525 850 4975 
L 900 5050 
z
" transform="scale(0.015625)"/>
     </defs>
     <use xlink:href="#SimSun-5c0f"/>
     <use xlink:href="#SimSun-6279" x="100"/>
     <use xlink:href="#SimSun-91cf" x="200"/>
     <use xlink:href="#SimSun-968f" x="300"/>
     <use xlink:href="#SimSun-673a" x="400"/>
     <use xlink:href="#SimSun-68af" x="500"/>
     <use xlink:href="#SimSun-5ea6" x="600"/>
     <use xlink:href="#SimSun-4e0b" x="700"/>
     <use xlink:href="#SimSun-964d" x="800"/>
     <use xlink:href="#SimSun-7b97" x="900"/>
     <use xlink:href="#SimSun-6cd5" x="1000"/>
    </g>
   </g>
   <g id="line2d_17">
    <path d="M 383.4 41.2125 
L 393.4 41.2125 
L 403.4 41.2125 
" style="fill: none; stroke: #2ca02c; stroke-width: 1.5; stroke-linecap: square"/>
   </g>
   <g id="text_14">
    <!-- 真实 -->
    <g transform="translate(411.4 44.7125) scale(0.1 -0.1)">
     <defs>
      <path id="SimSun-771f" d="M 2050 3450 
L 2050 2900 
L 4300 2900 
L 4300 3450 
L 2050 3450 
z
M 2050 2750 
L 2050 2225 
L 4300 2225 
L 4300 2750 
L 2050 2750 
z
M 2050 2075 
L 2050 1550 
L 4300 1550 
L 4300 2075 
L 2050 2075 
z
M 2050 1400 
L 2050 875 
L 4300 875 
L 4300 1400 
L 2050 1400 
z
M 2875 3600 
L 2925 4325 
L 1525 4325 
Q 1200 4325 925 4250 
L 700 4475 
L 2950 4475 
Q 2975 4825 2975 5275 
L 3550 5025 
L 3375 4925 
L 3300 4475 
L 5000 4475 
L 5325 4825 
L 5775 4325 
L 3275 4325 
L 3200 3600 
L 4275 3600 
L 4450 3875 
L 4850 3575 
L 4650 3375 
L 4650 875 
L 5300 875 
L 5675 1225 
L 6125 725 
L 1150 725 
Q 825 725 550 650 
L 325 875 
L 1700 875 
Q 1700 3200 1675 3775 
L 2050 3600 
L 2875 3600 
z
M 2425 725 
L 2825 350 
L 2575 300 
Q 1500 -425 800 -650 
L 775 -575 
Q 1950 125 2425 725 
z
M 3800 700 
Q 4575 375 4962 200 
Q 5350 25 5400 -112 
Q 5450 -250 5450 -325 
Q 5450 -400 5400 -525 
Q 5350 -650 5325 -650 
Q 5250 -650 5100 -450 
Q 4875 -150 3750 625 
L 3800 700 
z
" transform="scale(0.015625)"/>
      <path id="SimSun-5b9e" d="M 1950 3625 
Q 2575 3400 2700 3250 
Q 2825 3100 2825 2975 
Q 2825 2850 2750 2700 
Q 2675 2550 2625 2550 
Q 2550 2550 2450 2800 
Q 2275 3175 1900 3550 
L 1950 3625 
z
M 3575 1325 
Q 3500 1100 3425 925 
Q 4650 550 5087 325 
Q 5525 100 5512 -225 
Q 5500 -550 5400 -550 
Q 5300 -550 5075 -300 
Q 4625 175 3375 800 
Q 3025 175 2300 -150 
Q 1575 -475 425 -625 
L 425 -525 
Q 1475 -325 2200 100 
Q 2925 525 3200 1325 
L 1225 1325 
Q 900 1325 625 1250 
L 400 1475 
L 3225 1475 
Q 3325 1950 3375 2575 
Q 3425 3200 3425 3700 
L 4050 3400 
L 3850 3225 
Q 3750 2300 3625 1475 
L 5175 1475 
L 5550 1850 
L 6075 1325 
L 3575 1325 
z
M 1275 2700 
Q 1975 2425 2100 2262 
Q 2225 2100 2225 1975 
Q 2225 1850 2150 1700 
Q 2075 1550 2025 1550 
Q 1950 1550 1850 1800 
Q 1675 2175 1225 2625 
L 1275 2700 
z
M 2750 5225 
L 2825 5275 
Q 3225 5100 3425 4925 
Q 3625 4750 3625 4600 
Q 3625 4450 3512 4300 
Q 3400 4150 3325 4150 
Q 3250 4150 3200 4400 
Q 3100 4775 2750 5225 
z
M 4975 3225 
L 5350 3925 
L 1175 3925 
Q 1225 3525 1125 3300 
Q 1025 3075 787 3100 
Q 550 3125 550 3200 
Q 550 3300 700 3475 
Q 975 3825 1050 4375 
L 1150 4375 
L 1175 4075 
L 5300 4075 
L 5575 4350 
L 6050 3800 
Q 5625 3825 5050 3175 
L 4975 3225 
z
" transform="scale(0.015625)"/>
     </defs>
     <use xlink:href="#SimSun-771f"/>
     <use xlink:href="#SimSun-5b9e" x="100"/>
    </g>
   </g>
   <g id="PathCollection_2">
    <g>
     <use xlink:href="#m68e9810e95" x="393.4" y="56.345312" style="stroke: #000000"/>
    </g>
   </g>
   <g id="text_15">
    <!-- 样本点 -->
    <g transform="translate(411.4 58.970312) scale(0.1 -0.1)">
     <defs>
      <path id="SimSun-6837" d="M 2800 5025 
L 2850 5100 
Q 3625 4675 3700 4512 
Q 3775 4350 3775 4300 
Q 3775 4175 3675 4037 
Q 3575 3900 3550 3900 
Q 3450 3900 3375 4125 
Q 3250 4475 2800 5025 
z
M 4275 1325 
Q 4275 75 4300 -475 
L 3900 -625 
Q 3925 275 3925 1325 
L 3075 1325 
Q 2750 1325 2475 1250 
L 2250 1475 
L 3925 1475 
L 3925 2525 
L 3500 2525 
Q 3175 2525 2900 2450 
L 2675 2675 
L 3925 2675 
L 3925 3600 
L 3475 3600 
Q 3150 3600 2875 3525 
L 2650 3750 
L 4275 3750 
Q 4725 4600 4875 5250 
L 5400 4900 
Q 5150 4775 4900 4425 
Q 4650 4075 4425 3750 
L 5150 3750 
L 5450 4050 
L 5900 3600 
L 4275 3600 
L 4275 2675 
L 4975 2675 
L 5275 2975 
L 5725 2525 
L 4275 2525 
L 4275 1475 
L 5275 1475 
L 5600 1800 
L 6075 1325 
L 4275 1325 
z
M 1650 750 
Q 1650 400 1675 -500 
L 1275 -650 
Q 1300 825 1300 2375 
Q 875 1375 300 725 
L 225 775 
Q 925 1875 1300 3600 
L 1125 3600 
Q 800 3600 525 3525 
L 300 3750 
L 1300 3750 
Q 1300 4375 1275 5250 
L 1850 4950 
L 1650 4775 
L 1650 3750 
L 1975 3750 
L 2250 4025 
L 2675 3600 
L 1650 3600 
L 1650 2925 
Q 2125 2700 2300 2550 
Q 2475 2400 2475 2250 
Q 2475 2150 2412 2000 
Q 2350 1850 2300 1850 
Q 2225 1850 2125 2075 
Q 1950 2450 1650 2775 
L 1650 750 
z
" transform="scale(0.015625)"/>
      <path id="SimSun-672c" d="M 3400 850 
Q 3400 -50 3425 -525 
L 3000 -675 
Q 3025 425 3025 850 
L 1975 850 
L 1750 800 
L 1550 1000 
L 3025 1000 
L 3025 3200 
Q 2075 1250 300 325 
L 275 425 
Q 1925 1550 2800 3625 
L 1325 3625 
Q 1000 3625 725 3550 
L 500 3775 
L 3025 3775 
Q 3025 4450 3000 5250 
L 3650 4950 
L 3400 4750 
L 3400 3775 
L 5100 3775 
L 5450 4125 
L 5950 3625 
L 3650 3625 
Q 4475 1550 6100 1025 
L 6100 925 
Q 5625 900 5550 625 
Q 4200 1500 3525 3625 
L 3400 3625 
L 3400 1000 
L 4150 1000 
L 4450 1300 
L 4900 850 
L 3400 850 
z
" transform="scale(0.015625)"/>
      <path id="SimSun-70b9" d="M 1875 2900 
L 1875 1525 
L 4625 1525 
L 4625 2900 
L 1875 2900 
z
M 1475 925 
Q 1500 1450 1500 2050 
Q 1500 2650 1475 3250 
L 1875 3050 
L 2950 3050 
Q 2950 4725 2925 5225 
L 3500 5000 
L 3300 4800 
L 3300 4200 
L 4925 4200 
L 5250 4525 
L 5700 4050 
L 3300 4050 
L 3300 3050 
L 4575 3050 
L 4825 3300 
L 5200 2925 
L 4975 2750 
Q 4975 1575 5000 1150 
L 4625 1000 
L 4625 1375 
L 1875 1375 
L 1875 1075 
L 1475 925 
z
M 1350 800 
L 1450 800 
Q 1300 -175 1137 -337 
Q 975 -500 850 -500 
Q 775 -500 675 -437 
Q 575 -375 575 -300 
Q 575 -225 700 -125 
Q 925 50 1037 200 
Q 1150 350 1350 800 
z
M 2225 675 
L 2275 750 
Q 2800 350 2862 187 
Q 2925 25 2925 -50 
Q 2925 -225 2812 -337 
Q 2700 -450 2675 -450 
Q 2575 -450 2550 -200 
Q 2500 175 2225 675 
z
M 3550 700 
L 3600 775 
Q 4075 425 4187 225 
Q 4300 25 4300 -50 
Q 4300 -175 4187 -300 
Q 4075 -425 4050 -425 
Q 3950 -425 3900 -125 
Q 3825 300 3550 700 
z
M 4900 775 
L 4950 850 
Q 5450 500 5637 250 
Q 5825 0 5825 -125 
Q 5825 -250 5725 -375 
Q 5625 -500 5600 -500 
Q 5500 -500 5425 -200 
Q 5300 225 4900 775 
z
" transform="scale(0.015625)"/>
     </defs>
     <use xlink:href="#SimSun-6837"/>
     <use xlink:href="#SimSun-672c" x="100"/>
     <use xlink:href="#SimSun-70b9" x="200"/>
    </g>
   </g>
  </g>
 </g>
 <defs>
  <clipPath id="p3d85dd2026">
   <rect x="24.2" y="54.04" width="446.4" height="332.64"/>
  </clipPath>
 </defs>
</svg>
