<?xml version="1.0" encoding="utf-8" standalone="no"?>
<!DOCTYPE svg PUBLIC "-//W3C//DTD SVG 1.1//EN"
  "http://www.w3.org/Graphics/SVG/1.1/DTD/svg11.dtd">
<svg xmlns:xlink="http://www.w3.org/1999/xlink" width="931.7pt" height="379.013437pt" viewBox="0 0 931.7 379.013437" xmlns="http://www.w3.org/2000/svg" version="1.1">
 <metadata>
  <rdf:RDF xmlns:dc="http://purl.org/dc/elements/1.1/" xmlns:cc="http://creativecommons.org/ns#" xmlns:rdf="http://www.w3.org/1999/02/22-rdf-syntax-ns#">
   <cc:Work>
    <dc:type rdf:resource="http://purl.org/dc/dcmitype/StillImage"/>
    <dc:date>2025-02-25T14:48:07.894006</dc:date>
    <dc:format>image/svg+xml</dc:format>
    <dc:creator>
     <cc:Agent>
      <dc:title>Matplotlib v3.7.2, https://matplotlib.org/</dc:title>
     </cc:Agent>
    </dc:creator>
   </cc:Work>
  </rdf:RDF>
 </metadata>
 <defs>
  <style type="text/css">*{stroke-linejoin: round; stroke-linecap: butt}</style>
 </defs>
 <g id="figure_1">
  <g id="patch_1">
   <path d="M 0 379.013437 
L 931.7 379.013437 
L 931.7 0 
L 0 0 
z
" style="fill: #ffffff"/>
  </g>
  <g id="axes_1">
   <g id="patch_2">
    <path d="M 31.7 355.730625 
L 437.518182 355.730625 
L 437.518182 23.090625 
L 31.7 23.090625 
z
" style="fill: #ffffff"/>
   </g>
   <g id="matplotlib.axis_1">
    <g id="xtick_1">
     <g id="line2d_1">
      <defs>
       <path id="m5a3085b730" d="M 0 0 
L 0 3.5 
" style="stroke: #000000; stroke-width: 0.8"/>
      </defs>
      <g>
       <use xlink:href="#m5a3085b730" x="50.146281" y="355.730625" style="stroke: #000000; stroke-width: 0.8"/>
      </g>
     </g>
     <g id="text_1">
      <!-- -10.0 -->
      <g transform="translate(39.731437 369.674375) scale(0.1 -0.1)">
       <defs>
        <path id="TimesNewRomanPSMT-2d" d="M 259 1672 
L 1875 1672 
L 1875 1200 
L 259 1200 
L 259 1672 
z
" transform="scale(0.015625)"/>
        <path id="TimesNewRomanPSMT-31" d="M 750 3822 
L 1781 4325 
L 1884 4325 
L 1884 747 
Q 1884 391 1914 303 
Q 1944 216 2037 169 
Q 2131 122 2419 116 
L 2419 0 
L 825 0 
L 825 116 
Q 1125 122 1212 167 
Q 1300 213 1334 289 
Q 1369 366 1369 747 
L 1369 3034 
Q 1369 3497 1338 3628 
Q 1316 3728 1258 3775 
Q 1200 3822 1119 3822 
Q 1003 3822 797 3725 
L 750 3822 
z
" transform="scale(0.015625)"/>
        <path id="TimesNewRomanPSMT-30" d="M 231 2094 
Q 231 2819 450 3342 
Q 669 3866 1031 4122 
Q 1313 4325 1613 4325 
Q 2100 4325 2488 3828 
Q 2972 3213 2972 2159 
Q 2972 1422 2759 906 
Q 2547 391 2217 158 
Q 1888 -75 1581 -75 
Q 975 -75 572 641 
Q 231 1244 231 2094 
z
M 844 2016 
Q 844 1141 1059 588 
Q 1238 122 1591 122 
Q 1759 122 1940 273 
Q 2122 425 2216 781 
Q 2359 1319 2359 2297 
Q 2359 3022 2209 3506 
Q 2097 3866 1919 4016 
Q 1791 4119 1609 4119 
Q 1397 4119 1231 3928 
Q 1006 3669 925 3112 
Q 844 2556 844 2016 
z
" transform="scale(0.015625)"/>
        <path id="TimesNewRomanPSMT-2e" d="M 800 606 
Q 947 606 1047 504 
Q 1147 403 1147 259 
Q 1147 116 1045 14 
Q 944 -88 800 -88 
Q 656 -88 554 14 
Q 453 116 453 259 
Q 453 406 554 506 
Q 656 606 800 606 
z
" transform="scale(0.015625)"/>
       </defs>
       <use xlink:href="#TimesNewRomanPSMT-2d"/>
       <use xlink:href="#TimesNewRomanPSMT-31" x="33.300781"/>
       <use xlink:href="#TimesNewRomanPSMT-30" x="83.300781"/>
       <use xlink:href="#TimesNewRomanPSMT-2e" x="133.300781"/>
       <use xlink:href="#TimesNewRomanPSMT-30" x="158.300781"/>
      </g>
     </g>
    </g>
    <g id="xtick_2">
     <g id="line2d_2">
      <g>
       <use xlink:href="#m5a3085b730" x="96.261983" y="355.730625" style="stroke: #000000; stroke-width: 0.8"/>
      </g>
     </g>
     <g id="text_2">
      <!-- -7.5 -->
      <g transform="translate(88.34714 369.674375) scale(0.1 -0.1)">
       <defs>
        <path id="TimesNewRomanPSMT-37" d="M 644 4238 
L 2916 4238 
L 2916 4119 
L 1503 -88 
L 1153 -88 
L 2419 3728 
L 1253 3728 
Q 900 3728 750 3644 
Q 488 3500 328 3200 
L 238 3234 
L 644 4238 
z
" transform="scale(0.015625)"/>
        <path id="TimesNewRomanPSMT-35" d="M 2778 4238 
L 2534 3706 
L 1259 3706 
L 981 3138 
Q 1809 3016 2294 2522 
Q 2709 2097 2709 1522 
Q 2709 1188 2573 903 
Q 2438 619 2231 419 
Q 2025 219 1772 97 
Q 1413 -75 1034 -75 
Q 653 -75 479 54 
Q 306 184 306 341 
Q 306 428 378 495 
Q 450 563 559 563 
Q 641 563 702 538 
Q 763 513 909 409 
Q 1144 247 1384 247 
Q 1750 247 2026 523 
Q 2303 800 2303 1197 
Q 2303 1581 2056 1914 
Q 1809 2247 1375 2428 
Q 1034 2569 447 2591 
L 1259 4238 
L 2778 4238 
z
" transform="scale(0.015625)"/>
       </defs>
       <use xlink:href="#TimesNewRomanPSMT-2d"/>
       <use xlink:href="#TimesNewRomanPSMT-37" x="33.300781"/>
       <use xlink:href="#TimesNewRomanPSMT-2e" x="83.300781"/>
       <use xlink:href="#TimesNewRomanPSMT-35" x="108.300781"/>
      </g>
     </g>
    </g>
    <g id="xtick_3">
     <g id="line2d_3">
      <g>
       <use xlink:href="#m5a3085b730" x="142.377686" y="355.730625" style="stroke: #000000; stroke-width: 0.8"/>
      </g>
     </g>
     <g id="text_3">
      <!-- -5.0 -->
      <g transform="translate(134.462842 369.674375) scale(0.1 -0.1)">
       <use xlink:href="#TimesNewRomanPSMT-2d"/>
       <use xlink:href="#TimesNewRomanPSMT-35" x="33.300781"/>
       <use xlink:href="#TimesNewRomanPSMT-2e" x="83.300781"/>
       <use xlink:href="#TimesNewRomanPSMT-30" x="108.300781"/>
      </g>
     </g>
    </g>
    <g id="xtick_4">
     <g id="line2d_4">
      <g>
       <use xlink:href="#m5a3085b730" x="188.493388" y="355.730625" style="stroke: #000000; stroke-width: 0.8"/>
      </g>
     </g>
     <g id="text_4">
      <!-- -2.5 -->
      <g transform="translate(180.578545 369.674375) scale(0.1 -0.1)">
       <defs>
        <path id="TimesNewRomanPSMT-32" d="M 2934 816 
L 2638 0 
L 138 0 
L 138 116 
Q 1241 1122 1691 1759 
Q 2141 2397 2141 2925 
Q 2141 3328 1894 3587 
Q 1647 3847 1303 3847 
Q 991 3847 742 3664 
Q 494 3481 375 3128 
L 259 3128 
Q 338 3706 661 4015 
Q 984 4325 1469 4325 
Q 1984 4325 2329 3994 
Q 2675 3663 2675 3213 
Q 2675 2891 2525 2569 
Q 2294 2063 1775 1497 
Q 997 647 803 472 
L 1909 472 
Q 2247 472 2383 497 
Q 2519 522 2628 598 
Q 2738 675 2819 816 
L 2934 816 
z
" transform="scale(0.015625)"/>
       </defs>
       <use xlink:href="#TimesNewRomanPSMT-2d"/>
       <use xlink:href="#TimesNewRomanPSMT-32" x="33.300781"/>
       <use xlink:href="#TimesNewRomanPSMT-2e" x="83.300781"/>
       <use xlink:href="#TimesNewRomanPSMT-35" x="108.300781"/>
      </g>
     </g>
    </g>
    <g id="xtick_5">
     <g id="line2d_5">
      <g>
       <use xlink:href="#m5a3085b730" x="234.609091" y="355.730625" style="stroke: #000000; stroke-width: 0.8"/>
      </g>
     </g>
     <g id="text_5">
      <!-- 0.0 -->
      <g transform="translate(228.359091 369.674375) scale(0.1 -0.1)">
       <use xlink:href="#TimesNewRomanPSMT-30"/>
       <use xlink:href="#TimesNewRomanPSMT-2e" x="50"/>
       <use xlink:href="#TimesNewRomanPSMT-30" x="75"/>
      </g>
     </g>
    </g>
    <g id="xtick_6">
     <g id="line2d_6">
      <g>
       <use xlink:href="#m5a3085b730" x="280.724793" y="355.730625" style="stroke: #000000; stroke-width: 0.8"/>
      </g>
     </g>
     <g id="text_6">
      <!-- 2.5 -->
      <g transform="translate(274.474793 369.674375) scale(0.1 -0.1)">
       <use xlink:href="#TimesNewRomanPSMT-32"/>
       <use xlink:href="#TimesNewRomanPSMT-2e" x="50"/>
       <use xlink:href="#TimesNewRomanPSMT-35" x="75"/>
      </g>
     </g>
    </g>
    <g id="xtick_7">
     <g id="line2d_7">
      <g>
       <use xlink:href="#m5a3085b730" x="326.840496" y="355.730625" style="stroke: #000000; stroke-width: 0.8"/>
      </g>
     </g>
     <g id="text_7">
      <!-- 5.0 -->
      <g transform="translate(320.590496 369.674375) scale(0.1 -0.1)">
       <use xlink:href="#TimesNewRomanPSMT-35"/>
       <use xlink:href="#TimesNewRomanPSMT-2e" x="50"/>
       <use xlink:href="#TimesNewRomanPSMT-30" x="75"/>
      </g>
     </g>
    </g>
    <g id="xtick_8">
     <g id="line2d_8">
      <g>
       <use xlink:href="#m5a3085b730" x="372.956198" y="355.730625" style="stroke: #000000; stroke-width: 0.8"/>
      </g>
     </g>
     <g id="text_8">
      <!-- 7.5 -->
      <g transform="translate(366.706198 369.674375) scale(0.1 -0.1)">
       <use xlink:href="#TimesNewRomanPSMT-37"/>
       <use xlink:href="#TimesNewRomanPSMT-2e" x="50"/>
       <use xlink:href="#TimesNewRomanPSMT-35" x="75"/>
      </g>
     </g>
    </g>
    <g id="xtick_9">
     <g id="line2d_9">
      <g>
       <use xlink:href="#m5a3085b730" x="419.071901" y="355.730625" style="stroke: #000000; stroke-width: 0.8"/>
      </g>
     </g>
     <g id="text_9">
      <!-- 10.0 -->
      <g transform="translate(410.321901 369.674375) scale(0.1 -0.1)">
       <use xlink:href="#TimesNewRomanPSMT-31"/>
       <use xlink:href="#TimesNewRomanPSMT-30" x="50"/>
       <use xlink:href="#TimesNewRomanPSMT-2e" x="100"/>
       <use xlink:href="#TimesNewRomanPSMT-30" x="125"/>
      </g>
     </g>
    </g>
   </g>
   <g id="matplotlib.axis_2">
    <g id="ytick_1">
     <g id="line2d_10">
      <defs>
       <path id="m20a30ed015" d="M 0 0 
L -3.5 0 
" style="stroke: #000000; stroke-width: 0.8"/>
      </defs>
      <g>
       <use xlink:href="#m20a30ed015" x="31.7" y="340.665547" style="stroke: #000000; stroke-width: 0.8"/>
      </g>
     </g>
     <g id="text_10">
      <!-- 0.00 -->
      <g transform="translate(7.2 344.137422) scale(0.1 -0.1)">
       <use xlink:href="#TimesNewRomanPSMT-30"/>
       <use xlink:href="#TimesNewRomanPSMT-2e" x="50"/>
       <use xlink:href="#TimesNewRomanPSMT-30" x="75"/>
       <use xlink:href="#TimesNewRomanPSMT-30" x="125"/>
      </g>
     </g>
    </g>
    <g id="ytick_2">
     <g id="line2d_11">
      <g>
       <use xlink:href="#m20a30ed015" x="31.7" y="280.173047" style="stroke: #000000; stroke-width: 0.8"/>
      </g>
     </g>
     <g id="text_11">
      <!-- 0.05 -->
      <g transform="translate(7.2 283.644922) scale(0.1 -0.1)">
       <use xlink:href="#TimesNewRomanPSMT-30"/>
       <use xlink:href="#TimesNewRomanPSMT-2e" x="50"/>
       <use xlink:href="#TimesNewRomanPSMT-30" x="75"/>
       <use xlink:href="#TimesNewRomanPSMT-35" x="125"/>
      </g>
     </g>
    </g>
    <g id="ytick_3">
     <g id="line2d_12">
      <g>
       <use xlink:href="#m20a30ed015" x="31.7" y="219.680548" style="stroke: #000000; stroke-width: 0.8"/>
      </g>
     </g>
     <g id="text_12">
      <!-- 0.10 -->
      <g transform="translate(7.2 223.152423) scale(0.1 -0.1)">
       <use xlink:href="#TimesNewRomanPSMT-30"/>
       <use xlink:href="#TimesNewRomanPSMT-2e" x="50"/>
       <use xlink:href="#TimesNewRomanPSMT-31" x="75"/>
       <use xlink:href="#TimesNewRomanPSMT-30" x="125"/>
      </g>
     </g>
    </g>
    <g id="ytick_4">
     <g id="line2d_13">
      <g>
       <use xlink:href="#m20a30ed015" x="31.7" y="159.188048" style="stroke: #000000; stroke-width: 0.8"/>
      </g>
     </g>
     <g id="text_13">
      <!-- 0.15 -->
      <g transform="translate(7.2 162.659923) scale(0.1 -0.1)">
       <use xlink:href="#TimesNewRomanPSMT-30"/>
       <use xlink:href="#TimesNewRomanPSMT-2e" x="50"/>
       <use xlink:href="#TimesNewRomanPSMT-31" x="75"/>
       <use xlink:href="#TimesNewRomanPSMT-35" x="125"/>
      </g>
     </g>
    </g>
    <g id="ytick_5">
     <g id="line2d_14">
      <g>
       <use xlink:href="#m20a30ed015" x="31.7" y="98.695548" style="stroke: #000000; stroke-width: 0.8"/>
      </g>
     </g>
     <g id="text_14">
      <!-- 0.20 -->
      <g transform="translate(7.2 102.167423) scale(0.1 -0.1)">
       <use xlink:href="#TimesNewRomanPSMT-30"/>
       <use xlink:href="#TimesNewRomanPSMT-2e" x="50"/>
       <use xlink:href="#TimesNewRomanPSMT-32" x="75"/>
       <use xlink:href="#TimesNewRomanPSMT-30" x="125"/>
      </g>
     </g>
    </g>
    <g id="ytick_6">
     <g id="line2d_15">
      <g>
       <use xlink:href="#m20a30ed015" x="31.7" y="38.203048" style="stroke: #000000; stroke-width: 0.8"/>
      </g>
     </g>
     <g id="text_15">
      <!-- 0.25 -->
      <g transform="translate(7.2 41.674923) scale(0.1 -0.1)">
       <use xlink:href="#TimesNewRomanPSMT-30"/>
       <use xlink:href="#TimesNewRomanPSMT-2e" x="50"/>
       <use xlink:href="#TimesNewRomanPSMT-32" x="75"/>
       <use xlink:href="#TimesNewRomanPSMT-35" x="125"/>
      </g>
     </g>
    </g>
   </g>
   <g id="line2d_16">
    <path d="M 50.146281 340.610625 
L 77.8434 340.419111 
L 92.984491 340.105846 
L 103.324749 339.685826 
L 111.449237 339.145021 
L 118.096545 338.487725 
L 123.635969 337.728623 
L 128.436803 336.861076 
L 132.868342 335.836232 
L 136.930586 334.658393 
L 140.623535 333.34313 
L 143.947189 331.918487 
L 146.901549 330.425059 
L 149.855908 328.681865 
L 152.440972 326.920507 
L 155.026037 324.90731 
L 157.611101 322.608499 
L 160.196166 319.986482 
L 162.78123 316.999647 
L 164.996999 314.114561 
L 167.212769 310.896636 
L 169.428538 307.312421 
L 171.644308 303.326408 
L 173.860077 298.901278 
L 176.075847 293.998274 
L 178.291616 288.577738 
L 180.507386 282.599842 
L 182.723155 276.025553 
L 184.938925 268.817865 
L 187.154694 260.943328 
L 189.739759 250.876552 
L 192.324823 239.83324 
L 194.909888 227.802068 
L 197.864247 212.862838 
L 200.818606 196.728943 
L 204.14226 177.333871 
L 208.573799 150.004061 
L 216.328993 101.806045 
L 219.283352 84.932618 
L 221.499121 73.397698 
L 223.345596 64.732288 
L 225.192071 57.084622 
L 226.66925 51.790882 
L 228.14643 47.29789 
L 229.254315 44.486624 
L 230.362199 42.175983 
L 231.470084 40.382192 
L 232.577969 39.117981 
L 233.316559 38.574004 
L 234.055149 38.271229 
L 234.793738 38.210625 
L 235.532328 38.392387 
L 236.270918 38.815933 
L 237.009508 39.479907 
L 237.748098 40.382192 
L 238.855982 42.175983 
L 239.963867 44.486624 
L 241.071752 47.29789 
L 242.548932 51.790882 
L 244.026111 57.084622 
L 245.872586 64.732288 
L 247.71906 73.397698 
L 249.93483 84.932618 
L 252.519894 99.622225 
L 256.212843 122.114279 
L 266.553101 186.099697 
L 269.876755 204.937952 
L 272.831115 220.487967 
L 275.785474 234.797799 
L 278.370538 246.264459 
L 280.955603 256.746963 
L 283.540667 266.268629 
L 286.125732 274.869214 
L 288.710796 282.599842 
L 290.926565 288.577738 
L 293.142335 293.998274 
L 295.358104 298.901278 
L 297.573874 303.326408 
L 299.789643 307.312421 
L 302.005413 310.896636 
L 304.221182 314.114561 
L 306.806247 317.450362 
L 309.391311 320.382377 
L 311.976376 322.955769 
L 314.56144 325.211568 
L 317.146504 327.186807 
L 320.100864 329.143165 
L 323.055223 330.820391 
L 326.009582 332.256994 
L 329.333237 333.627164 
L 333.026186 334.891906 
L 337.08843 336.024318 
L 341.519969 337.009493 
L 346.320803 337.843355 
L 351.860226 338.572906 
L 358.13824 339.175085 
L 365.893433 339.685826 
L 375.495101 340.083003 
L 388.420423 340.376326 
L 407.623758 340.563395 
L 419.071901 340.610625 
L 419.071901 340.610625 
" clip-path="url(#p37e0fd4379)" style="fill: none; stroke: #1f77b4; stroke-width: 1.5; stroke-linecap: square"/>
   </g>
   <g id="patch_3">
    <path d="M 31.7 355.730625 
L 31.7 23.090625 
" style="fill: none; stroke: #000000; stroke-width: 0.8; stroke-linejoin: miter; stroke-linecap: square"/>
   </g>
   <g id="patch_4">
    <path d="M 437.518182 355.730625 
L 437.518182 23.090625 
" style="fill: none; stroke: #000000; stroke-width: 0.8; stroke-linejoin: miter; stroke-linecap: square"/>
   </g>
   <g id="patch_5">
    <path d="M 31.7 355.730625 
L 437.518182 355.730625 
" style="fill: none; stroke: #000000; stroke-width: 0.8; stroke-linejoin: miter; stroke-linecap: square"/>
   </g>
   <g id="patch_6">
    <path d="M 31.7 23.090625 
L 437.518182 23.090625 
" style="fill: none; stroke: #000000; stroke-width: 0.8; stroke-linejoin: miter; stroke-linecap: square"/>
   </g>
   <g id="text_16">
    <!-- Logistic密度函数 -->
    <g transform="translate(190.945028 17.090625) scale(0.12 -0.12)">
     <defs>
      <path id="TimesNewRomanPSMT-4c" d="M 3669 1172 
L 3772 1150 
L 3409 0 
L 128 0 
L 128 116 
L 288 116 
Q 556 116 672 291 
Q 738 391 738 753 
L 738 3488 
Q 738 3884 650 3984 
Q 528 4122 288 4122 
L 128 4122 
L 128 4238 
L 2047 4238 
L 2047 4122 
Q 1709 4125 1573 4059 
Q 1438 3994 1388 3894 
Q 1338 3794 1338 3416 
L 1338 753 
Q 1338 494 1388 397 
Q 1425 331 1503 300 
Q 1581 269 1991 269 
L 2300 269 
Q 2788 269 2984 341 
Q 3181 413 3343 595 
Q 3506 778 3669 1172 
z
" transform="scale(0.015625)"/>
      <path id="TimesNewRomanPSMT-6f" d="M 1600 2947 
Q 2250 2947 2644 2453 
Q 2978 2031 2978 1484 
Q 2978 1100 2793 706 
Q 2609 313 2286 112 
Q 1963 -88 1566 -88 
Q 919 -88 538 428 
Q 216 863 216 1403 
Q 216 1797 411 2186 
Q 606 2575 925 2761 
Q 1244 2947 1600 2947 
z
M 1503 2744 
Q 1338 2744 1170 2645 
Q 1003 2547 900 2300 
Q 797 2053 797 1666 
Q 797 1041 1045 587 
Q 1294 134 1700 134 
Q 2003 134 2200 384 
Q 2397 634 2397 1244 
Q 2397 2006 2069 2444 
Q 1847 2744 1503 2744 
z
" transform="scale(0.015625)"/>
      <path id="TimesNewRomanPSMT-67" d="M 966 1044 
Q 703 1172 562 1401 
Q 422 1631 422 1909 
Q 422 2334 742 2640 
Q 1063 2947 1563 2947 
Q 1972 2947 2272 2747 
L 2878 2747 
Q 3013 2747 3034 2739 
Q 3056 2731 3066 2713 
Q 3084 2684 3084 2613 
Q 3084 2531 3069 2500 
Q 3059 2484 3036 2475 
Q 3013 2466 2878 2466 
L 2506 2466 
Q 2681 2241 2681 1891 
Q 2681 1491 2375 1206 
Q 2069 922 1553 922 
Q 1341 922 1119 984 
Q 981 866 932 777 
Q 884 688 884 625 
Q 884 572 936 522 
Q 988 472 1138 450 
Q 1225 438 1575 428 
Q 2219 413 2409 384 
Q 2700 344 2873 169 
Q 3047 -6 3047 -263 
Q 3047 -616 2716 -925 
Q 2228 -1381 1444 -1381 
Q 841 -1381 425 -1109 
Q 191 -953 191 -784 
Q 191 -709 225 -634 
Q 278 -519 444 -313 
Q 466 -284 763 25 
Q 600 122 533 198 
Q 466 275 466 372 
Q 466 481 555 628 
Q 644 775 966 1044 
z
M 1509 2797 
Q 1278 2797 1122 2612 
Q 966 2428 966 2047 
Q 966 1553 1178 1281 
Q 1341 1075 1591 1075 
Q 1828 1075 1981 1253 
Q 2134 1431 2134 1813 
Q 2134 2309 1919 2591 
Q 1759 2797 1509 2797 
z
M 934 0 
Q 788 -159 713 -296 
Q 638 -434 638 -550 
Q 638 -700 819 -813 
Q 1131 -1006 1722 -1006 
Q 2284 -1006 2551 -807 
Q 2819 -609 2819 -384 
Q 2819 -222 2659 -153 
Q 2497 -84 2016 -72 
Q 1313 -53 934 0 
z
" transform="scale(0.015625)"/>
      <path id="TimesNewRomanPSMT-69" d="M 928 4444 
Q 1059 4444 1151 4351 
Q 1244 4259 1244 4128 
Q 1244 3997 1151 3903 
Q 1059 3809 928 3809 
Q 797 3809 703 3903 
Q 609 3997 609 4128 
Q 609 4259 701 4351 
Q 794 4444 928 4444 
z
M 1188 2947 
L 1188 647 
Q 1188 378 1227 289 
Q 1266 200 1342 156 
Q 1419 113 1622 113 
L 1622 0 
L 231 0 
L 231 113 
Q 441 113 512 153 
Q 584 194 626 287 
Q 669 381 669 647 
L 669 1750 
Q 669 2216 641 2353 
Q 619 2453 572 2492 
Q 525 2531 444 2531 
Q 356 2531 231 2484 
L 188 2597 
L 1050 2947 
L 1188 2947 
z
" transform="scale(0.015625)"/>
      <path id="TimesNewRomanPSMT-73" d="M 2050 2947 
L 2050 1972 
L 1947 1972 
Q 1828 2431 1642 2597 
Q 1456 2763 1169 2763 
Q 950 2763 815 2647 
Q 681 2531 681 2391 
Q 681 2216 781 2091 
Q 878 1963 1175 1819 
L 1631 1597 
Q 2266 1288 2266 781 
Q 2266 391 1970 151 
Q 1675 -88 1309 -88 
Q 1047 -88 709 6 
Q 606 38 541 38 
Q 469 38 428 -44 
L 325 -44 
L 325 978 
L 428 978 
Q 516 541 762 319 
Q 1009 97 1316 97 
Q 1531 97 1667 223 
Q 1803 350 1803 528 
Q 1803 744 1651 891 
Q 1500 1038 1047 1263 
Q 594 1488 453 1669 
Q 313 1847 313 2119 
Q 313 2472 555 2709 
Q 797 2947 1181 2947 
Q 1350 2947 1591 2875 
Q 1750 2828 1803 2828 
Q 1853 2828 1881 2850 
Q 1909 2872 1947 2947 
L 2050 2947 
z
" transform="scale(0.015625)"/>
      <path id="TimesNewRomanPSMT-74" d="M 1031 3803 
L 1031 2863 
L 1700 2863 
L 1700 2644 
L 1031 2644 
L 1031 788 
Q 1031 509 1111 412 
Q 1191 316 1316 316 
Q 1419 316 1516 380 
Q 1613 444 1666 569 
L 1788 569 
Q 1678 263 1478 108 
Q 1278 -47 1066 -47 
Q 922 -47 784 33 
Q 647 113 581 261 
Q 516 409 516 719 
L 516 2644 
L 63 2644 
L 63 2747 
Q 234 2816 414 2980 
Q 594 3144 734 3369 
Q 806 3488 934 3803 
L 1031 3803 
z
" transform="scale(0.015625)"/>
      <path id="TimesNewRomanPSMT-63" d="M 2631 1088 
Q 2516 522 2178 217 
Q 1841 -88 1431 -88 
Q 944 -88 581 321 
Q 219 731 219 1428 
Q 219 2103 620 2525 
Q 1022 2947 1584 2947 
Q 2006 2947 2278 2723 
Q 2550 2500 2550 2259 
Q 2550 2141 2473 2067 
Q 2397 1994 2259 1994 
Q 2075 1994 1981 2113 
Q 1928 2178 1911 2362 
Q 1894 2547 1784 2644 
Q 1675 2738 1481 2738 
Q 1169 2738 978 2506 
Q 725 2200 725 1697 
Q 725 1184 976 792 
Q 1228 400 1656 400 
Q 1963 400 2206 609 
Q 2378 753 2541 1131 
L 2631 1088 
z
" transform="scale(0.015625)"/>
      <path id="SimSun-5bc6" d="M 1050 4650 
L 1075 4375 
L 3075 4375 
Q 3050 4775 2775 5175 
L 2825 5225 
Q 3325 4975 3375 4862 
Q 3425 4750 3425 4675 
Q 3425 4525 3275 4375 
L 5325 4375 
L 5575 4625 
L 6000 4150 
Q 5650 4200 5100 3575 
L 5025 3625 
L 5350 4225 
L 1075 4225 
Q 1075 3850 1025 3725 
Q 975 3600 850 3562 
Q 725 3525 650 3525 
Q 575 3525 525 3550 
Q 475 3575 475 3600 
Q 475 3675 625 3850 
Q 850 4100 950 4650 
L 1050 4650 
z
M 1500 3275 
Q 1475 2600 1387 2462 
Q 1300 2325 1162 2275 
Q 1025 2225 887 2275 
Q 750 2325 750 2375 
Q 750 2425 925 2575 
Q 1175 2775 1400 3300 
L 1500 3275 
z
M 2050 2700 
Q 2050 3225 2025 3625 
L 2625 3375 
L 2375 3200 
L 2375 2350 
Q 2800 2575 3350 3012 
Q 3900 3450 4325 4000 
L 4700 3550 
L 4450 3500 
Q 3900 3025 3462 2712 
Q 3025 2400 2425 2100 
Q 2400 2050 2800 2050 
L 4025 2050 
Q 4175 2075 4225 2237 
Q 4275 2400 4300 2825 
L 4400 2825 
Q 4400 2500 4437 2325 
Q 4475 2150 4700 2050 
Q 4550 1750 3950 1775 
L 2575 1775 
Q 2400 1775 2262 1775 
Q 2125 1775 2075 1950 
Q 1350 1700 300 1550 
L 275 1625 
Q 1175 1825 2050 2200 
L 2050 2700 
z
M 2600 4050 
L 2650 4100 
Q 3200 3775 3237 3662 
Q 3275 3550 3275 3500 
Q 3275 3350 3175 3237 
Q 3075 3125 3025 3125 
Q 2950 3125 2900 3375 
Q 2825 3725 2600 4050 
z
M 4725 3200 
L 4775 3275 
Q 5350 3000 5525 2837 
Q 5700 2675 5712 2525 
Q 5725 2375 5625 2250 
Q 5525 2125 5475 2125 
Q 5400 2125 5325 2350 
Q 5200 2700 4725 3200 
z
M 2975 -50 
Q 2975 1200 2950 1625 
L 3550 1350 
L 3300 1175 
L 3300 -50 
L 4750 -50 
Q 4750 950 4725 1300 
L 5275 1025 
L 5075 850 
Q 5075 75 5100 -400 
L 4750 -500 
L 4750 -200 
L 1575 -200 
L 1400 -375 
L 1075 -75 
L 1250 50 
Q 1250 850 1225 1275 
L 1800 1025 
L 1575 875 
L 1575 -50 
L 2975 -50 
z
" transform="scale(0.015625)"/>
      <path id="SimSun-5ea6" d="M 2550 2025 
Q 2575 2525 2575 3175 
L 1925 3175 
L 1625 3125 
L 1425 3325 
L 2575 3325 
Q 2575 3700 2550 4150 
L 3100 3875 
L 2900 3750 
L 2900 3325 
L 4300 3325 
Q 4300 3750 4275 4125 
L 4850 3875 
L 4625 3725 
L 4625 3325 
L 5100 3325 
L 5425 3650 
L 5900 3175 
L 4625 3175 
Q 4625 2450 4650 2225 
L 4300 2075 
L 4300 2300 
L 2900 2300 
L 2900 2175 
L 2550 2025 
z
M 4875 1500 
Q 4300 775 3900 425 
Q 4700 -75 6025 -125 
L 6025 -225 
Q 5625 -300 5550 -550 
Q 4375 -325 3675 225 
Q 2475 -450 1075 -625 
L 1050 -525 
Q 2375 -275 3450 450 
Q 2975 925 2575 1625 
L 2325 1625 
L 2100 1575 
L 1900 1775 
L 4525 1775 
L 4750 2000 
L 5125 1625 
L 4875 1500 
z
M 2700 1625 
Q 3175 975 3650 625 
Q 4150 1100 4500 1625 
L 2700 1625 
z
M 2900 3175 
L 2900 2450 
L 4300 2450 
L 4300 3175 
L 2900 3175 
z
M 975 4650 
L 1400 4400 
L 3375 4400 
Q 3350 4550 3262 4725 
Q 3175 4900 2900 5225 
L 2975 5275 
Q 3550 5025 3637 4887 
Q 3725 4750 3725 4725 
Q 3725 4575 3525 4400 
L 5150 4400 
L 5500 4750 
L 6000 4250 
L 1375 4250 
Q 1400 2750 1287 1912 
Q 1175 1075 925 475 
Q 675 -125 300 -625 
L 225 -575 
Q 725 300 862 1250 
Q 1000 2200 1012 3187 
Q 1025 4175 975 4650 
z
" transform="scale(0.015625)"/>
      <path id="SimSun-51fd" d="M 3050 2275 
L 3050 3000 
Q 3050 3450 3025 3800 
L 3275 3625 
L 4450 4475 
L 1650 4475 
Q 1325 4475 1050 4400 
L 825 4625 
L 4450 4625 
L 4775 4875 
L 5150 4375 
Q 4875 4325 4550 4175 
Q 4225 4025 3400 3550 
L 3550 3450 
L 3375 3325 
L 3375 2400 
Q 4250 3225 4475 3600 
L 4875 3150 
L 4625 3125 
Q 3625 2425 3400 2275 
Q 4575 1675 4687 1487 
Q 4800 1300 4800 1150 
Q 4800 1025 4750 925 
Q 4700 825 4675 825 
Q 4575 825 4375 1150 
Q 4075 1600 3375 2150 
L 3375 725 
Q 3375 350 2875 150 
Q 2850 450 2200 650 
L 2200 750 
Q 2800 675 2925 700 
Q 3050 725 3050 850 
L 3050 2100 
Q 1850 1300 1625 1025 
L 1275 1400 
Q 1575 1475 2087 1725 
Q 2600 1975 3050 2275 
z
M 1700 3475 
L 1775 3550 
Q 2350 3200 2475 3025 
Q 2600 2850 2600 2775 
Q 2600 2650 2500 2525 
Q 2400 2400 2350 2400 
Q 2275 2400 2225 2575 
Q 2150 2875 1700 3475 
z
M 5150 0 
L 5150 2175 
Q 5150 2725 5125 3325 
L 5725 3050 
L 5500 2850 
L 5500 525 
Q 5500 100 5525 -400 
L 5150 -600 
L 5150 -150 
L 1250 -150 
L 1000 -375 
L 675 -50 
L 875 125 
L 875 2375 
Q 875 2800 850 3425 
L 1450 3150 
L 1225 2975 
L 1225 0 
L 5150 0 
z
" transform="scale(0.015625)"/>
      <path id="SimSun-6570" d="M 1875 1525 
Q 1675 1200 1500 900 
Q 1825 825 2275 725 
Q 2500 975 2725 1525 
L 1875 1525 
z
M 850 4900 
Q 1325 4600 1425 4450 
Q 1525 4300 1525 4225 
Q 1525 4100 1437 3975 
Q 1350 3850 1300 3850 
Q 1225 3850 1150 4100 
Q 1050 4450 775 4850 
L 850 4900 
z
M 3000 4975 
L 3450 4675 
Q 3250 4625 3100 4425 
Q 2925 4225 2525 3825 
L 2450 3875 
Q 2925 4625 3000 4975 
z
M 1875 5250 
L 2425 5000 
L 2225 4825 
L 2225 3675 
L 2850 3675 
L 3125 3950 
L 3550 3525 
L 2225 3525 
L 2225 3300 
Q 2800 3175 2937 3062 
Q 3075 2950 3075 2775 
Q 3075 2700 3050 2587 
Q 3025 2475 2975 2475 
Q 2925 2475 2800 2650 
Q 2600 2925 2225 3175 
L 2225 2400 
L 1925 2200 
L 2275 2050 
Q 2150 2000 1950 1675 
L 2725 1675 
L 2900 1900 
L 3275 1575 
L 3050 1450 
Q 2800 875 2600 650 
Q 3000 550 3137 437 
Q 3275 325 3275 150 
Q 3275 -25 3200 -25 
Q 3125 -25 3025 75 
Q 2750 275 2400 425 
Q 1525 -275 325 -500 
L 300 -425 
Q 1450 -50 2100 550 
Q 1600 725 1125 800 
Q 1225 950 1525 1525 
L 1200 1525 
Q 875 1525 600 1450 
L 375 1675 
L 1575 1675 
Q 1675 1925 1775 2275 
L 1900 2225 
L 1900 3250 
Q 1225 2475 350 2050 
L 300 2125 
Q 1225 2775 1700 3525 
L 1250 3525 
Q 925 3525 650 3450 
L 425 3675 
L 1900 3675 
Q 1900 4575 1875 5250 
z
M 3925 3525 
Q 4050 2075 4525 1100 
Q 4925 1950 5025 3525 
L 3925 3525 
z
M 4050 5250 
L 4625 4925 
Q 4425 4850 4325 4625 
Q 4225 4400 3950 3675 
L 5375 3675 
L 5675 3975 
L 6125 3525 
L 5400 3525 
Q 5250 1675 4750 775 
Q 5325 75 6100 -100 
L 6100 -200 
Q 5625 -275 5600 -500 
Q 4950 -50 4525 525 
Q 3700 -275 2550 -650 
L 2500 -575 
Q 3650 -50 4325 800 
Q 3850 1975 3825 3375 
Q 3575 2725 3100 2150 
L 3025 2200 
Q 3625 3200 4050 5250 
z
" transform="scale(0.015625)"/>
     </defs>
     <use xlink:href="#TimesNewRomanPSMT-4c"/>
     <use xlink:href="#TimesNewRomanPSMT-6f" x="61.083984"/>
     <use xlink:href="#TimesNewRomanPSMT-67" x="111.083984"/>
     <use xlink:href="#TimesNewRomanPSMT-69" x="161.083984"/>
     <use xlink:href="#TimesNewRomanPSMT-73" x="188.867188"/>
     <use xlink:href="#TimesNewRomanPSMT-74" x="227.783203"/>
     <use xlink:href="#TimesNewRomanPSMT-69" x="255.566406"/>
     <use xlink:href="#TimesNewRomanPSMT-63" x="283.349609"/>
     <use xlink:href="#SimSun-5bc6" x="327.734375"/>
     <use xlink:href="#SimSun-5ea6" x="427.734375"/>
     <use xlink:href="#SimSun-51fd" x="527.734375"/>
     <use xlink:href="#SimSun-6570" x="627.734375"/>
    </g>
   </g>
  </g>
  <g id="axes_2">
   <g id="patch_7">
    <path d="M 518.681818 355.730625 
L 924.5 355.730625 
L 924.5 23.090625 
L 518.681818 23.090625 
z
" style="fill: #ffffff"/>
   </g>
   <g id="matplotlib.axis_3">
    <g id="xtick_10">
     <g id="line2d_17">
      <g>
       <use xlink:href="#m5a3085b730" x="537.128099" y="355.730625" style="stroke: #000000; stroke-width: 0.8"/>
      </g>
     </g>
     <g id="text_17">
      <!-- -10.0 -->
      <g transform="translate(526.713255 369.674375) scale(0.1 -0.1)">
       <use xlink:href="#TimesNewRomanPSMT-2d"/>
       <use xlink:href="#TimesNewRomanPSMT-31" x="33.300781"/>
       <use xlink:href="#TimesNewRomanPSMT-30" x="83.300781"/>
       <use xlink:href="#TimesNewRomanPSMT-2e" x="133.300781"/>
       <use xlink:href="#TimesNewRomanPSMT-30" x="158.300781"/>
      </g>
     </g>
    </g>
    <g id="xtick_11">
     <g id="line2d_18">
      <g>
       <use xlink:href="#m5a3085b730" x="583.243802" y="355.730625" style="stroke: #000000; stroke-width: 0.8"/>
      </g>
     </g>
     <g id="text_18">
      <!-- -7.5 -->
      <g transform="translate(575.328958 369.674375) scale(0.1 -0.1)">
       <use xlink:href="#TimesNewRomanPSMT-2d"/>
       <use xlink:href="#TimesNewRomanPSMT-37" x="33.300781"/>
       <use xlink:href="#TimesNewRomanPSMT-2e" x="83.300781"/>
       <use xlink:href="#TimesNewRomanPSMT-35" x="108.300781"/>
      </g>
     </g>
    </g>
    <g id="xtick_12">
     <g id="line2d_19">
      <g>
       <use xlink:href="#m5a3085b730" x="629.359504" y="355.730625" style="stroke: #000000; stroke-width: 0.8"/>
      </g>
     </g>
     <g id="text_19">
      <!-- -5.0 -->
      <g transform="translate(621.44466 369.674375) scale(0.1 -0.1)">
       <use xlink:href="#TimesNewRomanPSMT-2d"/>
       <use xlink:href="#TimesNewRomanPSMT-35" x="33.300781"/>
       <use xlink:href="#TimesNewRomanPSMT-2e" x="83.300781"/>
       <use xlink:href="#TimesNewRomanPSMT-30" x="108.300781"/>
      </g>
     </g>
    </g>
    <g id="xtick_13">
     <g id="line2d_20">
      <g>
       <use xlink:href="#m5a3085b730" x="675.475207" y="355.730625" style="stroke: #000000; stroke-width: 0.8"/>
      </g>
     </g>
     <g id="text_20">
      <!-- -2.5 -->
      <g transform="translate(667.560363 369.674375) scale(0.1 -0.1)">
       <use xlink:href="#TimesNewRomanPSMT-2d"/>
       <use xlink:href="#TimesNewRomanPSMT-32" x="33.300781"/>
       <use xlink:href="#TimesNewRomanPSMT-2e" x="83.300781"/>
       <use xlink:href="#TimesNewRomanPSMT-35" x="108.300781"/>
      </g>
     </g>
    </g>
    <g id="xtick_14">
     <g id="line2d_21">
      <g>
       <use xlink:href="#m5a3085b730" x="721.590909" y="355.730625" style="stroke: #000000; stroke-width: 0.8"/>
      </g>
     </g>
     <g id="text_21">
      <!-- 0.0 -->
      <g transform="translate(715.340909 369.674375) scale(0.1 -0.1)">
       <use xlink:href="#TimesNewRomanPSMT-30"/>
       <use xlink:href="#TimesNewRomanPSMT-2e" x="50"/>
       <use xlink:href="#TimesNewRomanPSMT-30" x="75"/>
      </g>
     </g>
    </g>
    <g id="xtick_15">
     <g id="line2d_22">
      <g>
       <use xlink:href="#m5a3085b730" x="767.706612" y="355.730625" style="stroke: #000000; stroke-width: 0.8"/>
      </g>
     </g>
     <g id="text_22">
      <!-- 2.5 -->
      <g transform="translate(761.456612 369.674375) scale(0.1 -0.1)">
       <use xlink:href="#TimesNewRomanPSMT-32"/>
       <use xlink:href="#TimesNewRomanPSMT-2e" x="50"/>
       <use xlink:href="#TimesNewRomanPSMT-35" x="75"/>
      </g>
     </g>
    </g>
    <g id="xtick_16">
     <g id="line2d_23">
      <g>
       <use xlink:href="#m5a3085b730" x="813.822314" y="355.730625" style="stroke: #000000; stroke-width: 0.8"/>
      </g>
     </g>
     <g id="text_23">
      <!-- 5.0 -->
      <g transform="translate(807.572314 369.674375) scale(0.1 -0.1)">
       <use xlink:href="#TimesNewRomanPSMT-35"/>
       <use xlink:href="#TimesNewRomanPSMT-2e" x="50"/>
       <use xlink:href="#TimesNewRomanPSMT-30" x="75"/>
      </g>
     </g>
    </g>
    <g id="xtick_17">
     <g id="line2d_24">
      <g>
       <use xlink:href="#m5a3085b730" x="859.938017" y="355.730625" style="stroke: #000000; stroke-width: 0.8"/>
      </g>
     </g>
     <g id="text_24">
      <!-- 7.5 -->
      <g transform="translate(853.688017 369.674375) scale(0.1 -0.1)">
       <use xlink:href="#TimesNewRomanPSMT-37"/>
       <use xlink:href="#TimesNewRomanPSMT-2e" x="50"/>
       <use xlink:href="#TimesNewRomanPSMT-35" x="75"/>
      </g>
     </g>
    </g>
    <g id="xtick_18">
     <g id="line2d_25">
      <g>
       <use xlink:href="#m5a3085b730" x="906.053719" y="355.730625" style="stroke: #000000; stroke-width: 0.8"/>
      </g>
     </g>
     <g id="text_25">
      <!-- 10.0 -->
      <g transform="translate(897.303719 369.674375) scale(0.1 -0.1)">
       <use xlink:href="#TimesNewRomanPSMT-31"/>
       <use xlink:href="#TimesNewRomanPSMT-30" x="50"/>
       <use xlink:href="#TimesNewRomanPSMT-2e" x="100"/>
       <use xlink:href="#TimesNewRomanPSMT-30" x="125"/>
      </g>
     </g>
    </g>
   </g>
   <g id="matplotlib.axis_4">
    <g id="ytick_7">
     <g id="line2d_26">
      <g>
       <use xlink:href="#m20a30ed015" x="518.681818" y="340.624355" style="stroke: #000000; stroke-width: 0.8"/>
      </g>
     </g>
     <g id="text_26">
      <!-- 0.0 -->
      <g transform="translate(499.181818 344.09623) scale(0.1 -0.1)">
       <use xlink:href="#TimesNewRomanPSMT-30"/>
       <use xlink:href="#TimesNewRomanPSMT-2e" x="50"/>
       <use xlink:href="#TimesNewRomanPSMT-30" x="75"/>
      </g>
     </g>
    </g>
    <g id="ytick_8">
     <g id="line2d_27">
      <g>
       <use xlink:href="#m20a30ed015" x="518.681818" y="280.138863" style="stroke: #000000; stroke-width: 0.8"/>
      </g>
     </g>
     <g id="text_27">
      <!-- 0.2 -->
      <g transform="translate(499.181818 283.610738) scale(0.1 -0.1)">
       <use xlink:href="#TimesNewRomanPSMT-30"/>
       <use xlink:href="#TimesNewRomanPSMT-2e" x="50"/>
       <use xlink:href="#TimesNewRomanPSMT-32" x="75"/>
      </g>
     </g>
    </g>
    <g id="ytick_9">
     <g id="line2d_28">
      <g>
       <use xlink:href="#m20a30ed015" x="518.681818" y="219.653371" style="stroke: #000000; stroke-width: 0.8"/>
      </g>
     </g>
     <g id="text_28">
      <!-- 0.4 -->
      <g transform="translate(499.181818 223.125246) scale(0.1 -0.1)">
       <defs>
        <path id="TimesNewRomanPSMT-34" d="M 2978 1563 
L 2978 1119 
L 2409 1119 
L 2409 0 
L 1894 0 
L 1894 1119 
L 100 1119 
L 100 1519 
L 2066 4325 
L 2409 4325 
L 2409 1563 
L 2978 1563 
z
M 1894 1563 
L 1894 3666 
L 406 1563 
L 1894 1563 
z
" transform="scale(0.015625)"/>
       </defs>
       <use xlink:href="#TimesNewRomanPSMT-30"/>
       <use xlink:href="#TimesNewRomanPSMT-2e" x="50"/>
       <use xlink:href="#TimesNewRomanPSMT-34" x="75"/>
      </g>
     </g>
    </g>
    <g id="ytick_10">
     <g id="line2d_29">
      <g>
       <use xlink:href="#m20a30ed015" x="518.681818" y="159.167879" style="stroke: #000000; stroke-width: 0.8"/>
      </g>
     </g>
     <g id="text_29">
      <!-- 0.6 -->
      <g transform="translate(499.181818 162.639754) scale(0.1 -0.1)">
       <defs>
        <path id="TimesNewRomanPSMT-36" d="M 2869 4325 
L 2869 4209 
Q 2456 4169 2195 4045 
Q 1934 3922 1679 3669 
Q 1425 3416 1258 3105 
Q 1091 2794 978 2366 
Q 1428 2675 1881 2675 
Q 2316 2675 2634 2325 
Q 2953 1975 2953 1425 
Q 2953 894 2631 456 
Q 2244 -75 1606 -75 
Q 1172 -75 869 213 
Q 275 772 275 1663 
Q 275 2231 503 2743 
Q 731 3256 1154 3653 
Q 1578 4050 1965 4187 
Q 2353 4325 2688 4325 
L 2869 4325 
z
M 925 2138 
Q 869 1716 869 1456 
Q 869 1156 980 804 
Q 1091 453 1309 247 
Q 1469 100 1697 100 
Q 1969 100 2183 356 
Q 2397 613 2397 1088 
Q 2397 1622 2184 2012 
Q 1972 2403 1581 2403 
Q 1463 2403 1327 2353 
Q 1191 2303 925 2138 
z
" transform="scale(0.015625)"/>
       </defs>
       <use xlink:href="#TimesNewRomanPSMT-30"/>
       <use xlink:href="#TimesNewRomanPSMT-2e" x="50"/>
       <use xlink:href="#TimesNewRomanPSMT-36" x="75"/>
      </g>
     </g>
    </g>
    <g id="ytick_11">
     <g id="line2d_30">
      <g>
       <use xlink:href="#m20a30ed015" x="518.681818" y="98.682387" style="stroke: #000000; stroke-width: 0.8"/>
      </g>
     </g>
     <g id="text_30">
      <!-- 0.8 -->
      <g transform="translate(499.181818 102.154262) scale(0.1 -0.1)">
       <defs>
        <path id="TimesNewRomanPSMT-38" d="M 1228 2134 
Q 725 2547 579 2797 
Q 434 3047 434 3316 
Q 434 3728 753 4026 
Q 1072 4325 1600 4325 
Q 2113 4325 2425 4047 
Q 2738 3769 2738 3413 
Q 2738 3175 2569 2928 
Q 2400 2681 1866 2347 
Q 2416 1922 2594 1678 
Q 2831 1359 2831 1006 
Q 2831 559 2490 242 
Q 2150 -75 1597 -75 
Q 994 -75 656 303 
Q 388 606 388 966 
Q 388 1247 577 1523 
Q 766 1800 1228 2134 
z
M 1719 2469 
Q 2094 2806 2194 3001 
Q 2294 3197 2294 3444 
Q 2294 3772 2109 3958 
Q 1925 4144 1606 4144 
Q 1288 4144 1088 3959 
Q 888 3775 888 3528 
Q 888 3366 970 3203 
Q 1053 3041 1206 2894 
L 1719 2469 
z
M 1375 2016 
Q 1116 1797 991 1539 
Q 866 1281 866 981 
Q 866 578 1086 336 
Q 1306 94 1647 94 
Q 1984 94 2187 284 
Q 2391 475 2391 747 
Q 2391 972 2272 1150 
Q 2050 1481 1375 2016 
z
" transform="scale(0.015625)"/>
       </defs>
       <use xlink:href="#TimesNewRomanPSMT-30"/>
       <use xlink:href="#TimesNewRomanPSMT-2e" x="50"/>
       <use xlink:href="#TimesNewRomanPSMT-38" x="75"/>
      </g>
     </g>
    </g>
    <g id="ytick_12">
     <g id="line2d_31">
      <g>
       <use xlink:href="#m20a30ed015" x="518.681818" y="38.196895" style="stroke: #000000; stroke-width: 0.8"/>
      </g>
     </g>
     <g id="text_31">
      <!-- 1.0 -->
      <g transform="translate(499.181818 41.66877) scale(0.1 -0.1)">
       <use xlink:href="#TimesNewRomanPSMT-31"/>
       <use xlink:href="#TimesNewRomanPSMT-2e" x="50"/>
       <use xlink:href="#TimesNewRomanPSMT-30" x="75"/>
      </g>
     </g>
    </g>
   </g>
   <g id="line2d_32">
    <path d="M 537.128099 340.610625 
L 582.182079 340.466525 
L 600.27753 340.203777 
L 612.094967 339.827222 
L 620.958045 339.337601 
L 627.974648 338.745739 
L 633.883367 338.042487 
L 639.053496 337.216663 
L 643.85433 336.218424 
L 647.916574 335.152656 
L 651.609523 333.966567 
L 654.933177 332.6866 
L 658.256831 331.168425 
L 661.211191 329.585891 
L 664.16555 327.750144 
L 667.119909 325.62482 
L 669.704974 323.496161 
L 672.290038 321.085948 
L 674.875102 318.363043 
L 677.460167 315.294646 
L 680.045231 311.846759 
L 682.630296 307.984826 
L 685.21536 303.674604 
L 687.800424 298.883258 
L 690.385489 293.580706 
L 692.970553 287.741197 
L 695.555618 281.345084 
L 698.140682 274.380732 
L 701.095041 265.72402 
L 704.049401 256.339752 
L 707.373055 244.9628 
L 711.066004 231.416233 
L 715.128248 215.631852 
L 721.036967 191.680931 
L 729.161455 158.809114 
L 733.223699 143.250383 
L 736.916648 129.974382 
L 740.240302 118.87911 
L 743.194662 109.764344 
L 746.149021 101.385857 
L 748.734085 94.665866 
L 751.31915 88.510234 
L 753.904214 82.903654 
L 756.489279 77.823635 
L 759.074343 73.242363 
L 761.659407 69.128395 
L 764.244472 65.448144 
L 766.829536 62.167112 
L 769.414601 59.250889 
L 771.999665 56.665923 
L 774.584729 54.380079 
L 777.169794 52.363033 
L 780.124153 50.350801 
L 783.078512 48.614068 
L 786.032872 47.117879 
L 789.356526 45.683396 
L 793.049475 44.352745 
L 796.742424 43.254548 
L 800.804668 42.268321 
L 805.605502 41.34507 
L 810.775631 40.581635 
L 816.68435 39.931767 
L 823.700953 39.385012 
L 832.564031 38.932832 
L 843.642878 38.600988 
L 859.52256 38.367877 
L 885.742499 38.238183 
L 906.053719 38.210625 
L 906.053719 38.210625 
" clip-path="url(#pcd5ac3ff2a)" style="fill: none; stroke: #1f77b4; stroke-width: 1.5; stroke-linecap: square"/>
   </g>
   <g id="patch_8">
    <path d="M 518.681818 355.730625 
L 518.681818 23.090625 
" style="fill: none; stroke: #000000; stroke-width: 0.8; stroke-linejoin: miter; stroke-linecap: square"/>
   </g>
   <g id="patch_9">
    <path d="M 924.5 355.730625 
L 924.5 23.090625 
" style="fill: none; stroke: #000000; stroke-width: 0.8; stroke-linejoin: miter; stroke-linecap: square"/>
   </g>
   <g id="patch_10">
    <path d="M 518.681818 355.730625 
L 924.5 355.730625 
" style="fill: none; stroke: #000000; stroke-width: 0.8; stroke-linejoin: miter; stroke-linecap: square"/>
   </g>
   <g id="patch_11">
    <path d="M 518.681818 23.090625 
L 924.5 23.090625 
" style="fill: none; stroke: #000000; stroke-width: 0.8; stroke-linejoin: miter; stroke-linecap: square"/>
   </g>
   <g id="text_32">
    <!-- Logistic分布函数 -->
    <g transform="translate(677.926847 17.090625) scale(0.12 -0.12)">
     <defs>
      <path id="SimSun-5206" d="M 2350 5050 
L 2850 4675 
L 2625 4550 
Q 2200 3750 1687 3125 
Q 1175 2500 375 2025 
L 325 2100 
Q 975 2625 1475 3337 
Q 1975 4050 2350 5050 
z
M 4100 4975 
L 3900 4850 
Q 4175 3850 4800 3300 
Q 5425 2750 6125 2625 
L 6125 2550 
Q 5750 2500 5600 2225 
Q 4775 2675 4287 3425 
Q 3800 4175 3625 5175 
L 4100 4975 
z
M 1375 2625 
L 4225 2625 
L 4475 2875 
L 4825 2525 
L 4625 2375 
Q 4575 400 4375 -12 
Q 4175 -425 3675 -600 
Q 3600 -200 2975 -25 
L 2975 75 
Q 3600 -25 3787 -12 
Q 3975 0 4075 275 
Q 4175 550 4275 2475 
L 2975 2475 
Q 2825 1400 2375 662 
Q 1925 -75 650 -625 
L 600 -525 
Q 1725 50 2112 837 
Q 2500 1625 2575 2475 
L 1800 2475 
L 1575 2425 
L 1375 2625 
z
" transform="scale(0.015625)"/>
      <path id="SimSun-5e03" d="M 3425 2725 
Q 3425 3225 3400 3625 
L 3975 3375 
L 3775 3200 
L 3775 2725 
L 4950 2725 
L 5150 2975 
L 5575 2650 
L 5350 2500 
L 5350 500 
Q 5300 100 4800 -50 
Q 4800 225 4175 475 
L 4175 575 
Q 4625 500 4812 500 
Q 5000 500 5000 700 
L 5000 2575 
L 3775 2575 
L 3775 550 
Q 3775 -25 3800 -500 
L 3400 -675 
Q 3425 250 3425 1025 
L 3425 2575 
L 2275 2575 
L 2275 125 
L 1900 -25 
Q 1925 775 1925 2525 
Q 1225 1650 300 1025 
L 250 1100 
Q 1300 2050 1762 2800 
Q 2225 3550 2375 3875 
L 825 3875 
L 600 3825 
L 400 4025 
L 2425 4025 
Q 2750 4725 2850 5225 
L 3450 4850 
L 3200 4725 
L 2825 4025 
L 5175 4025 
L 5550 4400 
L 6075 3875 
L 2775 3875 
Q 2500 3350 2175 2850 
L 2250 2725 
L 3425 2725 
z
" transform="scale(0.015625)"/>
     </defs>
     <use xlink:href="#TimesNewRomanPSMT-4c"/>
     <use xlink:href="#TimesNewRomanPSMT-6f" x="61.083984"/>
     <use xlink:href="#TimesNewRomanPSMT-67" x="111.083984"/>
     <use xlink:href="#TimesNewRomanPSMT-69" x="161.083984"/>
     <use xlink:href="#TimesNewRomanPSMT-73" x="188.867188"/>
     <use xlink:href="#TimesNewRomanPSMT-74" x="227.783203"/>
     <use xlink:href="#TimesNewRomanPSMT-69" x="255.566406"/>
     <use xlink:href="#TimesNewRomanPSMT-63" x="283.349609"/>
     <use xlink:href="#SimSun-5206" x="327.734375"/>
     <use xlink:href="#SimSun-5e03" x="427.734375"/>
     <use xlink:href="#SimSun-51fd" x="527.734375"/>
     <use xlink:href="#SimSun-6570" x="627.734375"/>
    </g>
   </g>
  </g>
 </g>
 <defs>
  <clipPath id="p37e0fd4379">
   <rect x="31.7" y="23.090625" width="405.818182" height="332.64"/>
  </clipPath>
  <clipPath id="pcd5ac3ff2a">
   <rect x="518.681818" y="23.090625" width="405.818182" height="332.64"/>
  </clipPath>
 </defs>
</svg>
